<ttFont>
    <TTGlyph name=".notdef" xMin="123" yMin="-500" xMax="543" yMax="1050">
      <contour>
        <pt x="123" y="-500" on="1"/>
        <pt x="123" y="1050" on="1"/>
        <pt x="543" y="1050" on="1"/>
        <pt x="543" y="-500" on="1"/>
      </contour>
      <contour>
        <pt x="178" y="-448" on="1"/>
        <pt x="489" y="-448" on="1"/>
        <pt x="489" y="998" on="1"/>
        <pt x="178" y="998" on="1"/>
      </contour>
      <contour>
        <pt x="384" y="451" on="0"/>
        <pt x="435" y="387" on="0"/>
        <pt x="435" y="336" on="1"/>
        <pt x="435" y="283" on="0"/>
        <pt x="390" y="225" on="0"/>
        <pt x="340" y="218" on="1"/>
        <pt x="340" y="173" on="1"/>
        <pt x="340" y="162" on="0"/>
        <pt x="325" y="149" on="0"/>
        <pt x="315" y="149" on="1"/>
        <pt x="305" y="149" on="0"/>
        <pt x="290" y="162" on="0"/>
        <pt x="290" y="173" on="1"/>
        <pt x="290" y="257" on="1"/>
        <pt x="343" y="260" on="0"/>
        <pt x="381" y="293" on="0"/>
        <pt x="381" y="334" on="1"/>
        <pt x="381" y="367" on="0"/>
        <pt x="355" y="403" on="0"/>
        <pt x="320" y="403" on="1"/>
        <pt x="291" y="403" on="0"/>
        <pt x="268" y="392" on="1"/>
        <pt x="260" y="389" on="0"/>
        <pt x="255" y="389" on="1"/>
        <pt x="244" y="389" on="0"/>
        <pt x="231" y="402" on="0"/>
        <pt x="231" y="412" on="1"/>
        <pt x="231" y="431" on="0"/>
        <pt x="290" y="451" on="0"/>
        <pt x="324" y="451" on="1"/>
      </contour>
      <contour>
        <pt x="330" y="120" on="0"/>
        <pt x="350" y="100" on="0"/>
        <pt x="350" y="85" on="1"/>
        <pt x="350" y="69" on="0"/>
        <pt x="330" y="48" on="0"/>
        <pt x="315" y="48" on="1"/>
        <pt x="300" y="48" on="0"/>
        <pt x="280" y="69" on="0"/>
        <pt x="280" y="85" on="1"/>
        <pt x="280" y="100" on="0"/>
        <pt x="300" y="120" on="0"/>
        <pt x="315" y="120" on="1"/>
      </contour>
    </TTGlyph>
    <TTGlyph name="A" xMin="16" yMin="0" xMax="548" yMax="685">
      <contour>
        <pt x="137" y="187" on="1"/>
        <pt x="77" y="0" on="1"/>
        <pt x="16" y="0" on="1"/>
        <pt x="245" y="685" on="1"/>
        <pt x="320" y="685" on="1"/>
        <pt x="548" y="0" on="1"/>
        <pt x="485" y="0" on="1"/>
        <pt x="425" y="187" on="1"/>
      </contour>
      <contour>
        <pt x="282" y="636" on="1"/>
        <pt x="153" y="238" on="1"/>
        <pt x="409" y="238" on="1"/>
      </contour>
    </TTGlyph>
    <TTGlyph name="AE" xMin="0" yMin="0" xMax="737" yMax="685">
      <contour>
        <pt x="737" y="0" on="1"/>
        <pt x="461" y="0" on="1"/>
        <pt x="415" y="184" on="1"/>
        <pt x="130" y="184" on="1"/>
        <pt x="60" y="0" on="1"/>
        <pt x="0" y="0" on="1"/>
        <pt x="267" y="685" on="1"/>
        <pt x="690" y="685" on="1"/>
        <pt x="683" y="635" on="1"/>
        <pt x="358" y="635" on="1"/>
        <pt x="424" y="379" on="1"/>
        <pt x="682" y="379" on="1"/>
        <pt x="682" y="330" on="1"/>
        <pt x="437" y="330" on="1"/>
        <pt x="509" y="50" on="1"/>
        <pt x="737" y="50" on="1"/>
      </contour>
      <contour>
        <pt x="302" y="637" on="1"/>
        <pt x="149" y="235" on="1"/>
        <pt x="403" y="235" on="1"/>
      </contour>
    </TTGlyph>
    <TTGlyph name="AEacute" xMin="0" yMin="0" xMax="737" yMax="888">
      <component glyphName="AE" x="0" y="0" flags="0x0"/>
      <component glyphName="acute.case" x="323" y="0" flags="0x0"/>
    </TTGlyph>
    <TTGlyph name="Aacute" xMin="16" yMin="0" xMax="548" yMax="888">
      <component glyphName="A" x="0" y="0" flags="0x0"/>
      <component glyphName="acute.case" x="149" y="0" flags="0x0"/>
    </TTGlyph>
    <TTGlyph name="Abreve" xMin="16" yMin="0" xMax="548" yMax="874">
      <component glyphName="A" x="0" y="0" flags="0x0"/>
      <component glyphName="breve.case" x="122" y="0" flags="0x0"/>
    </TTGlyph>
    <TTGlyph name="Acircumflex" xMin="16" yMin="0" xMax="548" yMax="894">
      <component glyphName="A" x="0" y="0" flags="0x0"/>
      <component glyphName="circumflex.case" x="104" y="0" flags="0x0"/>
    </TTGlyph>
    <TTGlyph name="Adieresis" xMin="16" yMin="0" xMax="548" yMax="868">
      <component glyphName="A" x="0" y="0" flags="0x0"/>
      <component glyphName="dieresis.case" x="117" y="0" flags="0x0"/>
    </TTGlyph>
    <TTGlyph name="Agrave" xMin="16" yMin="0" xMax="548" yMax="888">
      <component glyphName="A" x="0" y="0" flags="0x0"/>
      <component glyphName="grave.case" x="138" y="0" flags="0x0"/>
    </TTGlyph>
    <TTGlyph name="Alpha" xMin="16" yMin="0" xMax="548" yMax="685">
      <contour>
        <pt x="137" y="187" on="1"/>
        <pt x="77" y="0" on="1"/>
        <pt x="16" y="0" on="1"/>
        <pt x="245" y="685" on="1"/>
        <pt x="320" y="685" on="1"/>
        <pt x="548" y="0" on="1"/>
        <pt x="485" y="0" on="1"/>
        <pt x="425" y="187" on="1"/>
      </contour>
      <contour>
        <pt x="282" y="636" on="1"/>
        <pt x="153" y="238" on="1"/>
        <pt x="409" y="238" on="1"/>
      </contour>
    </TTGlyph>
    <TTGlyph name="Alphatonos" xMin="16" yMin="0" xMax="548" yMax="698">
      <component glyphName="A" x="0" y="0" flags="0x0"/>
      <component glyphName="tonos.case" x="14" y="0" flags="0x0"/>
    </TTGlyph>
    <TTGlyph name="Amacron" xMin="16" yMin="0" xMax="548" yMax="847">
      <component glyphName="A" x="0" y="0" flags="0x0"/>
      <component glyphName="macron.case" x="132" y="-2" flags="0x0"/>
    </TTGlyph>
    <TTGlyph name="Aogonek" xMin="16" yMin="-217" xMax="548" yMax="685">
      <contour>
        <pt x="464" y="-29" on="0"/>
        <pt x="409" y="-83" on="0"/>
        <pt x="409" y="-118" on="1"/>
        <pt x="409" y="-142" on="0"/>
        <pt x="441" y="-169" on="0"/>
        <pt x="473" y="-169" on="1"/>
        <pt x="496" y="-169" on="0"/>
        <pt x="529" y="-163" on="1"/>
        <pt x="524" y="-211" on="1"/>
        <pt x="494" y="-217" on="0"/>
        <pt x="466" y="-217" on="1"/>
        <pt x="413" y="-217" on="0"/>
        <pt x="354" y="-166" on="0"/>
        <pt x="354" y="-126" on="1"/>
        <pt x="354" y="-82" on="0"/>
        <pt x="417" y="-16" on="0"/>
        <pt x="482" y="11" on="1"/>
        <pt x="425" y="187" on="1"/>
        <pt x="137" y="187" on="1"/>
        <pt x="77" y="0" on="1"/>
        <pt x="16" y="0" on="1"/>
        <pt x="245" y="685" on="1"/>
        <pt x="320" y="685" on="1"/>
        <pt x="548" y="0" on="1"/>
        <pt x="531" y="0" on="1"/>
      </contour>
      <contour>
        <pt x="282" y="636" on="1"/>
        <pt x="153" y="238" on="1"/>
        <pt x="409" y="238" on="1"/>
      </contour>
    </TTGlyph>
    <TTGlyph name="Aring" xMin="16" yMin="0" xMax="548" yMax="947">
      <component glyphName="A" x="0" y="0" flags="0x0"/>
      <component glyphName="ring.case" x="154" y="0" flags="0x0"/>
    </TTGlyph>
    <TTGlyph name="Atilde" xMin="16" yMin="0" xMax="548" yMax="884">
      <component glyphName="A" x="0" y="0" flags="0x0"/>
      <component glyphName="tilde.case" x="102" y="0" flags="0x0"/>
    </TTGlyph>
    <TTGlyph name="B" xMin="111" yMin="0" xMax="544" yMax="685">
      <contour>
        <pt x="456" y="355" on="0"/>
        <pt x="544" y="272" on="0"/>
        <pt x="544" y="190" on="1"/>
        <pt x="544" y="94" on="0"/>
        <pt x="414" y="0" on="0"/>
        <pt x="298" y="0" on="1"/>
        <pt x="111" y="0" on="1"/>
        <pt x="111" y="685" on="1"/>
        <pt x="264" y="685" on="1"/>
        <pt x="383" y="685" on="0"/>
        <pt x="512" y="599" on="0"/>
        <pt x="512" y="514" on="1"/>
        <pt x="512" y="451" on="0"/>
        <pt x="443" y="373" on="0"/>
        <pt x="386" y="363" on="1"/>
      </contour>
      <contour>
        <pt x="171" y="384" on="1"/>
        <pt x="309" y="384" on="1"/>
        <pt x="373" y="384" on="0"/>
        <pt x="451" y="451" on="0"/>
        <pt x="451" y="510" on="1"/>
        <pt x="451" y="577" on="0"/>
        <pt x="360" y="635" on="0"/>
        <pt x="270" y="635" on="1"/>
        <pt x="171" y="635" on="1"/>
      </contour>
      <contour>
        <pt x="482" y="50" on="0"/>
        <pt x="482" y="190" on="1"/>
        <pt x="482" y="264" on="0"/>
        <pt x="391" y="336" on="0"/>
        <pt x="316" y="336" on="1"/>
        <pt x="171" y="336" on="1"/>
        <pt x="171" y="50" on="1"/>
        <pt x="298" y="50" on="1"/>
      </contour>
    </TTGlyph>
    <TTGlyph name="Beta" xMin="111" yMin="0" xMax="544" yMax="685">
      <component glyphName="B" x="0" y="0" flags="0x0"/>
    </TTGlyph>
    <TTGlyph name="C" xMin="66" yMin="-11" xMax="527" yMax="696">
      <contour>
        <pt x="400" y="696" on="0"/>
        <pt x="479" y="665" on="0"/>
        <pt x="519" y="633" on="1"/>
        <pt x="487" y="593" on="1"/>
        <pt x="452" y="621" on="0"/>
        <pt x="388" y="645" on="0"/>
        <pt x="347" y="645" on="1"/>
        <pt x="250" y="645" on="0"/>
        <pt x="129" y="497" on="0"/>
        <pt x="129" y="343" on="1"/>
        <pt x="129" y="243" on="0"/>
        <pt x="185" y="107" on="0"/>
        <pt x="282" y="42" on="0"/>
        <pt x="344" y="42" on="1"/>
        <pt x="392" y="42" on="0"/>
        <pt x="459" y="71" on="0"/>
        <pt x="495" y="100" on="1"/>
        <pt x="527" y="60" on="1"/>
        <pt x="454" y="-11" on="0"/>
        <pt x="342" y="-11" on="1"/>
        <pt x="262" y="-11" on="0"/>
        <pt x="137" y="71" on="0"/>
        <pt x="66" y="230" on="0"/>
        <pt x="66" y="343" on="1"/>
        <pt x="66" y="456" on="0"/>
        <pt x="140" y="615" on="0"/>
        <pt x="265" y="696" on="0"/>
        <pt x="343" y="696" on="1"/>
      </contour>
    </TTGlyph>
    <TTGlyph name="Cacute" xMin="66" yMin="-11" xMax="527" yMax="888">
      <component glyphName="C" x="0" y="0" flags="0x0"/>
      <component glyphName="acute.case" x="211" y="0" flags="0x0"/>
    </TTGlyph>
    <TTGlyph name="Cacute.loclPLK" xMin="66" yMin="-11" xMax="527" yMax="908">
      <component glyphName="C" x="0" y="0" flags="0x0"/>
      <component glyphName="acute.case.loclPLK" x="211" y="0" flags="0x0"/>
    </TTGlyph>
    <TTGlyph name="Ccaron" xMin="66" yMin="-11" xMax="527" yMax="888">
      <component glyphName="C" x="0" y="0" flags="0x0"/>
      <component glyphName="caron.case" x="169" y="0" flags="0x0"/>
    </TTGlyph>
    <TTGlyph name="Ccedilla" xMin="66" yMin="-227" xMax="527" yMax="696">
      <contour>
        <pt x="406" y="-68" on="0"/>
        <pt x="451" y="-108" on="0"/>
        <pt x="451" y="-140" on="1"/>
        <pt x="451" y="-180" on="0"/>
        <pt x="391" y="-227" on="0"/>
        <pt x="346" y="-227" on="1"/>
        <pt x="298" y="-227" on="0"/>
        <pt x="266" y="-206" on="1"/>
        <pt x="284" y="-170" on="1"/>
        <pt x="311" y="-185" on="0"/>
        <pt x="344" y="-185" on="1"/>
        <pt x="369" y="-185" on="0"/>
        <pt x="399" y="-162" on="0"/>
        <pt x="399" y="-140" on="1"/>
        <pt x="399" y="-117" on="0"/>
        <pt x="357" y="-96" on="0"/>
        <pt x="310" y="-95" on="1"/>
        <pt x="318" y="-10" on="1"/>
        <pt x="244" y="-4" on="0"/>
        <pt x="130" y="81" on="0"/>
        <pt x="66" y="236" on="0"/>
        <pt x="66" y="343" on="1"/>
        <pt x="66" y="456" on="0"/>
        <pt x="140" y="615" on="0"/>
        <pt x="265" y="696" on="0"/>
        <pt x="343" y="696" on="1"/>
        <pt x="400" y="696" on="0"/>
        <pt x="479" y="665" on="0"/>
        <pt x="519" y="633" on="1"/>
        <pt x="487" y="593" on="1"/>
        <pt x="452" y="621" on="0"/>
        <pt x="388" y="645" on="0"/>
        <pt x="347" y="645" on="1"/>
        <pt x="250" y="645" on="0"/>
        <pt x="129" y="497" on="0"/>
        <pt x="129" y="343" on="1"/>
        <pt x="129" y="243" on="0"/>
        <pt x="185" y="107" on="0"/>
        <pt x="282" y="42" on="0"/>
        <pt x="344" y="42" on="1"/>
        <pt x="392" y="42" on="0"/>
        <pt x="459" y="71" on="0"/>
        <pt x="495" y="100" on="1"/>
        <pt x="527" y="60" on="1"/>
        <pt x="457" y="-6" on="0"/>
        <pt x="359" y="-10" on="1"/>
        <pt x="359" y="-64" on="1"/>
      </contour>
    </TTGlyph>
    <TTGlyph name="Ccircumflex" xMin="66" yMin="-11" xMax="527" yMax="894">
      <component glyphName="C" x="0" y="0" flags="0x0"/>
      <component glyphName="circumflex.case" x="166" y="0" flags="0x0"/>
    </TTGlyph>
    <TTGlyph name="Cdotaccent" xMin="66" yMin="-11" xMax="527" yMax="879">
      <component glyphName="C" x="0" y="0" flags="0x0"/>
      <component glyphName="dotaccent.case" x="270" y="0" flags="0x0"/>
    </TTGlyph>
    <TTGlyph name="Chi" xMin="10" yMin="0" xMax="504" yMax="685">
      <component glyphName="X" x="0" y="0" flags="0x0"/>
    </TTGlyph>
    <TTGlyph name="D" xMin="111" yMin="0" xMax="566" yMax="685">
      <contour>
        <pt x="389" y="685" on="0"/>
        <pt x="566" y="541" on="0"/>
        <pt x="566" y="348" on="1"/>
        <pt x="566" y="155" on="0"/>
        <pt x="387" y="0" on="0"/>
        <pt x="258" y="0" on="1"/>
        <pt x="111" y="0" on="1"/>
        <pt x="111" y="685" on="1"/>
        <pt x="247" y="685" on="1"/>
      </contour>
      <contour>
        <pt x="171" y="50" on="1"/>
        <pt x="262" y="50" on="1"/>
        <pt x="503" y="50" on="0"/>
        <pt x="503" y="348" on="1"/>
        <pt x="503" y="466" on="0"/>
        <pt x="433" y="592" on="0"/>
        <pt x="326" y="635" on="0"/>
        <pt x="255" y="635" on="1"/>
        <pt x="171" y="635" on="1"/>
      </contour>
    </TTGlyph>
    <TTGlyph name="Dcaron" xMin="111" yMin="0" xMax="566" yMax="888">
      <component glyphName="D" x="0" y="0" flags="0x0"/>
      <component glyphName="caron.case" x="124" y="0" flags="0x0"/>
    </TTGlyph>
    <TTGlyph name="Dcroat" xMin="23" yMin="0" xMax="569" yMax="685">
      <component glyphName="Eth" x="0" y="0" flags="0x0"/>
    </TTGlyph>
    <TTGlyph name="Delta" xMin="16" yMin="0" xMax="558" yMax="685">
      <contour>
        <pt x="16" y="0" on="1"/>
        <pt x="250" y="685" on="1"/>
        <pt x="326" y="685" on="1"/>
        <pt x="558" y="0" on="1"/>
      </contour>
      <contour>
        <pt x="480" y="51" on="1"/>
        <pt x="287" y="635" on="1"/>
        <pt x="93" y="51" on="1"/>
      </contour>
    </TTGlyph>
    <TTGlyph name="E" xMin="111" yMin="0" xMax="466" yMax="685">
      <contour>
        <pt x="171" y="635" on="1"/>
        <pt x="171" y="380" on="1"/>
        <pt x="414" y="380" on="1"/>
        <pt x="414" y="330" on="1"/>
        <pt x="171" y="330" on="1"/>
        <pt x="171" y="50" on="1"/>
        <pt x="466" y="50" on="1"/>
        <pt x="466" y="0" on="1"/>
        <pt x="111" y="0" on="1"/>
        <pt x="111" y="685" on="1"/>
        <pt x="459" y="685" on="1"/>
        <pt x="452" y="635" on="1"/>
      </contour>
    </TTGlyph>
    <TTGlyph name="Eacute" xMin="111" yMin="0" xMax="466" yMax="888">
      <component glyphName="E" x="0" y="0" flags="0x0"/>
      <component glyphName="acute.case" x="155" y="0" flags="0x0"/>
    </TTGlyph>
    <TTGlyph name="Ebreve" xMin="111" yMin="0" xMax="466" yMax="874">
      <component glyphName="E" x="0" y="0" flags="0x0"/>
      <component glyphName="breve.case" x="128" y="0" flags="0x0"/>
    </TTGlyph>
    <TTGlyph name="Ecaron" xMin="111" yMin="0" xMax="466" yMax="888">
      <component glyphName="E" x="0" y="0" flags="0x0"/>
      <component glyphName="caron.case" x="113" y="0" flags="0x0"/>
    </TTGlyph>
    <TTGlyph name="Ecircumflex" xMin="111" yMin="0" xMax="466" yMax="894">
      <component glyphName="E" x="0" y="0" flags="0x0"/>
      <component glyphName="circumflex.case" x="111" y="0" flags="0x0"/>
    </TTGlyph>
    <TTGlyph name="Edieresis" xMin="111" yMin="0" xMax="466" yMax="868">
      <component glyphName="E" x="0" y="0" flags="0x0"/>
      <component glyphName="dieresis.case" x="124" y="0" flags="0x0"/>
    </TTGlyph>
    <TTGlyph name="Edotaccent" xMin="111" yMin="0" xMax="466" yMax="879">
      <component glyphName="E" x="0" y="0" flags="0x0"/>
      <component glyphName="dotaccent.case" x="215" y="0" flags="0x0"/>
    </TTGlyph>
    <TTGlyph name="Egrave" xMin="111" yMin="0" xMax="466" yMax="888">
      <component glyphName="E" x="0" y="0" flags="0x0"/>
      <component glyphName="grave.case" x="144" y="0" flags="0x0"/>
    </TTGlyph>
    <TTGlyph name="Emacron" xMin="111" yMin="0" xMax="466" yMax="847">
      <component glyphName="E" x="0" y="0" flags="0x0"/>
      <component glyphName="macron.case" x="138" y="-2" flags="0x0"/>
    </TTGlyph>
    <TTGlyph name="Eng" xMin="111" yMin="-203" xMax="562" yMax="685">
      <contour>
        <pt x="562" y="-49" on="0"/>
        <pt x="532" y="-130" on="0"/>
        <pt x="474" y="-179" on="0"/>
        <pt x="421" y="-203" on="1"/>
        <pt x="405" y="-164" on="1"/>
        <pt x="444" y="-144" on="0"/>
        <pt x="486" y="-109" on="0"/>
        <pt x="509" y="-50" on="0"/>
        <pt x="510" y="0" on="1"/>
        <pt x="481" y="0" on="1"/>
        <pt x="162" y="618" on="1"/>
        <pt x="160" y="618" on="1"/>
        <pt x="168" y="493" on="0"/>
        <pt x="168" y="383" on="1"/>
        <pt x="168" y="0" on="1"/>
        <pt x="111" y="0" on="1"/>
        <pt x="111" y="685" on="1"/>
        <pt x="190" y="685" on="1"/>
        <pt x="511" y="66" on="1"/>
        <pt x="513" y="66" on="1"/>
        <pt x="505" y="182" on="0"/>
        <pt x="505" y="269" on="1"/>
        <pt x="505" y="685" on="1"/>
        <pt x="562" y="685" on="1"/>
        <pt x="562" y="19" on="1"/>
      </contour>
    </TTGlyph>
    <TTGlyph name="Eogonek" xMin="111" yMin="-218" xMax="466" yMax="685">
      <contour>
        <pt x="466" y="0" on="1"/>
        <pt x="434" y="0" on="1"/>
        <pt x="367" y="-30" on="0"/>
        <pt x="312" y="-83" on="0"/>
        <pt x="312" y="-118" on="1"/>
        <pt x="312" y="-143" on="0"/>
        <pt x="344" y="-170" on="0"/>
        <pt x="376" y="-170" on="1"/>
        <pt x="402" y="-170" on="0"/>
        <pt x="433" y="-163" on="1"/>
        <pt x="427" y="-212" on="1"/>
        <pt x="397" y="-218" on="0"/>
        <pt x="369" y="-218" on="1"/>
        <pt x="316" y="-218" on="0"/>
        <pt x="258" y="-167" on="0"/>
        <pt x="258" y="-126" on="1"/>
        <pt x="258" y="-87" on="0"/>
        <pt x="309" y="-25" on="0"/>
        <pt x="361" y="0" on="1"/>
        <pt x="111" y="0" on="1"/>
        <pt x="111" y="685" on="1"/>
        <pt x="459" y="685" on="1"/>
        <pt x="452" y="635" on="1"/>
        <pt x="171" y="635" on="1"/>
        <pt x="171" y="380" on="1"/>
        <pt x="414" y="380" on="1"/>
        <pt x="414" y="330" on="1"/>
        <pt x="171" y="330" on="1"/>
        <pt x="171" y="50" on="1"/>
        <pt x="466" y="50" on="1"/>
      </contour>
    </TTGlyph>
    <TTGlyph name="Epsilon" xMin="111" yMin="0" xMax="466" yMax="685">
      <contour>
        <pt x="171" y="635" on="1"/>
        <pt x="171" y="380" on="1"/>
        <pt x="414" y="380" on="1"/>
        <pt x="414" y="330" on="1"/>
        <pt x="171" y="330" on="1"/>
        <pt x="171" y="50" on="1"/>
        <pt x="466" y="50" on="1"/>
        <pt x="466" y="0" on="1"/>
        <pt x="111" y="0" on="1"/>
        <pt x="111" y="685" on="1"/>
        <pt x="459" y="685" on="1"/>
        <pt x="452" y="635" on="1"/>
      </contour>
    </TTGlyph>
    <TTGlyph name="Epsilontonos" xMin="-23" yMin="0" xMax="466" yMax="698">
      <component glyphName="E" x="0" y="0" flags="0x0"/>
      <component glyphName="tonos.case" x="-52" y="0" flags="0x0"/>
    </TTGlyph>
    <TTGlyph name="Eta" xMin="111" yMin="0" xMax="559" yMax="685">
      <contour>
        <pt x="171" y="335" on="1"/>
        <pt x="171" y="0" on="1"/>
        <pt x="111" y="0" on="1"/>
        <pt x="111" y="685" on="1"/>
        <pt x="171" y="685" on="1"/>
        <pt x="171" y="386" on="1"/>
        <pt x="499" y="386" on="1"/>
        <pt x="499" y="685" on="1"/>
        <pt x="559" y="685" on="1"/>
        <pt x="559" y="0" on="1"/>
        <pt x="499" y="0" on="1"/>
        <pt x="499" y="335" on="1"/>
      </contour>
    </TTGlyph>
    <TTGlyph name="Etatonos" xMin="-23" yMin="0" xMax="559" yMax="698">
      <component glyphName="H" x="0" y="0" flags="0x0"/>
      <component glyphName="tonos.case" x="-52" y="0" flags="0x0"/>
    </TTGlyph>
    <TTGlyph name="Eth" xMin="23" yMin="0" xMax="569" yMax="685">
      <contour>
        <pt x="393" y="685" on="0"/>
        <pt x="569" y="541" on="0"/>
        <pt x="569" y="348" on="1"/>
        <pt x="569" y="155" on="0"/>
        <pt x="390" y="0" on="0"/>
        <pt x="261" y="0" on="1"/>
        <pt x="114" y="0" on="1"/>
        <pt x="114" y="330" on="1"/>
        <pt x="23" y="330" on="1"/>
        <pt x="23" y="376" on="1"/>
        <pt x="114" y="376" on="1"/>
        <pt x="114" y="685" on="1"/>
        <pt x="250" y="685" on="1"/>
      </contour>
      <contour>
        <pt x="506" y="50" on="0"/>
        <pt x="506" y="348" on="1"/>
        <pt x="506" y="466" on="0"/>
        <pt x="436" y="592" on="0"/>
        <pt x="329" y="635" on="0"/>
        <pt x="258" y="635" on="1"/>
        <pt x="174" y="635" on="1"/>
        <pt x="174" y="376" on="1"/>
        <pt x="349" y="376" on="1"/>
        <pt x="349" y="330" on="1"/>
        <pt x="174" y="330" on="1"/>
        <pt x="174" y="50" on="1"/>
        <pt x="265" y="50" on="1"/>
      </contour>
    </TTGlyph>
    <TTGlyph name="Euro" xMin="36" yMin="-11" xMax="536" yMax="676">
      <contour>
        <pt x="298" y="626" on="0"/>
        <pt x="201" y="528" on="0"/>
        <pt x="182" y="431" on="1"/>
        <pt x="454" y="431" on="1"/>
        <pt x="443" y="388" on="1"/>
        <pt x="178" y="388" on="1"/>
        <pt x="178" y="285" on="1"/>
        <pt x="423" y="285" on="1"/>
        <pt x="413" y="242" on="1"/>
        <pt x="180" y="242" on="1"/>
        <pt x="206" y="40" on="0"/>
        <pt x="370" y="40" on="1"/>
        <pt x="410" y="40" on="0"/>
        <pt x="472" y="61" on="0"/>
        <pt x="509" y="82" on="1"/>
        <pt x="509" y="28" on="1"/>
        <pt x="438" y="-11" on="0"/>
        <pt x="362" y="-11" on="1"/>
        <pt x="261" y="-11" on="0"/>
        <pt x="135" y="118" on="0"/>
        <pt x="118" y="242" on="1"/>
        <pt x="36" y="242" on="1"/>
        <pt x="47" y="285" on="1"/>
        <pt x="117" y="285" on="1"/>
        <pt x="117" y="388" on="1"/>
        <pt x="36" y="388" on="1"/>
        <pt x="47" y="431" on="1"/>
        <pt x="120" y="431" on="1"/>
        <pt x="142" y="547" on="0"/>
        <pt x="273" y="676" on="0"/>
        <pt x="366" y="676" on="1"/>
        <pt x="414" y="676" on="0"/>
        <pt x="495" y="650" on="0"/>
        <pt x="536" y="622" on="1"/>
        <pt x="511" y="580" on="1"/>
        <pt x="472" y="605" on="0"/>
        <pt x="409" y="626" on="0"/>
        <pt x="368" y="626" on="1"/>
      </contour>
    </TTGlyph>
    <TTGlyph name="Euro.osf" xMin="36" yMin="-11" xMax="536" yMax="676">
      <component glyphName="Euro" x="0" y="0" flags="0x0"/>
    </TTGlyph>
    <TTGlyph name="Euro.tf" xMin="36" yMin="-11" xMax="536" yMax="696">
      <contour>
        <pt x="298" y="646" on="0"/>
        <pt x="201" y="544" on="0"/>
        <pt x="182" y="441" on="1"/>
        <pt x="454" y="441" on="1"/>
        <pt x="443" y="398" on="1"/>
        <pt x="178" y="398" on="1"/>
        <pt x="178" y="295" on="1"/>
        <pt x="423" y="295" on="1"/>
        <pt x="413" y="252" on="1"/>
        <pt x="180" y="252" on="1"/>
        <pt x="193" y="141" on="0"/>
        <pt x="289" y="40" on="0"/>
        <pt x="370" y="40" on="1"/>
        <pt x="410" y="40" on="0"/>
        <pt x="472" y="61" on="0"/>
        <pt x="509" y="82" on="1"/>
        <pt x="509" y="28" on="1"/>
        <pt x="438" y="-11" on="0"/>
        <pt x="362" y="-11" on="1"/>
        <pt x="261" y="-11" on="0"/>
        <pt x="135" y="121" on="0"/>
        <pt x="118" y="252" on="1"/>
        <pt x="36" y="252" on="1"/>
        <pt x="47" y="295" on="1"/>
        <pt x="117" y="295" on="1"/>
        <pt x="117" y="398" on="1"/>
        <pt x="36" y="398" on="1"/>
        <pt x="47" y="441" on="1"/>
        <pt x="120" y="441" on="1"/>
        <pt x="142" y="564" on="0"/>
        <pt x="273" y="696" on="0"/>
        <pt x="366" y="696" on="1"/>
        <pt x="414" y="696" on="0"/>
        <pt x="495" y="670" on="0"/>
        <pt x="536" y="642" on="1"/>
        <pt x="511" y="600" on="1"/>
        <pt x="471" y="625" on="0"/>
        <pt x="408" y="646" on="0"/>
        <pt x="368" y="646" on="1"/>
      </contour>
    </TTGlyph>
    <TTGlyph name="Euro.tosf" xMin="52" yMin="-11" xMax="542" yMax="676">
      <contour>
        <pt x="310" y="626" on="0"/>
        <pt x="217" y="528" on="0"/>
        <pt x="198" y="431" on="1"/>
        <pt x="464" y="431" on="1"/>
        <pt x="453" y="388" on="1"/>
        <pt x="194" y="388" on="1"/>
        <pt x="194" y="285" on="1"/>
        <pt x="433" y="285" on="1"/>
        <pt x="423" y="242" on="1"/>
        <pt x="196" y="242" on="1"/>
        <pt x="209" y="137" on="0"/>
        <pt x="301" y="40" on="0"/>
        <pt x="381" y="40" on="1"/>
        <pt x="420" y="40" on="0"/>
        <pt x="478" y="61" on="0"/>
        <pt x="515" y="82" on="1"/>
        <pt x="515" y="28" on="1"/>
        <pt x="481" y="9" on="0"/>
        <pt x="414" y="-11" on="0"/>
        <pt x="373" y="-11" on="1"/>
        <pt x="273" y="-11" on="0"/>
        <pt x="151" y="117" on="0"/>
        <pt x="134" y="242" on="1"/>
        <pt x="52" y="242" on="1"/>
        <pt x="62" y="285" on="1"/>
        <pt x="132" y="285" on="1"/>
        <pt x="132" y="388" on="1"/>
        <pt x="52" y="388" on="1"/>
        <pt x="62" y="431" on="1"/>
        <pt x="136" y="431" on="1"/>
        <pt x="158" y="548" on="0"/>
        <pt x="286" y="676" on="0"/>
        <pt x="377" y="676" on="1"/>
        <pt x="424" y="676" on="0"/>
        <pt x="502" y="650" on="0"/>
        <pt x="542" y="622" on="1"/>
        <pt x="518" y="580" on="1"/>
        <pt x="480" y="605" on="0"/>
        <pt x="418" y="626" on="0"/>
        <pt x="378" y="626" on="1"/>
      </contour>
    </TTGlyph>
    <TTGlyph name="F" xMin="111" yMin="0" xMax="453" yMax="685">
      <contour>
        <pt x="171" y="635" on="1"/>
        <pt x="171" y="368" on="1"/>
        <pt x="408" y="368" on="1"/>
        <pt x="408" y="318" on="1"/>
        <pt x="171" y="318" on="1"/>
        <pt x="171" y="0" on="1"/>
        <pt x="111" y="0" on="1"/>
        <pt x="111" y="685" on="1"/>
        <pt x="453" y="685" on="1"/>
        <pt x="446" y="635" on="1"/>
      </contour>
    </TTGlyph>
    <TTGlyph name="G" xMin="66" yMin="-11" xMax="552" yMax="696">
      <contour>
        <pt x="409" y="696" on="0"/>
        <pt x="496" y="663" on="0"/>
        <pt x="540" y="628" on="1"/>
        <pt x="504" y="591" on="1"/>
        <pt x="467" y="619" on="0"/>
        <pt x="397" y="645" on="0"/>
        <pt x="351" y="645" on="1"/>
        <pt x="293" y="645" on="0"/>
        <pt x="192" y="583" on="0"/>
        <pt x="129" y="448" on="0"/>
        <pt x="129" y="345" on="1"/>
        <pt x="129" y="192" on="0"/>
        <pt x="245" y="40" on="0"/>
        <pt x="349" y="40" on="1"/>
        <pt x="429" y="40" on="0"/>
        <pt x="493" y="76" on="1"/>
        <pt x="493" y="319" on="1"/>
        <pt x="359" y="319" on="1"/>
        <pt x="352" y="369" on="1"/>
        <pt x="552" y="369" on="1"/>
        <pt x="552" y="45" on="1"/>
        <pt x="456" y="-11" on="0"/>
        <pt x="346" y="-11" on="1"/>
        <pt x="261" y="-11" on="0"/>
        <pt x="135" y="69" on="0"/>
        <pt x="66" y="229" on="0"/>
        <pt x="66" y="345" on="1"/>
        <pt x="66" y="457" on="0"/>
        <pt x="146" y="616" on="0"/>
        <pt x="276" y="696" on="0"/>
        <pt x="350" y="696" on="1"/>
      </contour>
    </TTGlyph>
    <TTGlyph name="Gamma" xMin="111" yMin="0" xMax="498" yMax="685">
      <component glyphName="uni0413" x="0" y="0" flags="0x0"/>
    </TTGlyph>
    <TTGlyph name="Gbreve" xMin="66" yMin="-11" xMax="552" yMax="874">
      <component glyphName="G" x="0" y="0" flags="0x0"/>
      <component glyphName="breve.case" x="191" y="0" flags="0x0"/>
    </TTGlyph>
    <TTGlyph name="Gcircumflex" xMin="66" yMin="-11" xMax="552" yMax="894">
      <component glyphName="G" x="0" y="0" flags="0x0"/>
      <component glyphName="circumflex.case" x="174" y="0" flags="0x0"/>
    </TTGlyph>
    <TTGlyph name="Gcommaaccent" xMin="66" yMin="-279" xMax="552" yMax="696">
      <component glyphName="G" x="0" y="0" flags="0x0"/>
      <component glyphName="uni0326.case" x="259" y="0" flags="0x0"/>
    </TTGlyph>
    <TTGlyph name="Gdotaccent" xMin="66" yMin="-11" xMax="552" yMax="879">
      <component glyphName="G" x="0" y="0" flags="0x0"/>
      <component glyphName="dotaccent.case" x="278" y="0" flags="0x0"/>
    </TTGlyph>
    <TTGlyph name="H" xMin="111" yMin="0" xMax="559" yMax="685">
      <contour>
        <pt x="171" y="335" on="1"/>
        <pt x="171" y="0" on="1"/>
        <pt x="111" y="0" on="1"/>
        <pt x="111" y="685" on="1"/>
        <pt x="171" y="685" on="1"/>
        <pt x="171" y="386" on="1"/>
        <pt x="499" y="386" on="1"/>
        <pt x="499" y="685" on="1"/>
        <pt x="559" y="685" on="1"/>
        <pt x="559" y="0" on="1"/>
        <pt x="499" y="0" on="1"/>
        <pt x="499" y="335" on="1"/>
      </contour>
    </TTGlyph>
    <TTGlyph name="Hbar" xMin="46" yMin="0" xMax="622" yMax="685">
      <contour>
        <pt x="563" y="513" on="1"/>
        <pt x="563" y="0" on="1"/>
        <pt x="504" y="0" on="1"/>
        <pt x="504" y="335" on="1"/>
        <pt x="175" y="335" on="1"/>
        <pt x="175" y="0" on="1"/>
        <pt x="115" y="0" on="1"/>
        <pt x="115" y="513" on="1"/>
        <pt x="46" y="513" on="1"/>
        <pt x="46" y="558" on="1"/>
        <pt x="115" y="558" on="1"/>
        <pt x="115" y="685" on="1"/>
        <pt x="175" y="685" on="1"/>
        <pt x="175" y="558" on="1"/>
        <pt x="504" y="558" on="1"/>
        <pt x="504" y="685" on="1"/>
        <pt x="563" y="685" on="1"/>
        <pt x="563" y="558" on="1"/>
        <pt x="622" y="558" on="1"/>
        <pt x="622" y="513" on="1"/>
      </contour>
      <contour>
        <pt x="175" y="513" on="1"/>
        <pt x="175" y="386" on="1"/>
        <pt x="503" y="386" on="1"/>
        <pt x="503" y="513" on="1"/>
      </contour>
    </TTGlyph>
    <TTGlyph name="Hcircumflex" xMin="111" yMin="0" xMax="559" yMax="894">
      <component glyphName="H" x="0" y="0" flags="0x0"/>
      <component glyphName="circumflex.case" x="156" y="0" flags="0x0"/>
    </TTGlyph>
    <TTGlyph name="I" xMin="111" yMin="0" xMax="171" yMax="685">
      <contour>
        <pt x="111" y="0" on="1"/>
        <pt x="111" y="685" on="1"/>
        <pt x="171" y="685" on="1"/>
        <pt x="171" y="0" on="1"/>
      </contour>
    </TTGlyph>
    <TTGlyph name="IJ" xMin="111" yMin="-119" xMax="468" yMax="685">
      <component glyphName="I" x="0" y="0" flags="0x0"/>
      <component glyphName="J" x="282" y="0" flags="0x0"/>
    </TTGlyph>
    <TTGlyph name="Iacute" xMin="38" yMin="0" xMax="252" yMax="888">
      <component glyphName="I" x="0" y="0" flags="0x0"/>
      <component glyphName="acute.case" x="7" y="0" flags="0x0"/>
    </TTGlyph>
    <TTGlyph name="Ibreve" xMin="11" yMin="0" xMax="271" yMax="874">
      <component glyphName="I" x="0" y="0" flags="0x0"/>
      <component glyphName="breve.case" x="-19" y="0" flags="0x0"/>
    </TTGlyph>
    <TTGlyph name="Icircumflex" xMin="-7" yMin="0" xMax="288" yMax="894">
      <component glyphName="I" x="0" y="0" flags="0x0"/>
      <component glyphName="circumflex.case" x="-37" y="0" flags="0x0"/>
    </TTGlyph>
    <TTGlyph name="Idieresis" xMin="6" yMin="0" xMax="275" yMax="868">
      <component glyphName="I" x="0" y="0" flags="0x0"/>
      <component glyphName="dieresis.case" x="-24" y="0" flags="0x0"/>
    </TTGlyph>
    <TTGlyph name="Idotaccent" xMin="98" yMin="0" xMax="185" yMax="879">
      <component glyphName="I" x="0" y="0" flags="0x0"/>
      <component glyphName="dotaccent.case" x="67" y="0" flags="0x0"/>
    </TTGlyph>
    <TTGlyph name="Igrave" xMin="26" yMin="0" xMax="240" yMax="888">
      <component glyphName="I" x="0" y="0" flags="0x0"/>
      <component glyphName="grave.case" x="-4" y="0" flags="0x0"/>
    </TTGlyph>
    <TTGlyph name="Imacron" xMin="21" yMin="0" xMax="261" yMax="847">
      <component glyphName="I" x="0" y="0" flags="0x0"/>
      <component glyphName="macron.case" x="-9" y="-2" flags="0x0"/>
    </TTGlyph>
    <TTGlyph name="Iogonek" xMin="-5" yMin="-218" xMax="172" yMax="685">
      <contour>
        <pt x="50" y="-143" on="0"/>
        <pt x="82" y="-170" on="0"/>
        <pt x="114" y="-170" on="1"/>
        <pt x="139" y="-170" on="0"/>
        <pt x="170" y="-163" on="1"/>
        <pt x="165" y="-212" on="1"/>
        <pt x="135" y="-218" on="0"/>
        <pt x="107" y="-218" on="1"/>
        <pt x="54" y="-218" on="0"/>
        <pt x="-5" y="-166" on="0"/>
        <pt x="-5" y="-126" on="1"/>
        <pt x="-5" y="-85" on="0"/>
        <pt x="52" y="-21" on="0"/>
        <pt x="111" y="6" on="1"/>
        <pt x="111" y="685" on="1"/>
        <pt x="171" y="685" on="1"/>
        <pt x="172" y="0" on="1"/>
        <pt x="105" y="-30" on="0"/>
        <pt x="50" y="-83" on="0"/>
        <pt x="50" y="-118" on="1"/>
      </contour>
    </TTGlyph>
    <TTGlyph name="Iota" xMin="111" yMin="0" xMax="171" yMax="685">
      <contour>
        <pt x="111" y="0" on="1"/>
        <pt x="111" y="685" on="1"/>
        <pt x="171" y="685" on="1"/>
        <pt x="171" y="0" on="1"/>
      </contour>
    </TTGlyph>
    <TTGlyph name="Iotadieresis" xMin="6" yMin="0" xMax="275" yMax="868">
      <component glyphName="I" x="0" y="0" flags="0x0"/>
      <component glyphName="dieresis.case" x="-24" y="0" flags="0x0"/>
    </TTGlyph>
    <TTGlyph name="Iotatonos" xMin="-23" yMin="0" xMax="171" yMax="698">
      <component glyphName="I" x="0" y="0" flags="0x0"/>
      <component glyphName="tonos.case" x="-52" y="0" flags="0x0"/>
    </TTGlyph>
    <TTGlyph name="Itilde" xMin="-10" yMin="0" xMax="291" yMax="884">
      <component glyphName="I" x="0" y="0" flags="0x0"/>
      <component glyphName="tilde.case" x="-39" y="0" flags="0x0"/>
    </TTGlyph>
    <TTGlyph name="J" xMin="13" yMin="-119" xMax="185" yMax="685">
      <contour>
        <pt x="185" y="31" on="0"/>
        <pt x="154" y="-46" on="0"/>
        <pt x="88" y="-96" on="0"/>
        <pt x="29" y="-119" on="1"/>
        <pt x="13" y="-75" on="1"/>
        <pt x="59" y="-55" on="0"/>
        <pt x="107" y="-12" on="0"/>
        <pt x="125" y="47" on="0"/>
        <pt x="125" y="95" on="1"/>
        <pt x="125" y="685" on="1"/>
        <pt x="185" y="685" on="1"/>
        <pt x="185" y="92" on="1"/>
      </contour>
    </TTGlyph>
    <TTGlyph name="Jcircumflex" xMin="6" yMin="-119" xMax="302" yMax="894">
      <component glyphName="J" x="0" y="0" flags="0x0"/>
      <component glyphName="circumflex.case" x="-23" y="0" flags="0x0"/>
    </TTGlyph>
    <TTGlyph name="K" xMin="111" yMin="0" xMax="547" yMax="685">
      <contour>
        <pt x="111" y="0" on="1"/>
        <pt x="111" y="685" on="1"/>
        <pt x="171" y="685" on="1"/>
        <pt x="171" y="0" on="1"/>
      </contour>
      <contour>
        <pt x="547" y="0" on="1"/>
        <pt x="474" y="0" on="1"/>
        <pt x="175" y="367" on="1"/>
        <pt x="461" y="685" on="1"/>
        <pt x="530" y="685" on="1"/>
        <pt x="246" y="370" on="1"/>
      </contour>
    </TTGlyph>
    <TTGlyph name="Kappa" xMin="111" yMin="0" xMax="547" yMax="685">
      <component glyphName="K" x="0" y="0" flags="0x0"/>
    </TTGlyph>
    <TTGlyph name="Kcommaaccent" xMin="111" yMin="-279" xMax="547" yMax="685">
      <component glyphName="K" x="0" y="0" flags="0x0"/>
      <component glyphName="uni0326.case" x="226" y="0" flags="0x0"/>
    </TTGlyph>
    <TTGlyph name="L" xMin="111" yMin="0" xMax="457" yMax="685">
      <contour>
        <pt x="457" y="54" on="1"/>
        <pt x="449" y="0" on="1"/>
        <pt x="111" y="0" on="1"/>
        <pt x="111" y="685" on="1"/>
        <pt x="171" y="685" on="1"/>
        <pt x="171" y="54" on="1"/>
      </contour>
    </TTGlyph>
    <TTGlyph name="Lacute" xMin="38" yMin="0" xMax="457" yMax="888">
      <component glyphName="L" x="0" y="0" flags="0x0"/>
      <component glyphName="acute.case" x="8" y="0" flags="0x0"/>
    </TTGlyph>
    <TTGlyph name="Lambda" xMin="16" yMin="0" xMax="548" yMax="685">
      <contour>
        <pt x="485" y="0" on="1"/>
        <pt x="282" y="636" on="1"/>
        <pt x="77" y="0" on="1"/>
        <pt x="16" y="0" on="1"/>
        <pt x="245" y="685" on="1"/>
        <pt x="320" y="685" on="1"/>
        <pt x="548" y="0" on="1"/>
      </contour>
    </TTGlyph>
    <TTGlyph name="Lcaron" xMin="111" yMin="0" xMax="457" yMax="691">
      <component glyphName="L" x="0" y="0" flags="0x0"/>
      <component glyphName="caron.alt" x="178" y="0" flags="0x0"/>
    </TTGlyph>
    <TTGlyph name="Lcommaaccent" xMin="111" yMin="-279" xMax="457" yMax="685">
      <component glyphName="L" x="0" y="0" flags="0x0"/>
      <component glyphName="uni0326.case" x="202" y="0" flags="0x0"/>
    </TTGlyph>
    <TTGlyph name="Ldot" xMin="111" yMin="0" xMax="457" yMax="685">
      <component glyphName="L" x="0" y="0" flags="0x0"/>
      <component glyphName="dotaccent" x="296" y="-342" flags="0x0"/>
    </TTGlyph>
    <TTGlyph name="Lslash" xMin="33" yMin="0" xMax="467" yMax="685">
      <contour>
        <pt x="459" y="0" on="1"/>
        <pt x="121" y="0" on="1"/>
        <pt x="121" y="281" on="1"/>
        <pt x="57" y="241" on="1"/>
        <pt x="33" y="280" on="1"/>
        <pt x="121" y="335" on="1"/>
        <pt x="121" y="685" on="1"/>
        <pt x="181" y="685" on="1"/>
        <pt x="181" y="373" on="1"/>
        <pt x="362" y="485" on="1"/>
        <pt x="387" y="446" on="1"/>
        <pt x="182" y="319" on="1"/>
        <pt x="182" y="54" on="1"/>
        <pt x="467" y="54" on="1"/>
      </contour>
    </TTGlyph>
    <TTGlyph name="M" xMin="69" yMin="0" xMax="701" yMax="685">
      <contour>
        <pt x="643" y="0" on="1"/>
        <pt x="612" y="328" on="1"/>
        <pt x="593" y="520" on="0"/>
        <pt x="586" y="627" on="1"/>
        <pt x="414" y="81" on="1"/>
        <pt x="357" y="81" on="1"/>
        <pt x="179" y="627" on="1"/>
        <pt x="176" y="568" on="0"/>
        <pt x="156" y="330" on="1"/>
        <pt x="126" y="0" on="1"/>
        <pt x="69" y="0" on="1"/>
        <pt x="134" y="685" on="1"/>
        <pt x="217" y="685" on="1"/>
        <pt x="387" y="151" on="1"/>
        <pt x="551" y="685" on="1"/>
        <pt x="635" y="685" on="1"/>
        <pt x="701" y="0" on="1"/>
      </contour>
    </TTGlyph>
    <TTGlyph name="Mu" xMin="69" yMin="0" xMax="701" yMax="685">
      <component glyphName="M" x="0" y="0" flags="0x0"/>
    </TTGlyph>
    <TTGlyph name="N" xMin="111" yMin="0" xMax="562" yMax="685">
      <contour>
        <pt x="483" y="0" on="1"/>
        <pt x="160" y="619" on="1"/>
        <pt x="168" y="494" on="0"/>
        <pt x="168" y="383" on="1"/>
        <pt x="168" y="0" on="1"/>
        <pt x="111" y="0" on="1"/>
        <pt x="111" y="685" on="1"/>
        <pt x="188" y="685" on="1"/>
        <pt x="513" y="66" on="1"/>
        <pt x="505" y="182" on="0"/>
        <pt x="505" y="269" on="1"/>
        <pt x="505" y="685" on="1"/>
        <pt x="562" y="685" on="1"/>
        <pt x="562" y="0" on="1"/>
      </contour>
    </TTGlyph>
    <TTGlyph name="Nacute" xMin="111" yMin="0" xMax="562" yMax="888">
      <component glyphName="N" x="0" y="0" flags="0x0"/>
      <component glyphName="acute.case" x="212" y="0" flags="0x0"/>
    </TTGlyph>
    <TTGlyph name="Nacute.loclPLK" xMin="111" yMin="0" xMax="562" yMax="908">
      <component glyphName="N" x="0" y="0" flags="0x0"/>
      <component glyphName="acute.case.loclPLK" x="212" y="0" flags="0x0"/>
    </TTGlyph>
    <TTGlyph name="Ncaron" xMin="111" yMin="0" xMax="562" yMax="888">
      <component glyphName="N" x="0" y="0" flags="0x0"/>
      <component glyphName="caron.case" x="170" y="0" flags="0x0"/>
    </TTGlyph>
    <TTGlyph name="Ncommaaccent" xMin="111" yMin="-279" xMax="562" yMax="685">
      <component glyphName="N" x="0" y="0" flags="0x0"/>
      <component glyphName="uni0326.case" x="257" y="0" flags="0x0"/>
    </TTGlyph>
    <TTGlyph name="Ntilde" xMin="111" yMin="0" xMax="562" yMax="884">
      <component glyphName="N" x="0" y="0" flags="0x0"/>
      <component glyphName="tilde.case" x="165" y="0" flags="0x0"/>
    </TTGlyph>
    <TTGlyph name="Nu" xMin="111" yMin="0" xMax="562" yMax="685">
      <component glyphName="N" x="0" y="0" flags="0x0"/>
    </TTGlyph>
    <TTGlyph name="O" xMin="66" yMin="-11" xMax="625" yMax="696">
      <contour>
        <pt x="429" y="696" on="0"/>
        <pt x="555" y="615" on="0"/>
        <pt x="625" y="455" on="0"/>
        <pt x="625" y="342" on="1"/>
        <pt x="625" y="231" on="0"/>
        <pt x="556" y="72" on="0"/>
        <pt x="430" y="-11" on="0"/>
        <pt x="345" y="-11" on="1"/>
        <pt x="262" y="-11" on="0"/>
        <pt x="136" y="71" on="0"/>
        <pt x="66" y="229" on="0"/>
        <pt x="66" y="341" on="1"/>
        <pt x="66" y="452" on="0"/>
        <pt x="136" y="612" on="0"/>
        <pt x="263" y="696" on="0"/>
        <pt x="345" y="696" on="1"/>
      </contour>
      <contour>
        <pt x="245" y="645" on="0"/>
        <pt x="129" y="492" on="0"/>
        <pt x="129" y="341" on="1"/>
        <pt x="129" y="192" on="0"/>
        <pt x="246" y="40" on="0"/>
        <pt x="345" y="40" on="1"/>
        <pt x="448" y="40" on="0"/>
        <pt x="562" y="191" on="0"/>
        <pt x="562" y="342" on="1"/>
        <pt x="562" y="494" on="0"/>
        <pt x="447" y="645" on="0"/>
        <pt x="345" y="645" on="1"/>
      </contour>
    </TTGlyph>
    <TTGlyph name="OE" xMin="66" yMin="-11" xMax="824" yMax="696">
      <contour>
        <pt x="403" y="0" on="1"/>
        <pt x="368" y="-11" on="0"/>
        <pt x="334" y="-11" on="1"/>
        <pt x="256" y="-11" on="0"/>
        <pt x="135" y="71" on="0"/>
        <pt x="66" y="230" on="0"/>
        <pt x="66" y="341" on="1"/>
        <pt x="66" y="451" on="0"/>
        <pt x="135" y="612" on="0"/>
        <pt x="257" y="696" on="0"/>
        <pt x="334" y="696" on="1"/>
        <pt x="370" y="696" on="0"/>
        <pt x="406" y="685" on="1"/>
        <pt x="817" y="685" on="1"/>
        <pt x="810" y="635" on="1"/>
        <pt x="493" y="635" on="1"/>
        <pt x="543" y="597" on="0"/>
        <pt x="600" y="467" on="0"/>
        <pt x="604" y="380" on="1"/>
        <pt x="772" y="380" on="1"/>
        <pt x="772" y="330" on="1"/>
        <pt x="605" y="330" on="1"/>
        <pt x="603" y="233" on="0"/>
        <pt x="544" y="91" on="0"/>
        <pt x="490" y="50" on="1"/>
        <pt x="824" y="50" on="1"/>
        <pt x="824" y="0" on="1"/>
      </contour>
      <contour>
        <pt x="129" y="242" on="0"/>
        <pt x="182" y="106" on="0"/>
        <pt x="275" y="40" on="0"/>
        <pt x="335" y="40" on="1"/>
        <pt x="431" y="40" on="0"/>
        <pt x="542" y="194" on="0"/>
        <pt x="542" y="347" on="1"/>
        <pt x="542" y="494" on="0"/>
        <pt x="430" y="645" on="0"/>
        <pt x="335" y="645" on="1"/>
        <pt x="242" y="645" on="0"/>
        <pt x="129" y="491" on="0"/>
        <pt x="129" y="341" on="1"/>
      </contour>
    </TTGlyph>
    <TTGlyph name="Oacute" xMin="66" yMin="-11" xMax="625" yMax="888">
      <component glyphName="O" x="0" y="0" flags="0x0"/>
      <component glyphName="acute.case" x="206" y="0" flags="0x0"/>
    </TTGlyph>
    <TTGlyph name="Oacute.loclPLK" xMin="66" yMin="-11" xMax="625" yMax="908">
      <component glyphName="O" x="0" y="0" flags="0x0"/>
      <component glyphName="acute.case.loclPLK" x="206" y="0" flags="0x0"/>
    </TTGlyph>
    <TTGlyph name="Obreve" xMin="66" yMin="-11" xMax="625" yMax="874">
      <component glyphName="O" x="0" y="0" flags="0x0"/>
      <component glyphName="breve.case" x="178" y="0" flags="0x0"/>
    </TTGlyph>
    <TTGlyph name="Ocircumflex" xMin="66" yMin="-11" xMax="625" yMax="894">
      <component glyphName="O" x="0" y="0" flags="0x0"/>
      <component glyphName="circumflex.case" x="161" y="0" flags="0x0"/>
    </TTGlyph>
    <TTGlyph name="Odieresis" xMin="66" yMin="-11" xMax="625" yMax="868">
      <component glyphName="O" x="0" y="0" flags="0x0"/>
      <component glyphName="dieresis.case" x="174" y="0" flags="0x0"/>
    </TTGlyph>
    <TTGlyph name="Ograve" xMin="66" yMin="-11" xMax="625" yMax="888">
      <component glyphName="O" x="0" y="0" flags="0x0"/>
      <component glyphName="grave.case" x="194" y="0" flags="0x0"/>
    </TTGlyph>
    <TTGlyph name="Ohm" xMin="66" yMin="0" xMax="625" yMax="696">
      <component glyphName="Omega" x="0" y="0" flags="0x0"/>
    </TTGlyph>
    <TTGlyph name="Ohungarumlaut" xMin="66" yMin="-11" xMax="625" yMax="937">
      <component glyphName="O" x="0" y="0" flags="0x0"/>
      <component glyphName="hungarumlaut.case" x="217" y="0" flags="0x0"/>
    </TTGlyph>
    <TTGlyph name="Omacron" xMin="66" yMin="-11" xMax="625" yMax="847">
      <component glyphName="O" x="0" y="0" flags="0x0"/>
      <component glyphName="macron.case" x="188" y="-2" flags="0x0"/>
    </TTGlyph>
    <TTGlyph name="Omega" xMin="66" yMin="0" xMax="625" yMax="696">
      <contour>
        <pt x="430" y="696" on="0"/>
        <pt x="556" y="615" on="0"/>
        <pt x="625" y="458" on="0"/>
        <pt x="625" y="346" on="1"/>
        <pt x="625" y="229" on="0"/>
        <pt x="556" y="91" on="0"/>
        <pt x="481" y="53" on="1"/>
        <pt x="603" y="53" on="1"/>
        <pt x="603" y="0" on="1"/>
        <pt x="404" y="0" on="1"/>
        <pt x="404" y="52" on="1"/>
        <pt x="484" y="81" on="0"/>
        <pt x="562" y="223" on="0"/>
        <pt x="562" y="346" on="1"/>
        <pt x="562" y="495" on="0"/>
        <pt x="447" y="645" on="0"/>
        <pt x="345" y="645" on="1"/>
        <pt x="245" y="645" on="0"/>
        <pt x="129" y="494" on="0"/>
        <pt x="129" y="345" on="1"/>
        <pt x="129" y="222" on="0"/>
        <pt x="207" y="84" on="0"/>
        <pt x="286" y="52" on="1"/>
        <pt x="286" y="0" on="1"/>
        <pt x="88" y="0" on="1"/>
        <pt x="88" y="53" on="1"/>
        <pt x="207" y="53" on="1"/>
        <pt x="134" y="91" on="0"/>
        <pt x="66" y="229" on="0"/>
        <pt x="66" y="345" on="1"/>
        <pt x="66" y="454" on="0"/>
        <pt x="136" y="612" on="0"/>
        <pt x="263" y="696" on="0"/>
        <pt x="345" y="696" on="1"/>
      </contour>
    </TTGlyph>
    <TTGlyph name="Omegatonos" xMin="1" yMin="0" xMax="625" yMax="698">
      <component glyphName="Omega" x="0" y="0" flags="0x0"/>
      <component glyphName="tonos.case" x="-29" y="0" flags="0x0"/>
    </TTGlyph>
    <TTGlyph name="Omicron" xMin="66" yMin="-11" xMax="625" yMax="696">
      <contour>
        <pt x="429" y="696" on="0"/>
        <pt x="555" y="615" on="0"/>
        <pt x="625" y="455" on="0"/>
        <pt x="625" y="342" on="1"/>
        <pt x="625" y="231" on="0"/>
        <pt x="556" y="72" on="0"/>
        <pt x="430" y="-11" on="0"/>
        <pt x="345" y="-11" on="1"/>
        <pt x="262" y="-11" on="0"/>
        <pt x="136" y="71" on="0"/>
        <pt x="66" y="229" on="0"/>
        <pt x="66" y="341" on="1"/>
        <pt x="66" y="452" on="0"/>
        <pt x="136" y="612" on="0"/>
        <pt x="263" y="696" on="0"/>
        <pt x="345" y="696" on="1"/>
      </contour>
      <contour>
        <pt x="245" y="645" on="0"/>
        <pt x="129" y="492" on="0"/>
        <pt x="129" y="341" on="1"/>
        <pt x="129" y="192" on="0"/>
        <pt x="246" y="40" on="0"/>
        <pt x="345" y="40" on="1"/>
        <pt x="448" y="40" on="0"/>
        <pt x="562" y="191" on="0"/>
        <pt x="562" y="342" on="1"/>
        <pt x="562" y="494" on="0"/>
        <pt x="447" y="645" on="0"/>
        <pt x="345" y="645" on="1"/>
      </contour>
    </TTGlyph>
    <TTGlyph name="Omicrontonos" xMin="-5" yMin="-11" xMax="625" yMax="698">
      <component glyphName="O" x="0" y="0" flags="0x0"/>
      <component glyphName="tonos.case" x="-35" y="0" flags="0x0"/>
    </TTGlyph>
    <TTGlyph name="Oslash" xMin="66" yMin="-120" xMax="625" yMax="810">
      <contour>
        <pt x="543" y="632" on="0"/>
        <pt x="625" y="465" on="0"/>
        <pt x="625" y="342" on="1"/>
        <pt x="625" y="231" on="0"/>
        <pt x="556" y="72" on="0"/>
        <pt x="430" y="-11" on="0"/>
        <pt x="345" y="-11" on="1"/>
        <pt x="308" y="-11" on="0"/>
        <pt x="268" y="-1" on="1"/>
        <pt x="235" y="-120" on="1"/>
        <pt x="182" y="-105" on="1"/>
        <pt x="220" y="18" on="1"/>
        <pt x="147" y="55" on="0"/>
        <pt x="66" y="220" on="0"/>
        <pt x="66" y="341" on="1"/>
        <pt x="66" y="452" on="0"/>
        <pt x="136" y="612" on="0"/>
        <pt x="263" y="696" on="0"/>
        <pt x="345" y="696" on="1"/>
        <pt x="385" y="696" on="0"/>
        <pt x="421" y="687" on="1"/>
        <pt x="456" y="810" on="1"/>
        <pt x="509" y="796" on="1"/>
        <pt x="469" y="669" on="1"/>
      </contour>
      <contour>
        <pt x="129" y="235" on="0"/>
        <pt x="187" y="98" on="0"/>
        <pt x="241" y="66" on="1"/>
        <pt x="410" y="636" on="1"/>
        <pt x="380" y="645" on="0"/>
        <pt x="345" y="645" on="1"/>
        <pt x="245" y="645" on="0"/>
        <pt x="129" y="492" on="0"/>
        <pt x="129" y="341" on="1"/>
      </contour>
      <contour>
        <pt x="448" y="40" on="0"/>
        <pt x="562" y="191" on="0"/>
        <pt x="562" y="342" on="1"/>
        <pt x="562" y="558" on="0"/>
        <pt x="448" y="621" on="1"/>
        <pt x="279" y="50" on="1"/>
        <pt x="309" y="40" on="0"/>
        <pt x="345" y="40" on="1"/>
      </contour>
    </TTGlyph>
    <TTGlyph name="Oslashacute" xMin="66" yMin="-120" xMax="625" yMax="900">
      <component glyphName="Oslash" x="0" y="0" flags="0x0"/>
      <component glyphName="acute.case" x="205" y="12" flags="0x0"/>
    </TTGlyph>
    <TTGlyph name="Oslashacute.001" xMin="66" yMin="-120" xMax="625" yMax="900">
      <component glyphName="Oslash" x="0" y="0" flags="0x0"/>
      <component glyphName="acute.case" x="205" y="12" flags="0x0"/>
    </TTGlyph>
    <TTGlyph name="Otilde" xMin="66" yMin="-11" xMax="625" yMax="884">
      <component glyphName="O" x="0" y="0" flags="0x0"/>
      <component glyphName="tilde.case" x="158" y="0" flags="0x0"/>
    </TTGlyph>
    <TTGlyph name="P" xMin="111" yMin="0" xMax="525" yMax="685">
      <contour>
        <pt x="394" y="685" on="0"/>
        <pt x="525" y="584" on="0"/>
        <pt x="525" y="480" on="1"/>
        <pt x="525" y="370" on="0"/>
        <pt x="388" y="267" on="0"/>
        <pt x="269" y="267" on="1"/>
        <pt x="171" y="267" on="1"/>
        <pt x="171" y="0" on="1"/>
        <pt x="111" y="0" on="1"/>
        <pt x="111" y="685" on="1"/>
        <pt x="272" y="685" on="1"/>
      </contour>
      <contour>
        <pt x="362" y="316" on="0"/>
        <pt x="462" y="390" on="0"/>
        <pt x="462" y="479" on="1"/>
        <pt x="462" y="563" on="0"/>
        <pt x="365" y="636" on="0"/>
        <pt x="271" y="636" on="1"/>
        <pt x="171" y="636" on="1"/>
        <pt x="171" y="316" on="1"/>
        <pt x="269" y="316" on="1"/>
      </contour>
    </TTGlyph>
    <TTGlyph name="Phi" xMin="40" yMin="0" xMax="750" yMax="685">
      <contour>
        <pt x="750" y="214" on="0"/>
        <pt x="584" y="76" on="0"/>
        <pt x="425" y="70" on="1"/>
        <pt x="425" y="0" on="1"/>
        <pt x="366" y="0" on="1"/>
        <pt x="366" y="70" on="1"/>
        <pt x="207" y="75" on="0"/>
        <pt x="40" y="219" on="0"/>
        <pt x="40" y="343" on="1"/>
        <pt x="40" y="471" on="0"/>
        <pt x="207" y="609" on="0"/>
        <pt x="366" y="614" on="1"/>
        <pt x="366" y="685" on="1"/>
        <pt x="425" y="685" on="1"/>
        <pt x="425" y="614" on="1"/>
        <pt x="584" y="609" on="0"/>
        <pt x="750" y="466" on="0"/>
        <pt x="750" y="344" on="1"/>
      </contour>
      <contour>
        <pt x="102" y="237" on="0"/>
        <pt x="237" y="122" on="0"/>
        <pt x="368" y="118" on="1"/>
        <pt x="368" y="568" on="1"/>
        <pt x="233" y="560" on="0"/>
        <pt x="102" y="452" on="0"/>
        <pt x="102" y="343" on="1"/>
      </contour>
      <contour>
        <pt x="558" y="125" on="0"/>
        <pt x="689" y="233" on="0"/>
        <pt x="689" y="344" on="1"/>
        <pt x="689" y="449" on="0"/>
        <pt x="554" y="563" on="0"/>
        <pt x="423" y="567" on="1"/>
        <pt x="423" y="117" on="1"/>
      </contour>
    </TTGlyph>
    <TTGlyph name="Pi" xMin="111" yMin="0" xMax="554" yMax="685">
      <component glyphName="uni041F" x="0" y="0" flags="0x0"/>
    </TTGlyph>
    <TTGlyph name="Psi" xMin="40" yMin="0" xMax="630" yMax="685">
      <contour>
        <pt x="630" y="427" on="1"/>
        <pt x="630" y="321" on="0"/>
        <pt x="494" y="207" on="0"/>
        <pt x="365" y="200" on="1"/>
        <pt x="365" y="0" on="1"/>
        <pt x="305" y="0" on="1"/>
        <pt x="305" y="200" on="1"/>
        <pt x="174" y="207" on="0"/>
        <pt x="40" y="321" on="0"/>
        <pt x="40" y="426" on="1"/>
        <pt x="40" y="685" on="1"/>
        <pt x="100" y="685" on="1"/>
        <pt x="100" y="431" on="1"/>
        <pt x="100" y="345" on="0"/>
        <pt x="202" y="255" on="0"/>
        <pt x="306" y="251" on="1"/>
        <pt x="306" y="685" on="1"/>
        <pt x="364" y="685" on="1"/>
        <pt x="364" y="251" on="1"/>
        <pt x="468" y="256" on="0"/>
        <pt x="570" y="344" on="0"/>
        <pt x="570" y="431" on="1"/>
        <pt x="570" y="685" on="1"/>
        <pt x="630" y="685" on="1"/>
      </contour>
    </TTGlyph>
    <TTGlyph name="Q" xMin="66" yMin="-93" xMax="649" yMax="696">
      <contour>
        <pt x="555" y="-45" on="0"/>
        <pt x="439" y="-9" on="0"/>
        <pt x="345" y="-9" on="1"/>
        <pt x="262" y="-9" on="0"/>
        <pt x="136" y="72" on="0"/>
        <pt x="66" y="229" on="0"/>
        <pt x="66" y="341" on="1"/>
        <pt x="66" y="452" on="0"/>
        <pt x="136" y="612" on="0"/>
        <pt x="263" y="696" on="0"/>
        <pt x="345" y="696" on="1"/>
        <pt x="429" y="696" on="0"/>
        <pt x="555" y="615" on="0"/>
        <pt x="625" y="455" on="0"/>
        <pt x="625" y="342" on="1"/>
        <pt x="625" y="87" on="0"/>
        <pt x="452" y="24" on="1"/>
        <pt x="509" y="23" on="0"/>
        <pt x="610" y="-10" on="0"/>
        <pt x="649" y="-42" on="1"/>
        <pt x="609" y="-93" on="1"/>
      </contour>
      <contour>
        <pt x="129" y="192" on="0"/>
        <pt x="246" y="40" on="0"/>
        <pt x="345" y="40" on="1"/>
        <pt x="448" y="40" on="0"/>
        <pt x="562" y="191" on="0"/>
        <pt x="562" y="342" on="1"/>
        <pt x="562" y="494" on="0"/>
        <pt x="447" y="645" on="0"/>
        <pt x="345" y="645" on="1"/>
        <pt x="245" y="645" on="0"/>
        <pt x="129" y="492" on="0"/>
        <pt x="129" y="341" on="1"/>
      </contour>
    </TTGlyph>
    <TTGlyph name="R" xMin="111" yMin="0" xMax="556" yMax="685">
      <contour>
        <pt x="171" y="307" on="1"/>
        <pt x="171" y="0" on="1"/>
        <pt x="111" y="0" on="1"/>
        <pt x="111" y="685" on="1"/>
        <pt x="277" y="685" on="1"/>
        <pt x="521" y="685" on="0"/>
        <pt x="521" y="499" on="1"/>
        <pt x="521" y="425" on="0"/>
        <pt x="443" y="337" on="0"/>
        <pt x="368" y="318" on="1"/>
        <pt x="556" y="0" on="1"/>
        <pt x="484" y="0" on="1"/>
        <pt x="308" y="307" on="1"/>
      </contour>
      <contour>
        <pt x="457" y="356" on="0"/>
        <pt x="457" y="499" on="1"/>
        <pt x="457" y="569" on="0"/>
        <pt x="371" y="636" on="0"/>
        <pt x="275" y="636" on="1"/>
        <pt x="171" y="636" on="1"/>
        <pt x="171" y="356" on="1"/>
        <pt x="285" y="356" on="1"/>
      </contour>
    </TTGlyph>
    <TTGlyph name="Racute" xMin="111" yMin="0" xMax="556" yMax="888">
      <component glyphName="R" x="0" y="0" flags="0x0"/>
      <component glyphName="acute.case" x="161" y="0" flags="0x0"/>
    </TTGlyph>
    <TTGlyph name="Rcaron" xMin="111" yMin="0" xMax="556" yMax="888">
      <component glyphName="R" x="0" y="0" flags="0x0"/>
      <component glyphName="caron.case" x="119" y="0" flags="0x0"/>
    </TTGlyph>
    <TTGlyph name="Rcommaaccent" xMin="111" yMin="-279" xMax="556" yMax="685">
      <component glyphName="R" x="0" y="0" flags="0x0"/>
      <component glyphName="uni0326.case" x="226" y="0" flags="0x0"/>
    </TTGlyph>
    <TTGlyph name="Rho" xMin="111" yMin="0" xMax="525" yMax="685">
      <component glyphName="P" x="0" y="0" flags="0x0"/>
    </TTGlyph>
    <TTGlyph name="S" xMin="39" yMin="-11" xMax="485" yMax="696">
      <contour>
        <pt x="330" y="696" on="0"/>
        <pt x="421" y="659" on="0"/>
        <pt x="464" y="620" on="1"/>
        <pt x="428" y="581" on="1"/>
        <pt x="390" y="615" on="0"/>
        <pt x="316" y="645" on="0"/>
        <pt x="269" y="645" on="1"/>
        <pt x="205" y="645" on="0"/>
        <pt x="127" y="582" on="0"/>
        <pt x="127" y="529" on="1"/>
        <pt x="127" y="493" on="0"/>
        <pt x="156" y="446" on="0"/>
        <pt x="224" y="409" on="0"/>
        <pt x="287" y="390" on="1"/>
        <pt x="355" y="369" on="0"/>
        <pt x="439" y="321" on="0"/>
        <pt x="485" y="245" on="0"/>
        <pt x="485" y="187" on="1"/>
        <pt x="485" y="129" on="0"/>
        <pt x="429" y="39" on="0"/>
        <pt x="326" y="-11" on="0"/>
        <pt x="258" y="-11" on="1"/>
        <pt x="130" y="-11" on="0"/>
        <pt x="39" y="75" on="1"/>
        <pt x="75" y="114" on="1"/>
        <pt x="114" y="78" on="0"/>
        <pt x="200" y="40" on="0"/>
        <pt x="257" y="40" on="1"/>
        <pt x="331" y="40" on="0"/>
        <pt x="424" y="118" on="0"/>
        <pt x="424" y="185" on="1"/>
        <pt x="424" y="227" on="0"/>
        <pt x="393" y="281" on="0"/>
        <pt x="324" y="320" on="0"/>
        <pt x="261" y="340" on="1"/>
        <pt x="156" y="372" on="0"/>
        <pt x="66" y="456" on="0"/>
        <pt x="66" y="528" on="1"/>
        <pt x="66" y="576" on="0"/>
        <pt x="117" y="653" on="0"/>
        <pt x="208" y="696" on="0"/>
        <pt x="267" y="696" on="1"/>
      </contour>
    </TTGlyph>
    <TTGlyph name="Sacute" xMin="39" yMin="-11" xMax="485" yMax="888">
      <component glyphName="S" x="0" y="0" flags="0x0"/>
      <component glyphName="acute.case" x="138" y="0" flags="0x0"/>
    </TTGlyph>
    <TTGlyph name="Sacute.loclPLK" xMin="39" yMin="-11" xMax="485" yMax="908">
      <component glyphName="S" x="0" y="0" flags="0x0"/>
      <component glyphName="acute.case.loclPLK" x="138" y="0" flags="0x0"/>
    </TTGlyph>
    <TTGlyph name="Scaron" xMin="39" yMin="-11" xMax="485" yMax="888">
      <component glyphName="S" x="0" y="0" flags="0x0"/>
      <component glyphName="caron.case" x="96" y="0" flags="0x0"/>
    </TTGlyph>
    <TTGlyph name="Scedilla" xMin="39" yMin="-228" xMax="485" yMax="696">
      <contour>
        <pt x="485" y="104" on="0"/>
        <pt x="374" y="-4" on="0"/>
        <pt x="280" y="-10" on="1"/>
        <pt x="280" y="-64" on="1"/>
        <pt x="326" y="-68" on="0"/>
        <pt x="372" y="-109" on="0"/>
        <pt x="372" y="-141" on="1"/>
        <pt x="372" y="-181" on="0"/>
        <pt x="311" y="-228" on="0"/>
        <pt x="266" y="-228" on="1"/>
        <pt x="218" y="-228" on="0"/>
        <pt x="186" y="-206" on="1"/>
        <pt x="205" y="-170" on="1"/>
        <pt x="232" y="-186" on="0"/>
        <pt x="265" y="-186" on="1"/>
        <pt x="289" y="-186" on="0"/>
        <pt x="320" y="-163" on="0"/>
        <pt x="320" y="-141" on="1"/>
        <pt x="320" y="-118" on="0"/>
        <pt x="278" y="-97" on="0"/>
        <pt x="231" y="-96" on="1"/>
        <pt x="239" y="-10" on="1"/>
        <pt x="123" y="-4" on="0"/>
        <pt x="39" y="75" on="1"/>
        <pt x="75" y="114" on="1"/>
        <pt x="114" y="78" on="0"/>
        <pt x="200" y="40" on="0"/>
        <pt x="257" y="40" on="1"/>
        <pt x="331" y="40" on="0"/>
        <pt x="424" y="118" on="0"/>
        <pt x="424" y="185" on="1"/>
        <pt x="424" y="227" on="0"/>
        <pt x="393" y="281" on="0"/>
        <pt x="324" y="320" on="0"/>
        <pt x="261" y="340" on="1"/>
        <pt x="156" y="372" on="0"/>
        <pt x="66" y="456" on="0"/>
        <pt x="66" y="528" on="1"/>
        <pt x="66" y="576" on="0"/>
        <pt x="117" y="653" on="0"/>
        <pt x="208" y="696" on="0"/>
        <pt x="267" y="696" on="1"/>
        <pt x="330" y="696" on="0"/>
        <pt x="421" y="659" on="0"/>
        <pt x="464" y="620" on="1"/>
        <pt x="428" y="581" on="1"/>
        <pt x="390" y="615" on="0"/>
        <pt x="316" y="645" on="0"/>
        <pt x="269" y="645" on="1"/>
        <pt x="205" y="645" on="0"/>
        <pt x="127" y="582" on="0"/>
        <pt x="127" y="529" on="1"/>
        <pt x="127" y="493" on="0"/>
        <pt x="156" y="446" on="0"/>
        <pt x="224" y="409" on="0"/>
        <pt x="287" y="390" on="1"/>
        <pt x="355" y="369" on="0"/>
        <pt x="439" y="321" on="0"/>
        <pt x="485" y="245" on="0"/>
        <pt x="485" y="187" on="1"/>
      </contour>
    </TTGlyph>
    <TTGlyph name="Scircumflex" xMin="39" yMin="-11" xMax="485" yMax="894">
      <component glyphName="S" x="0" y="0" flags="0x0"/>
      <component glyphName="circumflex.case" x="93" y="0" flags="0x0"/>
    </TTGlyph>
    <TTGlyph name="Scommaaccent" xMin="39" yMin="-279" xMax="485" yMax="696">
      <component glyphName="S" x="0" y="0" flags="0x0"/>
      <component glyphName="uni0326.case" x="184" y="0" flags="0x0"/>
    </TTGlyph>
    <TTGlyph name="Sigma" xMin="45" yMin="0" xMax="448" yMax="685">
      <contour>
        <pt x="119" y="634" on="1"/>
        <pt x="333" y="357" on="1"/>
        <pt x="333" y="323" on="1"/>
        <pt x="119" y="51" on="1"/>
        <pt x="448" y="51" on="1"/>
        <pt x="448" y="0" on="1"/>
        <pt x="45" y="0" on="1"/>
        <pt x="45" y="44" on="1"/>
        <pt x="276" y="339" on="1"/>
        <pt x="45" y="641" on="1"/>
        <pt x="45" y="685" on="1"/>
        <pt x="448" y="685" on="1"/>
        <pt x="448" y="634" on="1"/>
      </contour>
    </TTGlyph>
    <TTGlyph name="T" xMin="15" yMin="0" xMax="485" yMax="685">
      <contour>
        <pt x="277" y="632" on="1"/>
        <pt x="277" y="0" on="1"/>
        <pt x="218" y="0" on="1"/>
        <pt x="218" y="632" on="1"/>
        <pt x="15" y="632" on="1"/>
        <pt x="15" y="685" on="1"/>
        <pt x="485" y="685" on="1"/>
        <pt x="478" y="632" on="1"/>
      </contour>
    </TTGlyph>
    <TTGlyph name="Tau" xMin="15" yMin="0" xMax="485" yMax="685">
      <component glyphName="T" x="0" y="0" flags="0x0"/>
    </TTGlyph>
    <TTGlyph name="Tbar" xMin="15" yMin="-1" xMax="485" yMax="685">
      <contour>
        <pt x="278" y="384" on="1"/>
        <pt x="403" y="384" on="1"/>
        <pt x="403" y="337" on="1"/>
        <pt x="278" y="337" on="1"/>
        <pt x="278" y="-1" on="1"/>
        <pt x="218" y="-1" on="1"/>
        <pt x="218" y="337" on="1"/>
        <pt x="95" y="337" on="1"/>
        <pt x="95" y="384" on="1"/>
        <pt x="218" y="384" on="1"/>
        <pt x="218" y="631" on="1"/>
        <pt x="15" y="631" on="1"/>
        <pt x="15" y="685" on="1"/>
        <pt x="485" y="685" on="1"/>
        <pt x="478" y="631" on="1"/>
        <pt x="278" y="631" on="1"/>
      </contour>
    </TTGlyph>
    <TTGlyph name="Tcaron" xMin="15" yMin="0" xMax="485" yMax="888">
      <component glyphName="T" x="0" y="0" flags="0x0"/>
      <component glyphName="caron.case" x="67" y="0" flags="0x0"/>
    </TTGlyph>
    <TTGlyph name="Tcedilla" xMin="15" yMin="-228" xMax="485" yMax="685">
      <contour>
        <pt x="278" y="16" on="1"/>
        <pt x="278" y="-64" on="1"/>
        <pt x="325" y="-68" on="0"/>
        <pt x="371" y="-109" on="0"/>
        <pt x="371" y="-141" on="1"/>
        <pt x="371" y="-181" on="0"/>
        <pt x="310" y="-228" on="0"/>
        <pt x="264" y="-228" on="1"/>
        <pt x="216" y="-228" on="0"/>
        <pt x="186" y="-206" on="1"/>
        <pt x="204" y="-170" on="1"/>
        <pt x="232" y="-186" on="0"/>
        <pt x="263" y="-186" on="1"/>
        <pt x="288" y="-186" on="0"/>
        <pt x="319" y="-163" on="0"/>
        <pt x="319" y="-141" on="1"/>
        <pt x="319" y="-118" on="0"/>
        <pt x="277" y="-97" on="0"/>
        <pt x="230" y="-96" on="1"/>
        <pt x="239" y="0" on="1"/>
        <pt x="218" y="0" on="1"/>
        <pt x="218" y="632" on="1"/>
        <pt x="15" y="632" on="1"/>
        <pt x="15" y="685" on="1"/>
        <pt x="485" y="685" on="1"/>
        <pt x="478" y="632" on="1"/>
        <pt x="277" y="632" on="1"/>
      </contour>
    </TTGlyph>
    <TTGlyph name="Theta" xMin="66" yMin="-11" xMax="625" yMax="696">
      <contour>
        <pt x="429" y="696" on="0"/>
        <pt x="555" y="615" on="0"/>
        <pt x="625" y="455" on="0"/>
        <pt x="625" y="342" on="1"/>
        <pt x="625" y="231" on="0"/>
        <pt x="556" y="72" on="0"/>
        <pt x="430" y="-11" on="0"/>
        <pt x="345" y="-11" on="1"/>
        <pt x="262" y="-11" on="0"/>
        <pt x="136" y="71" on="0"/>
        <pt x="66" y="229" on="0"/>
        <pt x="66" y="341" on="1"/>
        <pt x="66" y="452" on="0"/>
        <pt x="136" y="612" on="0"/>
        <pt x="263" y="696" on="0"/>
        <pt x="345" y="696" on="1"/>
      </contour>
      <contour>
        <pt x="245" y="645" on="0"/>
        <pt x="129" y="492" on="0"/>
        <pt x="129" y="341" on="1"/>
        <pt x="129" y="192" on="0"/>
        <pt x="246" y="40" on="0"/>
        <pt x="345" y="40" on="1"/>
        <pt x="448" y="40" on="0"/>
        <pt x="562" y="191" on="0"/>
        <pt x="562" y="342" on="1"/>
        <pt x="562" y="494" on="0"/>
        <pt x="447" y="645" on="0"/>
        <pt x="345" y="645" on="1"/>
      </contour>
      <contour>
        <pt x="216" y="327" on="1"/>
        <pt x="216" y="376" on="1"/>
        <pt x="474" y="376" on="1"/>
        <pt x="474" y="327" on="1"/>
      </contour>
    </TTGlyph>
    <TTGlyph name="Thorn" xMin="111" yMin="0" xMax="525" yMax="685">
      <contour>
        <pt x="395" y="563" on="0"/>
        <pt x="525" y="461" on="0"/>
        <pt x="525" y="356" on="1"/>
        <pt x="525" y="242" on="0"/>
        <pt x="388" y="136" on="0"/>
        <pt x="269" y="136" on="1"/>
        <pt x="171" y="136" on="1"/>
        <pt x="171" y="0" on="1"/>
        <pt x="111" y="0" on="1"/>
        <pt x="111" y="685" on="1"/>
        <pt x="171" y="685" on="1"/>
        <pt x="171" y="563" on="1"/>
        <pt x="272" y="563" on="1"/>
      </contour>
      <contour>
        <pt x="362" y="186" on="0"/>
        <pt x="462" y="261" on="0"/>
        <pt x="462" y="355" on="1"/>
        <pt x="462" y="440" on="0"/>
        <pt x="366" y="513" on="0"/>
        <pt x="271" y="513" on="1"/>
        <pt x="171" y="513" on="1"/>
        <pt x="171" y="186" on="1"/>
        <pt x="269" y="186" on="1"/>
      </contour>
    </TTGlyph>
    <TTGlyph name="U" xMin="101" yMin="-11" xMax="551" yMax="685">
      <contour>
        <pt x="551" y="112" on="0"/>
        <pt x="435" y="-11" on="0"/>
        <pt x="326" y="-11" on="1"/>
        <pt x="215" y="-11" on="0"/>
        <pt x="101" y="111" on="0"/>
        <pt x="101" y="214" on="1"/>
        <pt x="101" y="685" on="1"/>
        <pt x="161" y="685" on="1"/>
        <pt x="161" y="219" on="1"/>
        <pt x="161" y="133" on="0"/>
        <pt x="242" y="41" on="0"/>
        <pt x="326" y="41" on="1"/>
        <pt x="410" y="41" on="0"/>
        <pt x="490" y="134" on="0"/>
        <pt x="490" y="219" on="1"/>
        <pt x="490" y="685" on="1"/>
        <pt x="551" y="685" on="1"/>
        <pt x="551" y="214" on="1"/>
      </contour>
    </TTGlyph>
    <TTGlyph name="Uacute" xMin="101" yMin="-11" xMax="551" yMax="888">
      <component glyphName="U" x="0" y="0" flags="0x0"/>
      <component glyphName="acute.case" x="194" y="0" flags="0x0"/>
    </TTGlyph>
    <TTGlyph name="Ubreve" xMin="101" yMin="-11" xMax="551" yMax="874">
      <component glyphName="U" x="0" y="0" flags="0x0"/>
      <component glyphName="breve.case" x="167" y="0" flags="0x0"/>
    </TTGlyph>
    <TTGlyph name="Ucircumflex" xMin="101" yMin="-11" xMax="551" yMax="894">
      <component glyphName="U" x="0" y="0" flags="0x0"/>
      <component glyphName="circumflex.case" x="150" y="0" flags="0x0"/>
    </TTGlyph>
    <TTGlyph name="Udieresis" xMin="101" yMin="-11" xMax="551" yMax="868">
      <component glyphName="U" x="0" y="0" flags="0x0"/>
      <component glyphName="dieresis.case" x="162" y="0" flags="0x0"/>
    </TTGlyph>
    <TTGlyph name="Ugrave" xMin="101" yMin="-11" xMax="551" yMax="888">
      <component glyphName="U" x="0" y="0" flags="0x0"/>
      <component glyphName="grave.case" x="183" y="0" flags="0x0"/>
    </TTGlyph>
    <TTGlyph name="Uhungarumlaut" xMin="101" yMin="-11" xMax="551" yMax="937">
      <component glyphName="U" x="0" y="0" flags="0x0"/>
      <component glyphName="hungarumlaut.case" x="206" y="0" flags="0x0"/>
    </TTGlyph>
    <TTGlyph name="Umacron" xMin="101" yMin="-11" xMax="551" yMax="847">
      <component glyphName="U" x="0" y="0" flags="0x0"/>
      <component glyphName="macron.case" x="177" y="-2" flags="0x0"/>
    </TTGlyph>
    <TTGlyph name="Uogonek" xMin="101" yMin="-218" xMax="551" yMax="685">
      <contour>
        <pt x="551" y="214" on="1"/>
        <pt x="551" y="133" on="0"/>
        <pt x="476" y="20" on="0"/>
        <pt x="405" y="-1" on="1"/>
        <pt x="339" y="-31" on="0"/>
        <pt x="284" y="-83" on="0"/>
        <pt x="284" y="-118" on="1"/>
        <pt x="284" y="-143" on="0"/>
        <pt x="316" y="-170" on="0"/>
        <pt x="348" y="-170" on="1"/>
        <pt x="374" y="-170" on="0"/>
        <pt x="405" y="-163" on="1"/>
        <pt x="399" y="-212" on="1"/>
        <pt x="369" y="-218" on="0"/>
        <pt x="341" y="-218" on="1"/>
        <pt x="288" y="-218" on="0"/>
        <pt x="230" y="-167" on="0"/>
        <pt x="230" y="-126" on="1"/>
        <pt x="230" y="-54" on="0"/>
        <pt x="323" y="-11" on="1"/>
        <pt x="213" y="-10" on="0"/>
        <pt x="101" y="112" on="0"/>
        <pt x="101" y="214" on="1"/>
        <pt x="101" y="685" on="1"/>
        <pt x="161" y="685" on="1"/>
        <pt x="161" y="219" on="1"/>
        <pt x="161" y="133" on="0"/>
        <pt x="242" y="41" on="0"/>
        <pt x="326" y="41" on="1"/>
        <pt x="410" y="41" on="0"/>
        <pt x="490" y="134" on="0"/>
        <pt x="490" y="219" on="1"/>
        <pt x="490" y="685" on="1"/>
        <pt x="551" y="685" on="1"/>
      </contour>
    </TTGlyph>
    <TTGlyph name="Upsilon" xMin="13" yMin="0" xMax="509" yMax="685">
      <contour>
        <pt x="292" y="0" on="1"/>
        <pt x="232" y="0" on="1"/>
        <pt x="232" y="267" on="1"/>
        <pt x="13" y="685" on="1"/>
        <pt x="80" y="685" on="1"/>
        <pt x="264" y="320" on="1"/>
        <pt x="445" y="685" on="1"/>
        <pt x="509" y="685" on="1"/>
        <pt x="292" y="268" on="1"/>
      </contour>
    </TTGlyph>
    <TTGlyph name="Upsilondieresis" xMin="13" yMin="0" xMax="509" yMax="868">
      <component glyphName="Y" x="0" y="0" flags="0x0"/>
      <component glyphName="dieresis.case" x="95" y="0" flags="0x0"/>
    </TTGlyph>
    <TTGlyph name="Upsilontonos" xMin="-102" yMin="0" xMax="509" yMax="698">
      <component glyphName="Y" x="0" y="0" flags="0x0"/>
      <component glyphName="tonos.case" x="-132" y="0" flags="0x0"/>
    </TTGlyph>
    <TTGlyph name="Uring" xMin="101" yMin="-11" xMax="551" yMax="947">
      <component glyphName="U" x="0" y="0" flags="0x0"/>
      <component glyphName="ring.case" x="199" y="0" flags="0x0"/>
    </TTGlyph>
    <TTGlyph name="Utilde" xMin="101" yMin="-11" xMax="551" yMax="884">
      <component glyphName="U" x="0" y="0" flags="0x0"/>
      <component glyphName="tilde.case" x="147" y="0" flags="0x0"/>
    </TTGlyph>
    <TTGlyph name="V" xMin="16" yMin="0" xMax="530" yMax="685">
      <contour>
        <pt x="240" y="0" on="1"/>
        <pt x="16" y="685" on="1"/>
        <pt x="81" y="685" on="1"/>
        <pt x="274" y="62" on="1"/>
        <pt x="468" y="685" on="1"/>
        <pt x="530" y="685" on="1"/>
        <pt x="307" y="0" on="1"/>
      </contour>
    </TTGlyph>
    <TTGlyph name="W" xMin="30" yMin="0" xMax="779" yMax="685">
      <contour>
        <pt x="554" y="0" on="1"/>
        <pt x="404" y="618" on="1"/>
        <pt x="254" y="0" on="1"/>
        <pt x="181" y="0" on="1"/>
        <pt x="30" y="685" on="1"/>
        <pt x="91" y="685" on="1"/>
        <pt x="221" y="55" on="1"/>
        <pt x="371" y="685" on="1"/>
        <pt x="438" y="685" on="1"/>
        <pt x="591" y="55" on="1"/>
        <pt x="722" y="685" on="1"/>
        <pt x="779" y="685" on="1"/>
        <pt x="629" y="0" on="1"/>
      </contour>
    </TTGlyph>
    <TTGlyph name="Wacute" xMin="30" yMin="0" xMax="779" yMax="888">
      <component glyphName="W" x="0" y="0" flags="0x0"/>
      <component glyphName="acute.case" x="271" y="0" flags="0x0"/>
    </TTGlyph>
    <TTGlyph name="Wcircumflex" xMin="30" yMin="0" xMax="779" yMax="894">
      <component glyphName="W" x="0" y="0" flags="0x0"/>
      <component glyphName="circumflex.case" x="227" y="0" flags="0x0"/>
    </TTGlyph>
    <TTGlyph name="Wdieresis" xMin="30" yMin="0" xMax="779" yMax="868">
      <component glyphName="W" x="0" y="0" flags="0x0"/>
      <component glyphName="dieresis.case" x="239" y="0" flags="0x0"/>
    </TTGlyph>
    <TTGlyph name="Wgrave" xMin="30" yMin="0" xMax="779" yMax="888">
      <component glyphName="W" x="0" y="0" flags="0x0"/>
      <component glyphName="grave.case" x="260" y="0" flags="0x0"/>
    </TTGlyph>
    <TTGlyph name="X" xMin="10" yMin="0" xMax="504" yMax="685">
      <contour>
        <pt x="436" y="0" on="1"/>
        <pt x="254" y="330" on="1"/>
        <pt x="75" y="0" on="1"/>
        <pt x="10" y="0" on="1"/>
        <pt x="219" y="368" on="1"/>
        <pt x="31" y="685" on="1"/>
        <pt x="99" y="685" on="1"/>
        <pt x="255" y="407" on="1"/>
        <pt x="411" y="685" on="1"/>
        <pt x="476" y="685" on="1"/>
        <pt x="290" y="371" on="1"/>
        <pt x="504" y="0" on="1"/>
      </contour>
    </TTGlyph>
    <TTGlyph name="Xi" xMin="50" yMin="0" xMax="447" yMax="685">
      <contour>
        <pt x="50" y="630" on="1"/>
        <pt x="50" y="685" on="1"/>
        <pt x="437" y="685" on="1"/>
        <pt x="430" y="630" on="1"/>
      </contour>
      <contour>
        <pt x="109" y="327" on="1"/>
        <pt x="109" y="382" on="1"/>
        <pt x="385" y="382" on="1"/>
        <pt x="385" y="327" on="1"/>
      </contour>
      <contour>
        <pt x="50" y="0" on="1"/>
        <pt x="50" y="57" on="1"/>
        <pt x="447" y="57" on="1"/>
        <pt x="447" y="0" on="1"/>
      </contour>
    </TTGlyph>
    <TTGlyph name="Y" xMin="13" yMin="0" xMax="509" yMax="685">
      <contour>
        <pt x="292" y="0" on="1"/>
        <pt x="232" y="0" on="1"/>
        <pt x="232" y="267" on="1"/>
        <pt x="13" y="685" on="1"/>
        <pt x="80" y="685" on="1"/>
        <pt x="264" y="320" on="1"/>
        <pt x="445" y="685" on="1"/>
        <pt x="509" y="685" on="1"/>
        <pt x="292" y="268" on="1"/>
      </contour>
    </TTGlyph>
    <TTGlyph name="Yacute" xMin="13" yMin="0" xMax="509" yMax="888">
      <component glyphName="Y" x="0" y="0" flags="0x0"/>
      <component glyphName="acute.case" x="127" y="0" flags="0x0"/>
    </TTGlyph>
    <TTGlyph name="Ycircumflex" xMin="13" yMin="0" xMax="509" yMax="894">
      <component glyphName="Y" x="0" y="0" flags="0x0"/>
      <component glyphName="circumflex.case" x="82" y="0" flags="0x0"/>
    </TTGlyph>
    <TTGlyph name="Ydieresis" xMin="13" yMin="0" xMax="509" yMax="868">
      <component glyphName="Y" x="0" y="0" flags="0x0"/>
      <component glyphName="dieresis.case" x="95" y="0" flags="0x0"/>
    </TTGlyph>
    <TTGlyph name="Ygrave" xMin="13" yMin="0" xMax="509" yMax="888">
      <component glyphName="Y" x="0" y="0" flags="0x0"/>
      <component glyphName="grave.case" x="116" y="0" flags="0x0"/>
    </TTGlyph>
    <TTGlyph name="Z" xMin="35" yMin="0" xMax="468" yMax="685">
      <contour>
        <pt x="104" y="53" on="1"/>
        <pt x="462" y="53" on="1"/>
        <pt x="454" y="0" on="1"/>
        <pt x="35" y="0" on="1"/>
        <pt x="35" y="50" on="1"/>
        <pt x="402" y="633" on="1"/>
        <pt x="73" y="633" on="1"/>
        <pt x="73" y="685" on="1"/>
        <pt x="468" y="685" on="1"/>
        <pt x="468" y="636" on="1"/>
      </contour>
    </TTGlyph>
    <TTGlyph name="Zacute" xMin="35" yMin="0" xMax="468" yMax="888">
      <component glyphName="Z" x="0" y="0" flags="0x0"/>
      <component glyphName="acute.case" x="130" y="0" flags="0x0"/>
    </TTGlyph>
    <TTGlyph name="Zacute.loclPLK" xMin="35" yMin="0" xMax="468" yMax="908">
      <component glyphName="Z" x="0" y="0" flags="0x0"/>
      <component glyphName="acute.case.loclPLK" x="130" y="0" flags="0x0"/>
    </TTGlyph>
    <TTGlyph name="Zcaron" xMin="35" yMin="0" xMax="468" yMax="888">
      <component glyphName="Z" x="0" y="0" flags="0x0"/>
      <component glyphName="caron.case" x="88" y="0" flags="0x0"/>
    </TTGlyph>
    <TTGlyph name="Zdotaccent" xMin="35" yMin="0" xMax="468" yMax="879">
      <component glyphName="Z" x="0" y="0" flags="0x0"/>
      <component glyphName="dotaccent.case" x="189" y="0" flags="0x0"/>
    </TTGlyph>
    <TTGlyph name="Zeta" xMin="35" yMin="0" xMax="468" yMax="685">
      <component glyphName="Z" x="0" y="0" flags="0x0"/>
    </TTGlyph>
    <TTGlyph name="a" xMin="56" yMin="-11" xMax="475" yMax="534">
      <contour>
        <pt x="431" y="75" on="0"/>
        <pt x="452" y="39" on="0"/>
        <pt x="475" y="30" on="1"/>
        <pt x="462" y="-11" on="1"/>
        <pt x="426" y="-3" on="0"/>
        <pt x="387" y="37" on="0"/>
        <pt x="381" y="76" on="1"/>
        <pt x="324" y="-11" on="0"/>
        <pt x="218" y="-11" on="1"/>
        <pt x="143" y="-11" on="0"/>
        <pt x="56" y="74" on="0"/>
        <pt x="56" y="145" on="1"/>
        <pt x="56" y="227" on="0"/>
        <pt x="171" y="315" on="0"/>
        <pt x="273" y="315" on="1"/>
        <pt x="373" y="315" on="1"/>
        <pt x="373" y="365" on="1"/>
        <pt x="373" y="428" on="0"/>
        <pt x="317" y="485" on="0"/>
        <pt x="252" y="485" on="1"/>
        <pt x="192" y="485" on="0"/>
        <pt x="110" y="455" on="1"/>
        <pt x="95" y="499" on="1"/>
        <pt x="183" y="534" on="0"/>
        <pt x="260" y="534" on="1"/>
        <pt x="431" y="534" on="0"/>
        <pt x="431" y="368" on="1"/>
        <pt x="431" y="116" on="1"/>
      </contour>
      <contour>
        <pt x="324" y="36" on="0"/>
        <pt x="373" y="130" on="1"/>
        <pt x="373" y="272" on="1"/>
        <pt x="282" y="272" on="1"/>
        <pt x="202" y="272" on="0"/>
        <pt x="118" y="210" on="0"/>
        <pt x="118" y="148" on="1"/>
        <pt x="118" y="94" on="0"/>
        <pt x="176" y="36" on="0"/>
        <pt x="228" y="36" on="1"/>
      </contour>
    </TTGlyph>
    <TTGlyph name="a.sc" xMin="16" yMin="0" xMax="481" yMax="562">
      <contour>
        <pt x="126" y="150" on="1"/>
        <pt x="75" y="0" on="1"/>
        <pt x="16" y="0" on="1"/>
        <pt x="214" y="562" on="1"/>
        <pt x="285" y="562" on="1"/>
        <pt x="481" y="0" on="1"/>
        <pt x="420" y="0" on="1"/>
        <pt x="370" y="150" on="1"/>
      </contour>
      <contour>
        <pt x="248" y="514" on="1"/>
        <pt x="142" y="198" on="1"/>
        <pt x="354" y="198" on="1"/>
      </contour>
    </TTGlyph>
    <TTGlyph name="aacute" xMin="56" yMin="-11" xMax="475" yMax="782">
      <component glyphName="a" x="0" y="0" flags="0x0"/>
      <component glyphName="acute" x="111" y="0" flags="0x0"/>
    </TTGlyph>
    <TTGlyph name="aacute.sc" xMin="16" yMin="0" xMax="481" yMax="813">
      <component glyphName="a.sc" x="0" y="0" flags="0x0"/>
      <component glyphName="acute.sc" x="106" y="0" flags="0x0"/>
    </TTGlyph>
    <TTGlyph name="abreve" xMin="56" yMin="-11" xMax="475" yMax="772">
      <component glyphName="a" x="0" y="0" flags="0x0"/>
      <component glyphName="breve" x="97" y="0" flags="0x0"/>
    </TTGlyph>
    <TTGlyph name="abreve.sc" xMin="16" yMin="0" xMax="481" yMax="802">
      <component glyphName="a.sc" x="0" y="0" flags="0x0"/>
      <component glyphName="breve.sc" x="88" y="0" flags="0x0"/>
    </TTGlyph>
    <TTGlyph name="acircumflex" xMin="56" yMin="-11" xMax="475" yMax="779">
      <component glyphName="a" x="0" y="0" flags="0x0"/>
      <component glyphName="circumflex" x="82" y="0" flags="0x0"/>
    </TTGlyph>
    <TTGlyph name="acircumflex.sc" xMin="16" yMin="0" xMax="481" yMax="810">
      <component glyphName="a.sc" x="0" y="0" flags="0x0"/>
      <component glyphName="circumflex.sc" x="71" y="0" flags="0x0"/>
    </TTGlyph>
    <TTGlyph name="acute" xMin="30" yMin="645" xMax="244" yMax="782">
      <contour>
        <pt x="49" y="645" on="1"/>
        <pt x="30" y="679" on="1"/>
        <pt x="218" y="782" on="1"/>
        <pt x="244" y="730" on="1"/>
      </contour>
    </TTGlyph>
    <TTGlyph name="acute.case" xMin="30" yMin="758" xMax="244" yMax="888">
      <contour>
        <pt x="46" y="758" on="1"/>
        <pt x="30" y="792" on="1"/>
        <pt x="217" y="888" on="1"/>
        <pt x="244" y="836" on="1"/>
      </contour>
    </TTGlyph>
    <TTGlyph name="acute.case.loclPLK" xMin="93" yMin="732" xMax="243" yMax="908">
      <contour>
        <pt x="123" y="732" on="1"/>
        <pt x="93" y="751" on="1"/>
        <pt x="195" y="908" on="1"/>
        <pt x="243" y="877" on="1"/>
      </contour>
    </TTGlyph>
    <TTGlyph name="acute.loclPLK" xMin="93" yMin="578" xMax="244" yMax="763">
      <contour>
        <pt x="123" y="578" on="1"/>
        <pt x="93" y="597" on="1"/>
        <pt x="195" y="763" on="1"/>
        <pt x="244" y="731" on="1"/>
      </contour>
    </TTGlyph>
    <TTGlyph name="acute.sc" xMin="30" yMin="675" xMax="244" yMax="813">
      <contour>
        <pt x="49" y="675" on="1"/>
        <pt x="30" y="709" on="1"/>
        <pt x="218" y="813" on="1"/>
        <pt x="244" y="760" on="1"/>
      </contour>
    </TTGlyph>
    <TTGlyph name="acute.sc.loclPLK" xMin="93" yMin="618" xMax="244" yMax="804">
      <contour>
        <pt x="123" y="618" on="1"/>
        <pt x="93" y="638" on="1"/>
        <pt x="195" y="804" on="1"/>
        <pt x="244" y="772" on="1"/>
      </contour>
    </TTGlyph>
    <TTGlyph name="acutecomb" xMin="39" yMin="632" xMax="253" yMax="762">
      <contour>
        <pt x="55" y="632" on="1"/>
        <pt x="39" y="666" on="1"/>
        <pt x="226" y="762" on="1"/>
        <pt x="253" y="710" on="1"/>
      </contour>
    </TTGlyph>
    <TTGlyph name="acutecombcomb" xMin="39" yMin="632" xMax="253" yMax="762">
      <component glyphName="acutecomb" x="0" y="0" flags="0x0"/>
    </TTGlyph>
    <TTGlyph name="adieresis" xMin="56" yMin="-11" xMax="475" yMax="742">
      <component glyphName="a" x="0" y="0" flags="0x0"/>
      <component glyphName="dieresis" x="93" y="0" flags="0x0"/>
    </TTGlyph>
    <TTGlyph name="adieresis.sc" xMin="16" yMin="0" xMax="481" yMax="772">
      <component glyphName="a.sc" x="0" y="0" flags="0x0"/>
      <component glyphName="dieresis.sc" x="84" y="0" flags="0x0"/>
    </TTGlyph>
    <TTGlyph name="ae" xMin="56" yMin="-11" xMax="788" yMax="534">
      <contour>
        <pt x="788" y="259" on="0"/>
        <pt x="786" y="239" on="1"/>
        <pt x="436" y="239" on="1"/>
        <pt x="442" y="137" on="0"/>
        <pt x="529" y="38" on="0"/>
        <pt x="599" y="38" on="1"/>
        <pt x="640" y="38" on="0"/>
        <pt x="704" y="63" on="0"/>
        <pt x="740" y="90" on="1"/>
        <pt x="768" y="53" on="1"/>
        <pt x="729" y="21" on="0"/>
        <pt x="646" y="-11" on="0"/>
        <pt x="596" y="-11" on="1"/>
        <pt x="533" y="-11" on="0"/>
        <pt x="438" y="44" on="0"/>
        <pt x="410" y="96" on="1"/>
        <pt x="370" y="39" on="0"/>
        <pt x="280" y="-11" on="0"/>
        <pt x="220" y="-11" on="1"/>
        <pt x="144" y="-11" on="0"/>
        <pt x="56" y="75" on="0"/>
        <pt x="56" y="145" on="1"/>
        <pt x="56" y="226" on="0"/>
        <pt x="173" y="315" on="0"/>
        <pt x="275" y="315" on="1"/>
        <pt x="375" y="315" on="1"/>
        <pt x="375" y="365" on="1"/>
        <pt x="375" y="428" on="0"/>
        <pt x="318" y="485" on="0"/>
        <pt x="254" y="485" on="1"/>
        <pt x="194" y="485" on="0"/>
        <pt x="112" y="455" on="1"/>
        <pt x="96" y="499" on="1"/>
        <pt x="184" y="534" on="0"/>
        <pt x="261" y="534" on="1"/>
        <pt x="327" y="534" on="0"/>
        <pt x="405" y="483" on="0"/>
        <pt x="421" y="433" on="1"/>
        <pt x="475" y="534" on="0"/>
        <pt x="587" y="534" on="1"/>
        <pt x="684" y="534" on="0"/>
        <pt x="788" y="399" on="0"/>
        <pt x="788" y="281" on="1"/>
      </contour>
      <contour>
        <pt x="730" y="299" on="1"/>
        <pt x="730" y="387" on="0"/>
        <pt x="658" y="486" on="0"/>
        <pt x="587" y="486" on="1"/>
        <pt x="522" y="486" on="0"/>
        <pt x="440" y="386" on="0"/>
        <pt x="436" y="284" on="1"/>
        <pt x="730" y="284" on="1"/>
      </contour>
      <contour>
        <pt x="278" y="36" on="0"/>
        <pt x="355" y="86" on="0"/>
        <pt x="391" y="141" on="1"/>
        <pt x="375" y="190" on="0"/>
        <pt x="375" y="256" on="1"/>
        <pt x="375" y="258" on="1"/>
        <pt x="375" y="272" on="1"/>
        <pt x="283" y="272" on="1"/>
        <pt x="204" y="272" on="0"/>
        <pt x="119" y="209" on="0"/>
        <pt x="119" y="148" on="1"/>
        <pt x="119" y="94" on="0"/>
        <pt x="177" y="36" on="0"/>
        <pt x="229" y="36" on="1"/>
      </contour>
    </TTGlyph>
    <TTGlyph name="ae.sc" xMin="0" yMin="0" xMax="644" yMax="562">
      <contour>
        <pt x="644" y="0" on="1"/>
        <pt x="399" y="0" on="1"/>
        <pt x="361" y="147" on="1"/>
        <pt x="118" y="147" on="1"/>
        <pt x="59" y="0" on="1"/>
        <pt x="0" y="0" on="1"/>
        <pt x="232" y="562" on="1"/>
        <pt x="602" y="562" on="1"/>
        <pt x="596" y="514" on="1"/>
        <pt x="322" y="514" on="1"/>
        <pt x="374" y="314" on="1"/>
        <pt x="596" y="314" on="1"/>
        <pt x="596" y="267" on="1"/>
        <pt x="386" y="267" on="1"/>
        <pt x="444" y="47" on="1"/>
        <pt x="644" y="47" on="1"/>
      </contour>
      <contour>
        <pt x="265" y="516" on="1"/>
        <pt x="137" y="195" on="1"/>
        <pt x="349" y="195" on="1"/>
      </contour>
    </TTGlyph>
    <TTGlyph name="aeacute" xMin="56" yMin="-11" xMax="788" yMax="782">
      <component glyphName="ae" x="0" y="0" flags="0x0"/>
      <component glyphName="acute" x="275" y="0" flags="0x0"/>
    </TTGlyph>
    <TTGlyph name="aeacute.sc" xMin="0" yMin="0" xMax="644" yMax="813">
      <component glyphName="ae.sc" x="0" y="0" flags="0x0"/>
      <component glyphName="acute.sc" x="255" y="0" flags="0x0"/>
    </TTGlyph>
    <TTGlyph name="agrave" xMin="56" yMin="-11" xMax="475" yMax="782">
      <component glyphName="a" x="0" y="0" flags="0x0"/>
      <component glyphName="grave" x="128" y="0" flags="0x0"/>
    </TTGlyph>
    <TTGlyph name="agrave.sc" xMin="16" yMin="0" xMax="481" yMax="813">
      <component glyphName="a.sc" x="0" y="0" flags="0x0"/>
      <component glyphName="grave.sc" x="114" y="0" flags="0x0"/>
    </TTGlyph>
    <TTGlyph name="alpha" xMin="65" yMin="-11" xMax="536" yMax="534">
      <contour>
        <pt x="304" y="534" on="0"/>
        <pt x="371" y="499" on="0"/>
        <pt x="416" y="415" on="0"/>
        <pt x="429" y="341" on="1"/>
        <pt x="467" y="523" on="1"/>
        <pt x="523" y="523" on="1"/>
        <pt x="464" y="262" on="1"/>
        <pt x="494" y="92" on="1"/>
        <pt x="498" y="70" on="0"/>
        <pt x="518" y="48" on="0"/>
        <pt x="536" y="41" on="1"/>
        <pt x="515" y="-8" on="1"/>
        <pt x="451" y="5" on="0"/>
        <pt x="441" y="71" on="1"/>
        <pt x="425" y="178" on="1"/>
        <pt x="403" y="84" on="0"/>
        <pt x="316" y="-11" on="0"/>
        <pt x="248" y="-11" on="1"/>
        <pt x="161" y="-11" on="0"/>
        <pt x="65" y="127" on="0"/>
        <pt x="65" y="261" on="1"/>
        <pt x="65" y="341" on="0"/>
        <pt x="110" y="465" on="0"/>
        <pt x="196" y="534" on="0"/>
        <pt x="255" y="534" on="1"/>
      </contour>
      <contour>
        <pt x="200" y="486" on="0"/>
        <pt x="126" y="368" on="0"/>
        <pt x="126" y="261" on="1"/>
        <pt x="126" y="147" on="0"/>
        <pt x="192" y="37" on="0"/>
        <pt x="254" y="37" on="1"/>
        <pt x="307" y="37" on="0"/>
        <pt x="388" y="139" on="0"/>
        <pt x="412" y="268" on="1"/>
        <pt x="396" y="353" on="0"/>
        <pt x="354" y="448" on="0"/>
        <pt x="299" y="486" on="0"/>
        <pt x="259" y="486" on="1"/>
      </contour>
    </TTGlyph>
    <TTGlyph name="alpha.sc" xMin="16" yMin="0" xMax="481" yMax="562">
      <contour>
        <pt x="126" y="150" on="1"/>
        <pt x="75" y="0" on="1"/>
        <pt x="16" y="0" on="1"/>
        <pt x="214" y="562" on="1"/>
        <pt x="285" y="562" on="1"/>
        <pt x="481" y="0" on="1"/>
        <pt x="420" y="0" on="1"/>
        <pt x="370" y="150" on="1"/>
      </contour>
      <contour>
        <pt x="248" y="514" on="1"/>
        <pt x="142" y="198" on="1"/>
        <pt x="354" y="198" on="1"/>
      </contour>
    </TTGlyph>
    <TTGlyph name="alphatonos" xMin="65" yMin="-11" xMax="536" yMax="774">
      <component glyphName="alpha" x="0" y="0" flags="0x0"/>
      <component glyphName="tonos" x="229" y="0" flags="0x0"/>
    </TTGlyph>
    <TTGlyph name="alphatonos.sc" xMin="16" yMin="0" xMax="481" yMax="562">
      <component glyphName="a.sc" x="0" y="0" flags="0x0"/>
    </TTGlyph>
    <TTGlyph name="amacron" xMin="56" yMin="-11" xMax="475" yMax="723">
      <component glyphName="a" x="0" y="0" flags="0x0"/>
      <component glyphName="macron" x="107" y="0" flags="0x0"/>
    </TTGlyph>
    <TTGlyph name="amacron.sc" xMin="16" yMin="0" xMax="481" yMax="753">
      <component glyphName="a.sc" x="0" y="0" flags="0x0"/>
      <component glyphName="macron.sc" x="98" y="0" flags="0x0"/>
    </TTGlyph>
    <TTGlyph name="ampersand" xMin="90" yMin="-11" xMax="679" yMax="696">
      <contour>
        <pt x="374" y="696" on="0"/>
        <pt x="467" y="613" on="0"/>
        <pt x="467" y="548" on="1"/>
        <pt x="467" y="491" on="0"/>
        <pt x="392" y="407" on="0"/>
        <pt x="314" y="364" on="1"/>
        <pt x="519" y="172" on="1"/>
        <pt x="563" y="262" on="0"/>
        <pt x="585" y="362" on="1"/>
        <pt x="640" y="346" on="1"/>
        <pt x="608" y="226" on="0"/>
        <pt x="555" y="137" on="1"/>
        <pt x="679" y="23" on="1"/>
        <pt x="636" y="-11" on="1"/>
        <pt x="524" y="94" on="1"/>
        <pt x="481" y="43" on="0"/>
        <pt x="374" y="-11" on="0"/>
        <pt x="300" y="-11" on="1"/>
        <pt x="241" y="-11" on="0"/>
        <pt x="145" y="34" on="0"/>
        <pt x="90" y="117" on="0"/>
        <pt x="90" y="171" on="1"/>
        <pt x="90" y="235" on="0"/>
        <pt x="162" y="328" on="0"/>
        <pt x="234" y="370" on="1"/>
        <pt x="179" y="422" on="0"/>
        <pt x="133" y="495" on="0"/>
        <pt x="133" y="544" on="1"/>
        <pt x="133" y="610" on="0"/>
        <pt x="225" y="696" on="0"/>
        <pt x="301" y="696" on="1"/>
      </contour>
      <contour>
        <pt x="251" y="651" on="0"/>
        <pt x="191" y="590" on="0"/>
        <pt x="191" y="545" on="1"/>
        <pt x="191" y="507" on="0"/>
        <pt x="228" y="446" on="0"/>
        <pt x="280" y="396" on="1"/>
        <pt x="347" y="433" on="0"/>
        <pt x="410" y="502" on="0"/>
        <pt x="410" y="546" on="1"/>
        <pt x="410" y="595" on="0"/>
        <pt x="349" y="651" on="0"/>
        <pt x="301" y="651" on="1"/>
      </contour>
      <contour>
        <pt x="209" y="302" on="0"/>
        <pt x="150" y="223" on="0"/>
        <pt x="150" y="173" on="1"/>
        <pt x="150" y="112" on="0"/>
        <pt x="237" y="37" on="0"/>
        <pt x="305" y="37" on="1"/>
        <pt x="365" y="37" on="0"/>
        <pt x="451" y="82" on="0"/>
        <pt x="488" y="127" on="1"/>
        <pt x="269" y="338" on="1"/>
      </contour>
    </TTGlyph>
    <TTGlyph name="aogonek" xMin="56" yMin="-229" xMax="475" yMax="534">
      <contour>
        <pt x="396" y="-41" on="0"/>
        <pt x="341" y="-94" on="0"/>
        <pt x="341" y="-129" on="1"/>
        <pt x="341" y="-154" on="0"/>
        <pt x="373" y="-181" on="0"/>
        <pt x="405" y="-181" on="1"/>
        <pt x="430" y="-181" on="0"/>
        <pt x="461" y="-174" on="1"/>
        <pt x="456" y="-223" on="1"/>
        <pt x="426" y="-229" on="0"/>
        <pt x="398" y="-229" on="1"/>
        <pt x="345" y="-229" on="0"/>
        <pt x="286" y="-177" on="0"/>
        <pt x="286" y="-137" on="1"/>
        <pt x="286" y="-92" on="0"/>
        <pt x="353" y="-24" on="0"/>
        <pt x="423" y="4" on="1"/>
        <pt x="388" y="24" on="0"/>
        <pt x="381" y="76" on="1"/>
        <pt x="324" y="-11" on="0"/>
        <pt x="218" y="-11" on="1"/>
        <pt x="143" y="-11" on="0"/>
        <pt x="56" y="74" on="0"/>
        <pt x="56" y="145" on="1"/>
        <pt x="56" y="227" on="0"/>
        <pt x="171" y="315" on="0"/>
        <pt x="273" y="315" on="1"/>
        <pt x="373" y="315" on="1"/>
        <pt x="373" y="365" on="1"/>
        <pt x="373" y="428" on="0"/>
        <pt x="317" y="485" on="0"/>
        <pt x="252" y="485" on="1"/>
        <pt x="192" y="485" on="0"/>
        <pt x="110" y="455" on="1"/>
        <pt x="95" y="499" on="1"/>
        <pt x="183" y="534" on="0"/>
        <pt x="260" y="534" on="1"/>
        <pt x="431" y="534" on="0"/>
        <pt x="431" y="368" on="1"/>
        <pt x="431" y="116" on="1"/>
        <pt x="431" y="75" on="0"/>
        <pt x="452" y="39" on="0"/>
        <pt x="475" y="30" on="1"/>
        <pt x="462" y="-10" on="1"/>
        <pt x="463" y="-11" on="1"/>
      </contour>
      <contour>
        <pt x="324" y="36" on="0"/>
        <pt x="373" y="130" on="1"/>
        <pt x="373" y="272" on="1"/>
        <pt x="282" y="272" on="1"/>
        <pt x="202" y="272" on="0"/>
        <pt x="118" y="210" on="0"/>
        <pt x="118" y="148" on="1"/>
        <pt x="118" y="94" on="0"/>
        <pt x="176" y="36" on="0"/>
        <pt x="228" y="36" on="1"/>
      </contour>
    </TTGlyph>
    <TTGlyph name="aogonek.sc" xMin="16" yMin="-217" xMax="481" yMax="562">
      <contour>
        <pt x="402" y="-29" on="0"/>
        <pt x="346" y="-83" on="0"/>
        <pt x="346" y="-118" on="1"/>
        <pt x="346" y="-142" on="0"/>
        <pt x="378" y="-169" on="0"/>
        <pt x="410" y="-169" on="1"/>
        <pt x="434" y="-169" on="0"/>
        <pt x="467" y="-163" on="1"/>
        <pt x="461" y="-211" on="1"/>
        <pt x="431" y="-217" on="0"/>
        <pt x="403" y="-217" on="1"/>
        <pt x="350" y="-217" on="0"/>
        <pt x="292" y="-166" on="0"/>
        <pt x="292" y="-126" on="1"/>
        <pt x="292" y="-82" on="0"/>
        <pt x="353" y="-17" on="0"/>
        <pt x="417" y="10" on="1"/>
        <pt x="370" y="150" on="1"/>
        <pt x="126" y="150" on="1"/>
        <pt x="75" y="0" on="1"/>
        <pt x="16" y="0" on="1"/>
        <pt x="214" y="562" on="1"/>
        <pt x="285" y="562" on="1"/>
        <pt x="481" y="0" on="1"/>
        <pt x="468" y="0" on="1"/>
      </contour>
      <contour>
        <pt x="248" y="514" on="1"/>
        <pt x="142" y="198" on="1"/>
        <pt x="354" y="198" on="1"/>
      </contour>
    </TTGlyph>
    <TTGlyph name="approxequal" xMin="51" yMin="184" xMax="420" yMax="460">
      <component glyphName="asciitilde" x="0" y="-79" flags="0x0"/>
      <component glyphName="asciitilde" x="0" y="89" flags="0x0"/>
    </TTGlyph>
    <TTGlyph name="approxequal.osf" xMin="51" yMin="185" xMax="420" yMax="461">
      <component glyphName="asciitilde" x="0" y="89" flags="0x0"/>
      <component glyphName="asciitilde" x="0" y="-79" flags="0x0"/>
    </TTGlyph>
    <TTGlyph name="approxequal.tf" xMin="95" yMin="185" xMax="464" yMax="461">
      <component glyphName="asciitilde" x="44" y="89" flags="0x0"/>
      <component glyphName="asciitilde" x="44" y="-79" flags="0x0"/>
    </TTGlyph>
    <TTGlyph name="approxequal.tosf" xMin="95" yMin="185" xMax="464" yMax="461">
      <component glyphName="asciitilde" x="44" y="89" flags="0x0"/>
      <component glyphName="asciitilde" x="44" y="-79" flags="0x0"/>
    </TTGlyph>
    <TTGlyph name="aring" xMin="56" yMin="-11" xMax="475" yMax="821">
      <component glyphName="a" x="0" y="0" flags="0x0"/>
      <component glyphName="ring" x="129" y="0" flags="0x0"/>
    </TTGlyph>
    <TTGlyph name="aring.sc" xMin="16" yMin="0" xMax="481" yMax="851">
      <component glyphName="a.sc" x="0" y="0" flags="0x0"/>
      <component glyphName="ring.sc" x="120" y="0" flags="0x0"/>
    </TTGlyph>
    <TTGlyph name="arrowdown" xMin="151" yMin="-25" xMax="749" yMax="623">
      <contour>
        <pt x="498" y="91" on="0"/>
        <pt x="547" y="133" on="1"/>
        <pt x="712" y="281" on="1"/>
        <pt x="749" y="242" on="1"/>
        <pt x="450" y="-25" on="1"/>
        <pt x="151" y="242" on="1"/>
        <pt x="188" y="281" on="1"/>
        <pt x="353" y="133" on="1"/>
        <pt x="402" y="91" on="0"/>
        <pt x="421" y="59" on="1"/>
        <pt x="421" y="623" on="1"/>
        <pt x="479" y="623" on="1"/>
        <pt x="479" y="59" on="1"/>
      </contour>
    </TTGlyph>
    <TTGlyph name="arrowdownwhite" xMin="60" yMin="-94" xMax="660" yMax="750">
      <contour>
        <pt x="464" y="750" on="0"/>
        <pt x="491" y="723" on="0"/>
        <pt x="491" y="700" on="1"/>
        <pt x="491" y="204" on="1"/>
        <pt x="660" y="204" on="1"/>
        <pt x="360" y="-94" on="1"/>
        <pt x="60" y="204" on="1"/>
        <pt x="229" y="204" on="1"/>
        <pt x="229" y="700" on="1"/>
        <pt x="229" y="723" on="0"/>
        <pt x="257" y="750" on="0"/>
        <pt x="279" y="750" on="1"/>
        <pt x="441" y="750" on="1"/>
      </contour>
      <contour>
        <pt x="169" y="159" on="1"/>
        <pt x="360" y="-30" on="1"/>
        <pt x="551" y="159" on="1"/>
        <pt x="444" y="159" on="1"/>
        <pt x="444" y="706" on="1"/>
        <pt x="276" y="706" on="1"/>
        <pt x="276" y="159" on="1"/>
      </contour>
    </TTGlyph>
    <TTGlyph name="arrowleft" xMin="137" yMin="42" xMax="758" yMax="616">
      <contour>
        <pt x="297" y="424" on="1"/>
        <pt x="257" y="378" on="0"/>
        <pt x="223" y="355" on="1"/>
        <pt x="758" y="355" on="1"/>
        <pt x="758" y="303" on="1"/>
        <pt x="223" y="303" on="1"/>
        <pt x="259" y="278" on="0"/>
        <pt x="297" y="234" on="1"/>
        <pt x="436" y="79" on="1"/>
        <pt x="394" y="42" on="1"/>
        <pt x="137" y="329" on="1"/>
        <pt x="394" y="616" on="1"/>
        <pt x="436" y="579" on="1"/>
      </contour>
    </TTGlyph>
    <TTGlyph name="arrowleftwhite" xMin="40" yMin="13" xMax="920" yMax="613">
      <contour>
        <pt x="920" y="217" on="0"/>
        <pt x="893" y="189" on="0"/>
        <pt x="870" y="189" on="1"/>
        <pt x="338" y="189" on="1"/>
        <pt x="338" y="13" on="1"/>
        <pt x="40" y="313" on="1"/>
        <pt x="338" y="613" on="1"/>
        <pt x="338" y="437" on="1"/>
        <pt x="870" y="437" on="1"/>
        <pt x="893" y="437" on="0"/>
        <pt x="920" y="410" on="0"/>
        <pt x="920" y="387" on="1"/>
        <pt x="920" y="239" on="1"/>
      </contour>
      <contour>
        <pt x="293" y="504" on="1"/>
        <pt x="104" y="313" on="1"/>
        <pt x="293" y="122" on="1"/>
        <pt x="293" y="233" on="1"/>
        <pt x="876" y="233" on="1"/>
        <pt x="876" y="393" on="1"/>
        <pt x="293" y="393" on="1"/>
      </contour>
    </TTGlyph>
    <TTGlyph name="arrowright" xMin="142" yMin="42" xMax="763" yMax="616">
      <component glyphName="arrowleft" x="900" y="0" scalex="-1.0" scaley="1.0" flags="0x0"/>
    </TTGlyph>
    <TTGlyph name="arrowrightwhite" xMin="40" yMin="13" xMax="920" yMax="613">
      <component glyphName="arrowleftwhite" x="960" y="0" scalex="-1.0" scaley="1.0" flags="0x0"/>
    </TTGlyph>
    <TTGlyph name="arrowup" xMin="151" yMin="0" xMax="749" yMax="648">
      <component glyphName="arrowdown" x="900" y="622" scale="-1.0" flags="0x0"/>
    </TTGlyph>
    <TTGlyph name="arrowupdn" xMin="151" yMin="-172" xMax="749" yMax="852">
      <contour>
        <pt x="712" y="546" on="1"/>
        <pt x="547" y="694" on="1"/>
        <pt x="498" y="736" on="0"/>
        <pt x="479" y="768" on="1"/>
        <pt x="479" y="-88" on="1"/>
        <pt x="500" y="-55" on="0"/>
        <pt x="547" y="-14" on="1"/>
        <pt x="712" y="133" on="1"/>
        <pt x="749" y="94" on="1"/>
        <pt x="450" y="-172" on="1"/>
        <pt x="151" y="94" on="1"/>
        <pt x="188" y="133" on="1"/>
        <pt x="353" y="-14" on="1"/>
        <pt x="400" y="-55" on="0"/>
        <pt x="421" y="-88" on="1"/>
        <pt x="421" y="768" on="1"/>
        <pt x="402" y="736" on="0"/>
        <pt x="353" y="694" on="1"/>
        <pt x="188" y="546" on="1"/>
        <pt x="151" y="585" on="1"/>
        <pt x="450" y="852" on="1"/>
        <pt x="749" y="585" on="1"/>
      </contour>
    </TTGlyph>
    <TTGlyph name="arrowupwhite" xMin="60" yMin="-12" xMax="660" yMax="832">
      <contour>
        <pt x="257" y="-12" on="0"/>
        <pt x="229" y="16" on="0"/>
        <pt x="229" y="38" on="1"/>
        <pt x="229" y="534" on="1"/>
        <pt x="60" y="534" on="1"/>
        <pt x="360" y="832" on="1"/>
        <pt x="660" y="534" on="1"/>
        <pt x="491" y="534" on="1"/>
        <pt x="491" y="38" on="1"/>
        <pt x="491" y="16" on="0"/>
        <pt x="464" y="-12" on="0"/>
        <pt x="441" y="-12" on="1"/>
        <pt x="279" y="-12" on="1"/>
      </contour>
      <contour>
        <pt x="551" y="579" on="1"/>
        <pt x="360" y="768" on="1"/>
        <pt x="169" y="579" on="1"/>
        <pt x="276" y="579" on="1"/>
        <pt x="276" y="32" on="1"/>
        <pt x="444" y="32" on="1"/>
        <pt x="444" y="579" on="1"/>
      </contour>
    </TTGlyph>
    <TTGlyph name="asciicircum" xMin="56" yMin="527" xMax="474" yMax="832">
      <contour>
        <pt x="409" y="527" on="1"/>
        <pt x="265" y="775" on="1"/>
        <pt x="122" y="527" on="1"/>
        <pt x="56" y="527" on="1"/>
        <pt x="241" y="832" on="1"/>
        <pt x="290" y="832" on="1"/>
        <pt x="474" y="527" on="1"/>
      </contour>
    </TTGlyph>
    <TTGlyph name="asciitilde" xMin="51" yMin="264" xMax="420" yMax="371">
      <contour>
        <pt x="187" y="371" on="0"/>
        <pt x="228" y="354" on="0"/>
        <pt x="254" y="338" on="1"/>
        <pt x="274" y="326" on="0"/>
        <pt x="302" y="313" on="0"/>
        <pt x="315" y="313" on="1"/>
        <pt x="337" y="313" on="0"/>
        <pt x="365" y="334" on="0"/>
        <pt x="382" y="358" on="1"/>
        <pt x="420" y="337" on="1"/>
        <pt x="399" y="303" on="0"/>
        <pt x="350" y="264" on="0"/>
        <pt x="312" y="264" on="1"/>
        <pt x="288" y="264" on="0"/>
        <pt x="249" y="281" on="0"/>
        <pt x="220" y="298" on="1"/>
        <pt x="198" y="310" on="0"/>
        <pt x="172" y="322" on="0"/>
        <pt x="159" y="322" on="1"/>
        <pt x="136" y="322" on="0"/>
        <pt x="108" y="299" on="0"/>
        <pt x="90" y="274" on="1"/>
        <pt x="51" y="295" on="1"/>
        <pt x="73" y="331" on="0"/>
        <pt x="124" y="371" on="0"/>
        <pt x="162" y="371" on="1"/>
      </contour>
    </TTGlyph>
    <TTGlyph name="asciitilde.osf" xMin="51" yMin="264" xMax="420" yMax="371">
      <component glyphName="asciitilde" x="0" y="0" flags="0x0"/>
    </TTGlyph>
    <TTGlyph name="asciitilde.tf" xMin="95" yMin="264" xMax="464" yMax="371">
      <component glyphName="asciitilde" x="44" y="0" flags="0x0"/>
    </TTGlyph>
    <TTGlyph name="asciitilde.tosf" xMin="95" yMin="264" xMax="464" yMax="371">
      <component glyphName="asciitilde" x="44" y="0" flags="0x0"/>
    </TTGlyph>
    <TTGlyph name="asterisk" xMin="34" yMin="386" xMax="402" yMax="736">
      <contour>
        <pt x="349" y="420" on="1"/>
        <pt x="303" y="386" on="1"/>
        <pt x="218" y="518" on="1"/>
        <pt x="133" y="386" on="1"/>
        <pt x="87" y="419" on="1"/>
        <pt x="186" y="541" on="1"/>
        <pt x="34" y="582" on="1"/>
        <pt x="51" y="634" on="1"/>
        <pt x="197" y="577" on="1"/>
        <pt x="189" y="736" on="1"/>
        <pt x="246" y="736" on="1"/>
        <pt x="239" y="577" on="1"/>
        <pt x="384" y="634" on="1"/>
        <pt x="402" y="582" on="1"/>
        <pt x="250" y="542" on="1"/>
      </contour>
    </TTGlyph>
    <TTGlyph name="at" xMin="85" yMin="-205" xMax="935" yMax="696">
      <contour>
        <pt x="656" y="696" on="0"/>
        <pt x="841" y="590" on="0"/>
        <pt x="935" y="414" on="0"/>
        <pt x="935" y="308" on="1"/>
        <pt x="935" y="164" on="0"/>
        <pt x="835" y="12" on="0"/>
        <pt x="754" y="12" on="1"/>
        <pt x="704" y="12" on="0"/>
        <pt x="642" y="74" on="0"/>
        <pt x="632" y="121" on="1"/>
        <pt x="610" y="71" on="0"/>
        <pt x="537" y="14" on="0"/>
        <pt x="484" y="14" on="1"/>
        <pt x="436" y="14" on="0"/>
        <pt x="359" y="66" on="0"/>
        <pt x="316" y="164" on="0"/>
        <pt x="316" y="232" on="1"/>
        <pt x="316" y="315" on="0"/>
        <pt x="371" y="428" on="0"/>
        <pt x="465" y="484" on="0"/>
        <pt x="525" y="484" on="1"/>
        <pt x="600" y="484" on="0"/>
        <pt x="670" y="448" on="1"/>
        <pt x="670" y="190" on="1"/>
        <pt x="670" y="59" on="0"/>
        <pt x="753" y="59" on="1"/>
        <pt x="809" y="59" on="0"/>
        <pt x="876" y="175" on="0"/>
        <pt x="876" y="306" on="1"/>
        <pt x="876" y="404" on="0"/>
        <pt x="795" y="558" on="0"/>
        <pt x="637" y="646" on="0"/>
        <pt x="526" y="646" on="1"/>
        <pt x="413" y="646" on="0"/>
        <pt x="239" y="538" on="0"/>
        <pt x="144" y="354" on="0"/>
        <pt x="144" y="242" on="1"/>
        <pt x="144" y="122" on="0"/>
        <pt x="237" y="-58" on="0"/>
        <pt x="410" y="-156" on="0"/>
        <pt x="525" y="-156" on="1"/>
        <pt x="622" y="-156" on="0"/>
        <pt x="714" y="-122" on="1"/>
        <pt x="730" y="-169" on="1"/>
        <pt x="678" y="-187" on="0"/>
        <pt x="586" y="-205" on="0"/>
        <pt x="524" y="-205" on="1"/>
        <pt x="396" y="-205" on="0"/>
        <pt x="197" y="-97" on="0"/>
        <pt x="85" y="106" on="0"/>
        <pt x="85" y="242" on="1"/>
        <pt x="85" y="367" on="0"/>
        <pt x="196" y="575" on="0"/>
        <pt x="397" y="696" on="0"/>
        <pt x="526" y="696" on="1"/>
      </contour>
      <contour>
        <pt x="538" y="60" on="0"/>
        <pt x="603" y="124" on="0"/>
        <pt x="616" y="166" on="1"/>
        <pt x="616" y="419" on="1"/>
        <pt x="574" y="439" on="0"/>
        <pt x="527" y="439" on="1"/>
        <pt x="454" y="439" on="0"/>
        <pt x="374" y="331" on="0"/>
        <pt x="374" y="232" on="1"/>
        <pt x="374" y="148" on="0"/>
        <pt x="436" y="60" on="0"/>
        <pt x="490" y="60" on="1"/>
      </contour>
    </TTGlyph>
    <TTGlyph name="atilde" xMin="56" yMin="-11" xMax="475" yMax="758">
      <component glyphName="a" x="0" y="0" flags="0x0"/>
      <component glyphName="tilde" x="77" y="0" flags="0x0"/>
    </TTGlyph>
    <TTGlyph name="atilde.sc" xMin="16" yMin="0" xMax="481" yMax="788">
      <component glyphName="a.sc" x="0" y="0" flags="0x0"/>
      <component glyphName="tilde.sc" x="68" y="0" flags="0x0"/>
    </TTGlyph>
    <TTGlyph name="b" xMin="106" yMin="-11" xMax="512" yMax="743">
      <contour>
        <pt x="412" y="534" on="0"/>
        <pt x="512" y="394" on="0"/>
        <pt x="512" y="264" on="1"/>
        <pt x="512" y="137" on="0"/>
        <pt x="407" y="-11" on="0"/>
        <pt x="313" y="-11" on="1"/>
        <pt x="266" y="-11" on="0"/>
        <pt x="189" y="31" on="0"/>
        <pt x="162" y="66" on="1"/>
        <pt x="157" y="0" on="1"/>
        <pt x="106" y="0" on="1"/>
        <pt x="106" y="736" on="1"/>
        <pt x="164" y="743" on="1"/>
        <pt x="164" y="450" on="1"/>
        <pt x="225" y="534" on="0"/>
        <pt x="321" y="534" on="1"/>
      </contour>
      <contour>
        <pt x="373" y="37" on="0"/>
        <pt x="450" y="152" on="0"/>
        <pt x="450" y="264" on="1"/>
        <pt x="450" y="486" on="0"/>
        <pt x="309" y="486" on="1"/>
        <pt x="263" y="486" on="0"/>
        <pt x="195" y="439" on="0"/>
        <pt x="164" y="396" on="1"/>
        <pt x="164" y="120" on="1"/>
        <pt x="189" y="81" on="0"/>
        <pt x="259" y="37" on="0"/>
        <pt x="302" y="37" on="1"/>
      </contour>
    </TTGlyph>
    <TTGlyph name="b.sc" xMin="111" yMin="0" xMax="492" yMax="562">
      <contour>
        <pt x="415" y="291" on="0"/>
        <pt x="492" y="223" on="0"/>
        <pt x="492" y="157" on="1"/>
        <pt x="492" y="79" on="0"/>
        <pt x="378" y="0" on="0"/>
        <pt x="277" y="0" on="1"/>
        <pt x="111" y="0" on="1"/>
        <pt x="111" y="562" on="1"/>
        <pt x="245" y="562" on="1"/>
        <pt x="351" y="562" on="0"/>
        <pt x="464" y="492" on="0"/>
        <pt x="464" y="421" on="1"/>
        <pt x="464" y="370" on="0"/>
        <pt x="405" y="308" on="0"/>
        <pt x="357" y="298" on="1"/>
      </contour>
      <contour>
        <pt x="169" y="318" on="1"/>
        <pt x="285" y="318" on="1"/>
        <pt x="339" y="318" on="0"/>
        <pt x="405" y="370" on="0"/>
        <pt x="405" y="417" on="1"/>
        <pt x="405" y="469" on="0"/>
        <pt x="328" y="515" on="0"/>
        <pt x="252" y="515" on="1"/>
        <pt x="169" y="515" on="1"/>
      </contour>
      <contour>
        <pt x="350" y="47" on="0"/>
        <pt x="431" y="100" on="0"/>
        <pt x="431" y="157" on="1"/>
        <pt x="431" y="216" on="0"/>
        <pt x="354" y="273" on="0"/>
        <pt x="291" y="273" on="1"/>
        <pt x="169" y="273" on="1"/>
        <pt x="169" y="47" on="1"/>
        <pt x="277" y="47" on="1"/>
      </contour>
    </TTGlyph>
    <TTGlyph name="backslash" xMin="119" yMin="-100" xMax="401" yMax="803">
      <contour>
        <pt x="350" y="-100" on="1"/>
        <pt x="119" y="791" on="1"/>
        <pt x="169" y="803" on="1"/>
        <pt x="401" y="-87" on="1"/>
      </contour>
    </TTGlyph>
    <TTGlyph name="bar" xMin="176" yMin="-100" xMax="230" yMax="804">
      <contour>
        <pt x="176" y="-100" on="1"/>
        <pt x="176" y="804" on="1"/>
        <pt x="230" y="804" on="1"/>
        <pt x="230" y="-100" on="1"/>
      </contour>
    </TTGlyph>
    <TTGlyph name="beta" xMin="106" yMin="-206" xMax="538" yMax="743">
      <contour>
        <pt x="419" y="397" on="0"/>
        <pt x="538" y="299" on="0"/>
        <pt x="538" y="202" on="1"/>
        <pt x="538" y="138" on="0"/>
        <pt x="481" y="41" on="0"/>
        <pt x="385" y="-11" on="0"/>
        <pt x="328" y="-11" on="1"/>
        <pt x="233" y="-11" on="0"/>
        <pt x="165" y="54" on="1"/>
        <pt x="165" y="-197" on="1"/>
        <pt x="106" y="-206" on="1"/>
        <pt x="106" y="541" on="1"/>
        <pt x="106" y="636" on="0"/>
        <pt x="211" y="743" on="0"/>
        <pt x="298" y="743" on="1"/>
        <pt x="348" y="743" on="0"/>
        <pt x="435" y="703" on="0"/>
        <pt x="487" y="625" on="0"/>
        <pt x="487" y="570" on="1"/>
        <pt x="487" y="494" on="0"/>
        <pt x="403" y="410" on="0"/>
        <pt x="329" y="401" on="1"/>
      </contour>
      <contour>
        <pt x="389" y="38" on="0"/>
        <pt x="478" y="126" on="0"/>
        <pt x="478" y="200" on="1"/>
        <pt x="478" y="285" on="0"/>
        <pt x="371" y="375" on="0"/>
        <pt x="275" y="375" on="1"/>
        <pt x="227" y="375" on="1"/>
        <pt x="234" y="421" on="1"/>
        <pt x="279" y="421" on="1"/>
        <pt x="339" y="421" on="0"/>
        <pt x="430" y="488" on="0"/>
        <pt x="431" y="565" on="1"/>
        <pt x="430" y="632" on="0"/>
        <pt x="355" y="696" on="0"/>
        <pt x="298" y="696" on="1"/>
        <pt x="236" y="696" on="0"/>
        <pt x="165" y="618" on="0"/>
        <pt x="165" y="540" on="1"/>
        <pt x="165" y="106" on="1"/>
        <pt x="199" y="69" on="0"/>
        <pt x="270" y="38" on="0"/>
        <pt x="322" y="38" on="1"/>
      </contour>
    </TTGlyph>
    <TTGlyph name="beta.sc" xMin="111" yMin="0" xMax="492" yMax="562">
      <component glyphName="b.sc" x="0" y="0" flags="0x0"/>
    </TTGlyph>
    <TTGlyph name="braceleft" xMin="44" yMin="-129" xMax="262" yMax="828">
      <contour>
        <pt x="215" y="784" on="0"/>
        <pt x="174" y="747" on="0"/>
        <pt x="174" y="705" on="1"/>
        <pt x="174" y="451" on="1"/>
        <pt x="174" y="402" on="0"/>
        <pt x="139" y="359" on="0"/>
        <pt x="99" y="349" on="1"/>
        <pt x="139" y="338" on="0"/>
        <pt x="174" y="297" on="0"/>
        <pt x="174" y="247" on="1"/>
        <pt x="174" y="-6" on="1"/>
        <pt x="174" y="-48" on="0"/>
        <pt x="215" y="-85" on="0"/>
        <pt x="262" y="-85" on="1"/>
        <pt x="262" y="-129" on="1"/>
        <pt x="188" y="-129" on="0"/>
        <pt x="120" y="-70" on="0"/>
        <pt x="120" y="-4" on="1"/>
        <pt x="120" y="251" on="1"/>
        <pt x="120" y="290" on="0"/>
        <pt x="83" y="324" on="0"/>
        <pt x="44" y="324" on="1"/>
        <pt x="44" y="374" on="1"/>
        <pt x="83" y="374" on="0"/>
        <pt x="120" y="408" on="0"/>
        <pt x="120" y="448" on="1"/>
        <pt x="120" y="703" on="1"/>
        <pt x="120" y="769" on="0"/>
        <pt x="188" y="828" on="0"/>
        <pt x="262" y="828" on="1"/>
        <pt x="262" y="784" on="1"/>
      </contour>
    </TTGlyph>
    <TTGlyph name="braceleft.case" xMin="44" yMin="-139" xMax="262" yMax="818">
      <component glyphName="braceleft" x="0" y="-10" flags="0x0"/>
    </TTGlyph>
    <TTGlyph name="braceright" xMin="64" yMin="-129" xMax="282" yMax="828">
      <contour>
        <pt x="137" y="828" on="0"/>
        <pt x="206" y="769" on="0"/>
        <pt x="206" y="703" on="1"/>
        <pt x="206" y="448" on="1"/>
        <pt x="206" y="408" on="0"/>
        <pt x="243" y="374" on="0"/>
        <pt x="282" y="374" on="1"/>
        <pt x="282" y="324" on="1"/>
        <pt x="243" y="324" on="0"/>
        <pt x="206" y="290" on="0"/>
        <pt x="206" y="251" on="1"/>
        <pt x="206" y="-4" on="1"/>
        <pt x="206" y="-70" on="0"/>
        <pt x="137" y="-129" on="0"/>
        <pt x="64" y="-129" on="1"/>
        <pt x="64" y="-85" on="1"/>
        <pt x="111" y="-85" on="0"/>
        <pt x="152" y="-48" on="0"/>
        <pt x="152" y="-6" on="1"/>
        <pt x="152" y="247" on="1"/>
        <pt x="152" y="297" on="0"/>
        <pt x="187" y="338" on="0"/>
        <pt x="227" y="349" on="1"/>
        <pt x="187" y="359" on="0"/>
        <pt x="152" y="402" on="0"/>
        <pt x="152" y="451" on="1"/>
        <pt x="152" y="705" on="1"/>
        <pt x="152" y="747" on="0"/>
        <pt x="111" y="784" on="0"/>
        <pt x="64" y="784" on="1"/>
        <pt x="64" y="828" on="1"/>
      </contour>
    </TTGlyph>
    <TTGlyph name="braceright.case" xMin="64" yMin="-139" xMax="282" yMax="818">
      <component glyphName="braceright" x="0" y="-10" flags="0x0"/>
    </TTGlyph>
    <TTGlyph name="bracketleft" xMin="84" yMin="-112" xMax="251" yMax="807">
      <contour>
        <pt x="138" y="759" on="1"/>
        <pt x="138" y="-65" on="1"/>
        <pt x="251" y="-65" on="1"/>
        <pt x="251" y="-112" on="1"/>
        <pt x="84" y="-112" on="1"/>
        <pt x="84" y="807" on="1"/>
        <pt x="251" y="807" on="1"/>
        <pt x="251" y="759" on="1"/>
      </contour>
    </TTGlyph>
    <TTGlyph name="bracketleft.case" xMin="84" yMin="-122" xMax="251" yMax="797">
      <component glyphName="bracketleft" x="0" y="-10" flags="0x0"/>
    </TTGlyph>
    <TTGlyph name="bracketright" xMin="66" yMin="-112" xMax="233" yMax="807">
      <contour>
        <pt x="66" y="-112" on="1"/>
        <pt x="66" y="-65" on="1"/>
        <pt x="179" y="-65" on="1"/>
        <pt x="179" y="759" on="1"/>
        <pt x="66" y="759" on="1"/>
        <pt x="66" y="807" on="1"/>
        <pt x="233" y="807" on="1"/>
        <pt x="233" y="-112" on="1"/>
      </contour>
    </TTGlyph>
    <TTGlyph name="bracketright.case" xMin="66" yMin="-122" xMax="233" yMax="797">
      <component glyphName="bracketright" x="0" y="-10" flags="0x0"/>
    </TTGlyph>
    <TTGlyph name="breve" xMin="30" yMin="653" xMax="291" yMax="772">
      <contour>
        <pt x="108" y="653" on="0"/>
        <pt x="37" y="713" on="0"/>
        <pt x="30" y="763" on="1"/>
        <pt x="70" y="772" on="1"/>
        <pt x="90" y="700" on="0"/>
        <pt x="160" y="700" on="1"/>
        <pt x="231" y="700" on="0"/>
        <pt x="251" y="772" on="1"/>
        <pt x="291" y="763" on="1"/>
        <pt x="284" y="713" on="0"/>
        <pt x="212" y="653" on="0"/>
        <pt x="160" y="653" on="1"/>
      </contour>
    </TTGlyph>
    <TTGlyph name="breve.case" xMin="30" yMin="765" xMax="291" yMax="874">
      <contour>
        <pt x="109" y="765" on="0"/>
        <pt x="37" y="822" on="0"/>
        <pt x="30" y="865" on="1"/>
        <pt x="70" y="874" on="1"/>
        <pt x="80" y="845" on="0"/>
        <pt x="126" y="812" on="0"/>
        <pt x="160" y="812" on="1"/>
        <pt x="194" y="812" on="0"/>
        <pt x="241" y="845" on="0"/>
        <pt x="251" y="874" on="1"/>
        <pt x="291" y="865" on="1"/>
        <pt x="284" y="822" on="0"/>
        <pt x="211" y="765" on="0"/>
        <pt x="160" y="765" on="1"/>
      </contour>
    </TTGlyph>
    <TTGlyph name="breve.sc" xMin="30" yMin="683" xMax="291" yMax="802">
      <contour>
        <pt x="108" y="683" on="0"/>
        <pt x="37" y="743" on="0"/>
        <pt x="30" y="794" on="1"/>
        <pt x="70" y="802" on="1"/>
        <pt x="90" y="731" on="0"/>
        <pt x="160" y="731" on="1"/>
        <pt x="195" y="731" on="0"/>
        <pt x="242" y="767" on="0"/>
        <pt x="251" y="802" on="1"/>
        <pt x="291" y="794" on="1"/>
        <pt x="284" y="743" on="0"/>
        <pt x="212" y="683" on="0"/>
        <pt x="160" y="683" on="1"/>
      </contour>
    </TTGlyph>
    <TTGlyph name="brevecombcomb" xMin="39" yMin="639" xMax="300" yMax="748">
      <component glyphName="uni0306" x="0" y="0" flags="0x0"/>
    </TTGlyph>
    <TTGlyph name="brevecy" xMin="30" yMin="653" xMax="291" yMax="754">
      <contour>
        <pt x="108" y="653" on="0"/>
        <pt x="37" y="703" on="0"/>
        <pt x="30" y="746" on="1"/>
        <pt x="70" y="754" on="1"/>
        <pt x="89" y="700" on="0"/>
        <pt x="160" y="700" on="1"/>
        <pt x="232" y="700" on="0"/>
        <pt x="251" y="754" on="1"/>
        <pt x="291" y="746" on="1"/>
        <pt x="284" y="703" on="0"/>
        <pt x="212" y="653" on="0"/>
        <pt x="160" y="653" on="1"/>
      </contour>
    </TTGlyph>
    <TTGlyph name="brevecy.case" xMin="30" yMin="779" xMax="291" yMax="881">
      <contour>
        <pt x="108" y="779" on="0"/>
        <pt x="37" y="829" on="0"/>
        <pt x="30" y="872" on="1"/>
        <pt x="70" y="881" on="1"/>
        <pt x="80" y="853" on="0"/>
        <pt x="124" y="827" on="0"/>
        <pt x="160" y="827" on="1"/>
        <pt x="234" y="827" on="0"/>
        <pt x="251" y="881" on="1"/>
        <pt x="291" y="872" on="1"/>
        <pt x="284" y="829" on="0"/>
        <pt x="212" y="779" on="0"/>
        <pt x="160" y="779" on="1"/>
      </contour>
    </TTGlyph>
    <TTGlyph name="brevecy.sc" xMin="30" yMin="683" xMax="291" yMax="785">
      <contour>
        <pt x="108" y="683" on="0"/>
        <pt x="37" y="733" on="0"/>
        <pt x="30" y="776" on="1"/>
        <pt x="70" y="785" on="1"/>
        <pt x="80" y="757" on="0"/>
        <pt x="124" y="731" on="0"/>
        <pt x="160" y="731" on="1"/>
        <pt x="234" y="731" on="0"/>
        <pt x="251" y="785" on="1"/>
        <pt x="291" y="776" on="1"/>
        <pt x="284" y="733" on="0"/>
        <pt x="212" y="683" on="0"/>
        <pt x="160" y="683" on="1"/>
      </contour>
    </TTGlyph>
    <TTGlyph name="brokenbar" xMin="176" yMin="146" xMax="230" yMax="558">
      <contour>
        <pt x="230" y="146" on="1"/>
        <pt x="176" y="146" on="1"/>
        <pt x="176" y="558" on="1"/>
        <pt x="230" y="558" on="1"/>
      </contour>
    </TTGlyph>
    <TTGlyph name="bullet" xMin="69" yMin="272" xMax="218" yMax="420">
      <contour>
        <pt x="176" y="420" on="0"/>
        <pt x="218" y="377" on="0"/>
        <pt x="218" y="345" on="1"/>
        <pt x="218" y="314" on="0"/>
        <pt x="176" y="272" on="0"/>
        <pt x="143" y="272" on="1"/>
        <pt x="111" y="272" on="0"/>
        <pt x="69" y="314" on="0"/>
        <pt x="69" y="346" on="1"/>
        <pt x="69" y="378" on="0"/>
        <pt x="111" y="420" on="0"/>
        <pt x="143" y="420" on="1"/>
      </contour>
    </TTGlyph>
    <TTGlyph name="bulletoperator" xMin="56" yMin="271" xMax="151" yMax="367">
      <component glyphName="periodcentered" x="0" y="0" flags="0x0"/>
    </TTGlyph>
    <TTGlyph name="c" xMin="64" yMin="-11" xMax="436" yMax="534">
      <contour>
        <pt x="330" y="534" on="0"/>
        <pt x="400" y="509" on="0"/>
        <pt x="433" y="481" on="1"/>
        <pt x="404" y="442" on="1"/>
        <pt x="378" y="464" on="0"/>
        <pt x="323" y="484" on="0"/>
        <pt x="288" y="484" on="1"/>
        <pt x="214" y="484" on="0"/>
        <pt x="126" y="369" on="0"/>
        <pt x="126" y="259" on="1"/>
        <pt x="126" y="150" on="0"/>
        <pt x="213" y="40" on="0"/>
        <pt x="287" y="40" on="1"/>
        <pt x="322" y="40" on="0"/>
        <pt x="379" y="62" on="0"/>
        <pt x="407" y="85" on="1"/>
        <pt x="436" y="45" on="1"/>
        <pt x="370" y="-11" on="0"/>
        <pt x="286" y="-11" on="1"/>
        <pt x="219" y="-11" on="0"/>
        <pt x="119" y="53" on="0"/>
        <pt x="64" y="174" on="0"/>
        <pt x="64" y="258" on="1"/>
        <pt x="64" y="341" on="0"/>
        <pt x="119" y="466" on="0"/>
        <pt x="219" y="534" on="0"/>
        <pt x="285" y="534" on="1"/>
      </contour>
    </TTGlyph>
    <TTGlyph name="c.sc" xMin="66" yMin="-9" xMax="469" yMax="571">
      <contour>
        <pt x="358" y="571" on="0"/>
        <pt x="428" y="545" on="0"/>
        <pt x="462" y="518" on="1"/>
        <pt x="431" y="480" on="1"/>
        <pt x="401" y="502" on="0"/>
        <pt x="346" y="522" on="0"/>
        <pt x="311" y="522" on="1"/>
        <pt x="230" y="522" on="0"/>
        <pt x="127" y="404" on="0"/>
        <pt x="127" y="282" on="1"/>
        <pt x="127" y="162" on="0"/>
        <pt x="229" y="40" on="0"/>
        <pt x="310" y="40" on="1"/>
        <pt x="351" y="40" on="0"/>
        <pt x="408" y="64" on="0"/>
        <pt x="439" y="88" on="1"/>
        <pt x="469" y="50" on="1"/>
        <pt x="406" y="-9" on="0"/>
        <pt x="307" y="-9" on="1"/>
        <pt x="237" y="-9" on="0"/>
        <pt x="128" y="58" on="0"/>
        <pt x="66" y="189" on="0"/>
        <pt x="66" y="282" on="1"/>
        <pt x="66" y="374" on="0"/>
        <pt x="131" y="504" on="0"/>
        <pt x="241" y="571" on="0"/>
        <pt x="308" y="571" on="1"/>
      </contour>
    </TTGlyph>
    <TTGlyph name="cacute" xMin="64" yMin="-11" xMax="436" yMax="782">
      <component glyphName="c" x="0" y="0" flags="0x0"/>
      <component glyphName="acute" x="138" y="0" flags="0x0"/>
    </TTGlyph>
    <TTGlyph name="cacute.loclPLK" xMin="64" yMin="-11" xMax="436" yMax="763">
      <component glyphName="c" x="0" y="0" flags="0x0"/>
      <component glyphName="acute.loclPLK" x="152" y="0" flags="0x0"/>
    </TTGlyph>
    <TTGlyph name="cacute.sc" xMin="66" yMin="-9" xMax="469" yMax="813">
      <component glyphName="c.sc" x="0" y="0" flags="0x0"/>
      <component glyphName="acute.sc" x="168" y="0" flags="0x0"/>
    </TTGlyph>
    <TTGlyph name="cacute.sc.loclPLK" xMin="66" yMin="-9" xMax="469" yMax="804">
      <component glyphName="c.sc" x="0" y="0" flags="0x0"/>
      <component glyphName="acute.sc.loclPLK" x="178" y="0" flags="0x0"/>
    </TTGlyph>
    <TTGlyph name="capslock" xMin="60" yMin="-12" xMax="660" yMax="832">
      <contour>
        <pt x="60" y="534" on="1"/>
        <pt x="360" y="832" on="1"/>
        <pt x="660" y="534" on="1"/>
        <pt x="491" y="534" on="1"/>
        <pt x="491" y="255" on="1"/>
        <pt x="229" y="255" on="1"/>
        <pt x="229" y="534" on="1"/>
      </contour>
      <contour>
        <pt x="551" y="579" on="1"/>
        <pt x="360" y="768" on="1"/>
        <pt x="169" y="579" on="1"/>
        <pt x="276" y="579" on="1"/>
        <pt x="276" y="297" on="1"/>
        <pt x="444" y="297" on="1"/>
        <pt x="444" y="579" on="1"/>
      </contour>
      <contour>
        <pt x="491" y="16" on="0"/>
        <pt x="464" y="-12" on="0"/>
        <pt x="441" y="-12" on="1"/>
        <pt x="279" y="-12" on="1"/>
        <pt x="257" y="-12" on="0"/>
        <pt x="229" y="16" on="0"/>
        <pt x="229" y="38" on="1"/>
        <pt x="229" y="155" on="1"/>
        <pt x="491" y="155" on="1"/>
        <pt x="491" y="38" on="1"/>
      </contour>
      <contour>
        <pt x="444" y="32" on="1"/>
        <pt x="444" y="113" on="1"/>
        <pt x="276" y="113" on="1"/>
        <pt x="276" y="32" on="1"/>
      </contour>
    </TTGlyph>
    <TTGlyph name="caron" xMin="30" yMin="633" xMax="325" yMax="769">
      <contour>
        <pt x="196" y="633" on="1"/>
        <pt x="160" y="633" on="1"/>
        <pt x="30" y="739" on="1"/>
        <pt x="56" y="769" on="1"/>
        <pt x="178" y="685" on="1"/>
        <pt x="299" y="769" on="1"/>
        <pt x="325" y="739" on="1"/>
      </contour>
    </TTGlyph>
    <TTGlyph name="caron.alt" xMin="63" yMin="521" xMax="136" yMax="691">
      <contour>
        <pt x="99" y="521" on="1"/>
        <pt x="63" y="526" on="1"/>
        <pt x="80" y="691" on="1"/>
        <pt x="136" y="685" on="1"/>
      </contour>
    </TTGlyph>
    <TTGlyph name="caron.case" xMin="30" yMin="756" xMax="325" yMax="888">
      <contour>
        <pt x="196" y="756" on="1"/>
        <pt x="160" y="756" on="1"/>
        <pt x="30" y="857" on="1"/>
        <pt x="56" y="888" on="1"/>
        <pt x="178" y="808" on="1"/>
        <pt x="299" y="888" on="1"/>
        <pt x="325" y="857" on="1"/>
      </contour>
    </TTGlyph>
    <TTGlyph name="caron.sc" xMin="30" yMin="663" xMax="326" yMax="799">
      <contour>
        <pt x="197" y="663" on="1"/>
        <pt x="160" y="663" on="1"/>
        <pt x="30" y="769" on="1"/>
        <pt x="57" y="799" on="1"/>
        <pt x="178" y="715" on="1"/>
        <pt x="300" y="799" on="1"/>
        <pt x="326" y="769" on="1"/>
      </contour>
    </TTGlyph>
    <TTGlyph name="caroncombcomb" xMin="39" yMin="630" xMax="334" yMax="762">
      <component glyphName="uni030C" x="0" y="0" flags="0x0"/>
    </TTGlyph>
    <TTGlyph name="ccaron" xMin="64" yMin="-11" xMax="436" yMax="771">
      <component glyphName="c" x="0" y="0" flags="0x0"/>
      <component glyphName="caron" x="110" y="1" flags="0x0"/>
    </TTGlyph>
    <TTGlyph name="ccaron.sc" xMin="66" yMin="-9" xMax="469" yMax="799">
      <component glyphName="c.sc" x="0" y="0" flags="0x0"/>
      <component glyphName="caron.sc" x="133" y="0" flags="0x0"/>
    </TTGlyph>
    <TTGlyph name="ccedilla" xMin="64" yMin="-227" xMax="436" yMax="534">
      <contour>
        <pt x="345" y="-68" on="0"/>
        <pt x="391" y="-108" on="0"/>
        <pt x="391" y="-140" on="1"/>
        <pt x="391" y="-180" on="0"/>
        <pt x="330" y="-227" on="0"/>
        <pt x="285" y="-227" on="1"/>
        <pt x="238" y="-227" on="0"/>
        <pt x="205" y="-206" on="1"/>
        <pt x="224" y="-170" on="1"/>
        <pt x="249" y="-185" on="0"/>
        <pt x="284" y="-185" on="1"/>
        <pt x="308" y="-185" on="0"/>
        <pt x="339" y="-162" on="0"/>
        <pt x="339" y="-140" on="1"/>
        <pt x="339" y="-117" on="0"/>
        <pt x="297" y="-96" on="0"/>
        <pt x="250" y="-95" on="1"/>
        <pt x="258" y="-9" on="1"/>
        <pt x="168" y="1" on="0"/>
        <pt x="64" y="141" on="0"/>
        <pt x="64" y="258" on="1"/>
        <pt x="64" y="341" on="0"/>
        <pt x="119" y="466" on="0"/>
        <pt x="219" y="534" on="0"/>
        <pt x="285" y="534" on="1"/>
        <pt x="330" y="534" on="0"/>
        <pt x="400" y="509" on="0"/>
        <pt x="433" y="481" on="1"/>
        <pt x="404" y="442" on="1"/>
        <pt x="378" y="464" on="0"/>
        <pt x="323" y="484" on="0"/>
        <pt x="288" y="484" on="1"/>
        <pt x="214" y="484" on="0"/>
        <pt x="126" y="369" on="0"/>
        <pt x="126" y="259" on="1"/>
        <pt x="126" y="150" on="0"/>
        <pt x="213" y="40" on="0"/>
        <pt x="287" y="40" on="1"/>
        <pt x="322" y="40" on="0"/>
        <pt x="379" y="62" on="0"/>
        <pt x="407" y="85" on="1"/>
        <pt x="436" y="45" on="1"/>
        <pt x="377" y="-7" on="0"/>
        <pt x="299" y="-11" on="1"/>
        <pt x="299" y="-64" on="1"/>
      </contour>
    </TTGlyph>
    <TTGlyph name="ccedilla.sc" xMin="66" yMin="-228" xMax="469" yMax="571">
      <contour>
        <pt x="368" y="-68" on="0"/>
        <pt x="413" y="-109" on="0"/>
        <pt x="413" y="-141" on="1"/>
        <pt x="413" y="-181" on="0"/>
        <pt x="353" y="-228" on="0"/>
        <pt x="308" y="-228" on="1"/>
        <pt x="258" y="-228" on="0"/>
        <pt x="228" y="-206" on="1"/>
        <pt x="246" y="-170" on="1"/>
        <pt x="274" y="-186" on="0"/>
        <pt x="306" y="-186" on="1"/>
        <pt x="331" y="-186" on="0"/>
        <pt x="361" y="-163" on="0"/>
        <pt x="361" y="-141" on="1"/>
        <pt x="361" y="-118" on="0"/>
        <pt x="319" y="-97" on="0"/>
        <pt x="272" y="-96" on="1"/>
        <pt x="280" y="-8" on="1"/>
        <pt x="184" y="2" on="0"/>
        <pt x="66" y="153" on="0"/>
        <pt x="66" y="282" on="1"/>
        <pt x="66" y="374" on="0"/>
        <pt x="131" y="504" on="0"/>
        <pt x="241" y="571" on="0"/>
        <pt x="308" y="571" on="1"/>
        <pt x="358" y="571" on="0"/>
        <pt x="428" y="545" on="0"/>
        <pt x="462" y="518" on="1"/>
        <pt x="431" y="480" on="1"/>
        <pt x="401" y="502" on="0"/>
        <pt x="346" y="522" on="0"/>
        <pt x="311" y="522" on="1"/>
        <pt x="230" y="522" on="0"/>
        <pt x="127" y="404" on="0"/>
        <pt x="127" y="282" on="1"/>
        <pt x="127" y="162" on="0"/>
        <pt x="229" y="40" on="0"/>
        <pt x="310" y="40" on="1"/>
        <pt x="351" y="40" on="0"/>
        <pt x="408" y="64" on="0"/>
        <pt x="439" y="88" on="1"/>
        <pt x="469" y="50" on="1"/>
        <pt x="410" y="-5" on="0"/>
        <pt x="321" y="-9" on="1"/>
        <pt x="321" y="-64" on="1"/>
      </contour>
    </TTGlyph>
    <TTGlyph name="ccircumflex" xMin="64" yMin="-11" xMax="436" yMax="779">
      <component glyphName="c" x="0" y="0" flags="0x0"/>
      <component glyphName="circumflex" x="109" y="0" flags="0x0"/>
    </TTGlyph>
    <TTGlyph name="ccircumflex.sc" xMin="66" yMin="-9" xMax="469" yMax="810">
      <component glyphName="c.sc" x="0" y="0" flags="0x0"/>
      <component glyphName="circumflex.sc" x="133" y="0" flags="0x0"/>
    </TTGlyph>
    <TTGlyph name="cdotaccent" xMin="64" yMin="-11" xMax="436" yMax="753">
      <component glyphName="c" x="0" y="0" flags="0x0"/>
      <component glyphName="dotaccent" x="211" y="0" flags="0x0"/>
    </TTGlyph>
    <TTGlyph name="cdotaccent.sc" xMin="66" yMin="-9" xMax="469" yMax="783">
      <component glyphName="c.sc" x="0" y="0" flags="0x0"/>
      <component glyphName="dotaccent.sc" x="237" y="0" flags="0x0"/>
    </TTGlyph>
    <TTGlyph name="cedilla" xMin="30" yMin="-227" xMax="215" yMax="16">
      <contour>
        <pt x="170" y="-68" on="0"/>
        <pt x="215" y="-108" on="0"/>
        <pt x="215" y="-140" on="1"/>
        <pt x="215" y="-181" on="0"/>
        <pt x="155" y="-227" on="0"/>
        <pt x="110" y="-227" on="1"/>
        <pt x="62" y="-227" on="0"/>
        <pt x="30" y="-206" on="1"/>
        <pt x="48" y="-170" on="1"/>
        <pt x="75" y="-185" on="0"/>
        <pt x="109" y="-185" on="1"/>
        <pt x="133" y="-185" on="0"/>
        <pt x="164" y="-163" on="0"/>
        <pt x="164" y="-140" on="1"/>
        <pt x="164" y="-118" on="0"/>
        <pt x="121" y="-96" on="0"/>
        <pt x="75" y="-96" on="1"/>
        <pt x="85" y="16" on="1"/>
        <pt x="123" y="16" on="1"/>
        <pt x="123" y="-64" on="1"/>
      </contour>
    </TTGlyph>
    <TTGlyph name="cedilla.case" xMin="30" yMin="-227" xMax="215" yMax="16">
      <contour>
        <pt x="170" y="-68" on="0"/>
        <pt x="215" y="-108" on="0"/>
        <pt x="215" y="-140" on="1"/>
        <pt x="215" y="-181" on="0"/>
        <pt x="155" y="-227" on="0"/>
        <pt x="110" y="-227" on="1"/>
        <pt x="62" y="-227" on="0"/>
        <pt x="30" y="-206" on="1"/>
        <pt x="48" y="-170" on="1"/>
        <pt x="75" y="-185" on="0"/>
        <pt x="109" y="-185" on="1"/>
        <pt x="133" y="-185" on="0"/>
        <pt x="164" y="-163" on="0"/>
        <pt x="164" y="-140" on="1"/>
        <pt x="164" y="-118" on="0"/>
        <pt x="121" y="-96" on="0"/>
        <pt x="75" y="-96" on="1"/>
        <pt x="85" y="16" on="1"/>
        <pt x="123" y="16" on="1"/>
        <pt x="123" y="-64" on="1"/>
      </contour>
    </TTGlyph>
    <TTGlyph name="cedilla.sc" xMin="30" yMin="-227" xMax="215" yMax="16">
      <contour>
        <pt x="170" y="-68" on="0"/>
        <pt x="215" y="-108" on="0"/>
        <pt x="215" y="-140" on="1"/>
        <pt x="215" y="-181" on="0"/>
        <pt x="155" y="-227" on="0"/>
        <pt x="110" y="-227" on="1"/>
        <pt x="62" y="-227" on="0"/>
        <pt x="30" y="-206" on="1"/>
        <pt x="48" y="-170" on="1"/>
        <pt x="75" y="-185" on="0"/>
        <pt x="109" y="-185" on="1"/>
        <pt x="133" y="-185" on="0"/>
        <pt x="164" y="-163" on="0"/>
        <pt x="164" y="-140" on="1"/>
        <pt x="164" y="-118" on="0"/>
        <pt x="121" y="-96" on="0"/>
        <pt x="75" y="-96" on="1"/>
        <pt x="85" y="16" on="1"/>
        <pt x="123" y="16" on="1"/>
        <pt x="123" y="-64" on="1"/>
      </contour>
    </TTGlyph>
    <TTGlyph name="cent" xMin="64" yMin="-150" xMax="436" yMax="680">
      <contour>
        <pt x="380" y="-3" on="0"/>
        <pt x="311" y="-10" on="1"/>
        <pt x="311" y="-150" on="1"/>
        <pt x="260" y="-150" on="1"/>
        <pt x="260" y="-10" on="1"/>
        <pt x="169" y="0" on="0"/>
        <pt x="64" y="140" on="0"/>
        <pt x="64" y="258" on="1"/>
        <pt x="64" y="376" on="0"/>
        <pt x="170" y="524" on="0"/>
        <pt x="261" y="533" on="1"/>
        <pt x="261" y="680" on="1"/>
        <pt x="311" y="680" on="1"/>
        <pt x="311" y="533" on="1"/>
        <pt x="378" y="527" on="0"/>
        <pt x="433" y="481" on="1"/>
        <pt x="404" y="442" on="1"/>
        <pt x="378" y="464" on="0"/>
        <pt x="323" y="484" on="0"/>
        <pt x="288" y="484" on="1"/>
        <pt x="214" y="484" on="0"/>
        <pt x="126" y="369" on="0"/>
        <pt x="126" y="259" on="1"/>
        <pt x="126" y="150" on="0"/>
        <pt x="213" y="40" on="0"/>
        <pt x="287" y="40" on="1"/>
        <pt x="322" y="40" on="0"/>
        <pt x="379" y="62" on="0"/>
        <pt x="407" y="85" on="1"/>
        <pt x="436" y="45" on="1"/>
      </contour>
    </TTGlyph>
    <TTGlyph name="cent.osf" xMin="64" yMin="-150" xMax="436" yMax="680">
      <component glyphName="cent" x="0" y="0" flags="0x0"/>
    </TTGlyph>
    <TTGlyph name="cent.tf" xMin="94" yMin="-150" xMax="466" yMax="680">
      <contour>
        <pt x="408" y="-3" on="0"/>
        <pt x="341" y="-10" on="1"/>
        <pt x="341" y="-150" on="1"/>
        <pt x="290" y="-150" on="1"/>
        <pt x="290" y="-10" on="1"/>
        <pt x="199" y="0" on="0"/>
        <pt x="94" y="140" on="0"/>
        <pt x="94" y="258" on="1"/>
        <pt x="94" y="376" on="0"/>
        <pt x="200" y="523" on="0"/>
        <pt x="291" y="533" on="1"/>
        <pt x="291" y="680" on="1"/>
        <pt x="341" y="680" on="1"/>
        <pt x="341" y="533" on="1"/>
        <pt x="408" y="527" on="0"/>
        <pt x="463" y="481" on="1"/>
        <pt x="433" y="443" on="1"/>
        <pt x="408" y="464" on="0"/>
        <pt x="353" y="485" on="0"/>
        <pt x="318" y="485" on="1"/>
        <pt x="244" y="485" on="0"/>
        <pt x="156" y="369" on="0"/>
        <pt x="156" y="259" on="1"/>
        <pt x="156" y="151" on="0"/>
        <pt x="243" y="40" on="0"/>
        <pt x="317" y="40" on="1"/>
        <pt x="352" y="40" on="0"/>
        <pt x="409" y="63" on="0"/>
        <pt x="437" y="86" on="1"/>
        <pt x="466" y="45" on="1"/>
      </contour>
    </TTGlyph>
    <TTGlyph name="cent.tosf" xMin="94" yMin="-150" xMax="466" yMax="680">
      <component glyphName="cent.tf" x="0" y="0" flags="0x0"/>
    </TTGlyph>
    <TTGlyph name="chi" xMin="3" yMin="-203" xMax="432" yMax="532">
      <contour>
        <pt x="374" y="-203" on="1"/>
        <pt x="221" y="136" on="1"/>
        <pt x="64" y="-202" on="1"/>
        <pt x="6" y="-195" on="1"/>
        <pt x="191" y="185" on="1"/>
        <pt x="131" y="321" on="0"/>
        <pt x="51" y="458" on="0"/>
        <pt x="3" y="511" on="1"/>
        <pt x="60" y="532" on="1"/>
        <pt x="104" y="481" on="0"/>
        <pt x="175" y="355" on="0"/>
        <pt x="222" y="235" on="1"/>
        <pt x="351" y="530" on="1"/>
        <pt x="412" y="523" on="1"/>
        <pt x="252" y="184" on="1"/>
        <pt x="432" y="-193" on="1"/>
      </contour>
    </TTGlyph>
    <TTGlyph name="chi.sc" xMin="10" yMin="0" xMax="443" yMax="562">
      <component glyphName="x.sc" x="0" y="0" flags="0x0"/>
    </TTGlyph>
    <TTGlyph name="circumflex" xMin="30" yMin="643" xMax="325" yMax="779">
      <contour>
        <pt x="159" y="779" on="1"/>
        <pt x="195" y="779" on="1"/>
        <pt x="325" y="674" on="1"/>
        <pt x="299" y="643" on="1"/>
        <pt x="177" y="728" on="1"/>
        <pt x="56" y="643" on="1"/>
        <pt x="30" y="674" on="1"/>
      </contour>
    </TTGlyph>
    <TTGlyph name="circumflex.case" xMin="30" yMin="762" xMax="325" yMax="894">
      <contour>
        <pt x="56" y="762" on="1"/>
        <pt x="30" y="792" on="1"/>
        <pt x="160" y="894" on="1"/>
        <pt x="196" y="894" on="1"/>
        <pt x="325" y="792" on="1"/>
        <pt x="299" y="762" on="1"/>
        <pt x="178" y="842" on="1"/>
      </contour>
    </TTGlyph>
    <TTGlyph name="circumflex.sc" xMin="30" yMin="674" xMax="326" yMax="810">
      <contour>
        <pt x="159" y="810" on="1"/>
        <pt x="196" y="810" on="1"/>
        <pt x="326" y="704" on="1"/>
        <pt x="299" y="674" on="1"/>
        <pt x="178" y="758" on="1"/>
        <pt x="56" y="674" on="1"/>
        <pt x="30" y="704" on="1"/>
      </contour>
    </TTGlyph>
    <TTGlyph name="circumflexcombcomb" xMin="39" yMin="636" xMax="334" yMax="768">
      <component glyphName="uni0302" x="0" y="0" flags="0x0"/>
    </TTGlyph>
    <TTGlyph name="clear" xMin="100" yMin="-12" xMax="1140" yMax="713">
      <contour>
        <pt x="128" y="-12" on="0"/>
        <pt x="100" y="16" on="0"/>
        <pt x="100" y="38" on="1"/>
        <pt x="100" y="663" on="1"/>
        <pt x="100" y="686" on="0"/>
        <pt x="128" y="713" on="0"/>
        <pt x="150" y="713" on="1"/>
        <pt x="1090" y="713" on="1"/>
        <pt x="1113" y="713" on="0"/>
        <pt x="1140" y="686" on="0"/>
        <pt x="1140" y="663" on="1"/>
        <pt x="1140" y="38" on="1"/>
        <pt x="1140" y="16" on="0"/>
        <pt x="1113" y="-12" on="0"/>
        <pt x="1090" y="-12" on="1"/>
        <pt x="150" y="-12" on="1"/>
      </contour>
      <contour>
        <pt x="620" y="288" on="1"/>
        <pt x="774" y="134" on="1"/>
        <pt x="841" y="201" on="1"/>
        <pt x="687" y="355" on="1"/>
        <pt x="841" y="508" on="1"/>
        <pt x="774" y="577" on="1"/>
        <pt x="620" y="422" on="1"/>
        <pt x="466" y="577" on="1"/>
        <pt x="399" y="508" on="1"/>
        <pt x="553" y="355" on="1"/>
        <pt x="399" y="201" on="1"/>
        <pt x="466" y="134" on="1"/>
      </contour>
    </TTGlyph>
    <TTGlyph name="colon" xMin="55" yMin="-11" xMax="151" yMax="475">
      <component glyphName="period" x="0" y="0" flags="0x0"/>
      <component glyphName="period" x="0" y="390" flags="0x0"/>
    </TTGlyph>
    <TTGlyph name="comma" xMin="38" yMin="-151" xMax="151" yMax="84">
      <contour>
        <pt x="124" y="84" on="0"/>
        <pt x="151" y="57" on="0"/>
        <pt x="151" y="37" on="1"/>
        <pt x="151" y="15" on="0"/>
        <pt x="136" y="-18" on="1"/>
        <pt x="80" y="-151" on="1"/>
        <pt x="38" y="-151" on="1"/>
        <pt x="78" y="-4" on="1"/>
        <pt x="67" y="2" on="0"/>
        <pt x="55" y="24" on="0"/>
        <pt x="55" y="37" on="1"/>
        <pt x="55" y="57" on="0"/>
        <pt x="83" y="84" on="0"/>
        <pt x="103" y="84" on="1"/>
      </contour>
    </TTGlyph>
    <TTGlyph name="copyright" xMin="108" yMin="134" xMax="702" yMax="736">
      <contour>
        <pt x="487" y="736" on="0"/>
        <pt x="623" y="657" on="0"/>
        <pt x="702" y="520" on="0"/>
        <pt x="702" y="435" on="1"/>
        <pt x="702" y="350" on="0"/>
        <pt x="623" y="213" on="0"/>
        <pt x="487" y="134" on="0"/>
        <pt x="405" y="134" on="1"/>
        <pt x="322" y="134" on="0"/>
        <pt x="187" y="212" on="0"/>
        <pt x="108" y="350" on="0"/>
        <pt x="108" y="435" on="1"/>
        <pt x="108" y="519" on="0"/>
        <pt x="187" y="657" on="0"/>
        <pt x="323" y="736" on="0"/>
        <pt x="405" y="736" on="1"/>
      </contour>
      <contour>
        <pt x="334" y="697" on="0"/>
        <pt x="219" y="629" on="0"/>
        <pt x="153" y="509" on="0"/>
        <pt x="153" y="435" on="1"/>
        <pt x="153" y="360" on="0"/>
        <pt x="218" y="241" on="0"/>
        <pt x="334" y="173" on="0"/>
        <pt x="406" y="173" on="1"/>
        <pt x="477" y="173" on="0"/>
        <pt x="592" y="241" on="0"/>
        <pt x="657" y="361" on="0"/>
        <pt x="657" y="435" on="1"/>
        <pt x="657" y="510" on="0"/>
        <pt x="592" y="629" on="0"/>
        <pt x="478" y="697" on="0"/>
        <pt x="406" y="697" on="1"/>
      </contour>
      <contour>
        <pt x="438" y="616" on="0"/>
        <pt x="486" y="599" on="0"/>
        <pt x="509" y="581" on="1"/>
        <pt x="484" y="548" on="1"/>
        <pt x="467" y="561" on="0"/>
        <pt x="432" y="573" on="0"/>
        <pt x="409" y="573" on="1"/>
        <pt x="368" y="573" on="0"/>
        <pt x="310" y="508" on="0"/>
        <pt x="310" y="436" on="1"/>
        <pt x="310" y="368" on="0"/>
        <pt x="364" y="298" on="0"/>
        <pt x="409" y="298" on="1"/>
        <pt x="434" y="298" on="0"/>
        <pt x="473" y="313" on="0"/>
        <pt x="493" y="327" on="1"/>
        <pt x="515" y="294" on="1"/>
        <pt x="467" y="254" on="0"/>
        <pt x="407" y="254" on="1"/>
        <pt x="341" y="254" on="0"/>
        <pt x="259" y="352" on="0"/>
        <pt x="259" y="436" on="1"/>
        <pt x="259" y="494" on="0"/>
        <pt x="301" y="576" on="0"/>
        <pt x="368" y="616" on="0"/>
        <pt x="407" y="616" on="1"/>
      </contour>
    </TTGlyph>
    <TTGlyph name="currency" xMin="49" yMin="102" xMax="511" yMax="579">
      <contour>
        <pt x="473" y="269" on="0"/>
        <pt x="432" y="215" on="1"/>
        <pt x="511" y="138" on="1"/>
        <pt x="475" y="102" on="1"/>
        <pt x="395" y="180" on="1"/>
        <pt x="349" y="146" on="0"/>
        <pt x="280" y="146" on="1"/>
        <pt x="214" y="146" on="0"/>
        <pt x="165" y="182" on="1"/>
        <pt x="85" y="102" on="1"/>
        <pt x="49" y="138" on="1"/>
        <pt x="129" y="217" on="1"/>
        <pt x="90" y="270" on="0"/>
        <pt x="90" y="341" on="1"/>
        <pt x="90" y="412" on="0"/>
        <pt x="129" y="463" on="1"/>
        <pt x="49" y="543" on="1"/>
        <pt x="85" y="579" on="1"/>
        <pt x="165" y="499" on="1"/>
        <pt x="214" y="535" on="0"/>
        <pt x="280" y="535" on="1"/>
        <pt x="347" y="535" on="0"/>
        <pt x="396" y="500" on="1"/>
        <pt x="475" y="579" on="1"/>
        <pt x="511" y="543" on="1"/>
        <pt x="433" y="465" on="1"/>
        <pt x="473" y="414" on="0"/>
        <pt x="473" y="341" on="1"/>
      </contour>
      <contour>
        <pt x="347" y="193" on="0"/>
        <pt x="416" y="273" on="0"/>
        <pt x="416" y="341" on="1"/>
        <pt x="416" y="409" on="0"/>
        <pt x="347" y="489" on="0"/>
        <pt x="281" y="489" on="1"/>
        <pt x="216" y="489" on="0"/>
        <pt x="145" y="409" on="0"/>
        <pt x="145" y="341" on="1"/>
        <pt x="145" y="273" on="0"/>
        <pt x="216" y="193" on="0"/>
        <pt x="281" y="193" on="1"/>
      </contour>
    </TTGlyph>
    <TTGlyph name="currency.osf" xMin="49" yMin="102" xMax="511" yMax="579">
      <component glyphName="currency" x="0" y="0" flags="0x0"/>
    </TTGlyph>
    <TTGlyph name="currency.tf" xMin="49" yMin="102" xMax="511" yMax="579">
      <component glyphName="currency" x="0" y="0" flags="0x0"/>
    </TTGlyph>
    <TTGlyph name="currency.tosf" xMin="49" yMin="102" xMax="511" yMax="579">
      <component glyphName="currency" x="0" y="0" flags="0x0"/>
    </TTGlyph>
    <TTGlyph name="d" xMin="69" yMin="-11" xMax="479" yMax="743">
      <contour>
        <pt x="479" y="0" on="1"/>
        <pt x="429" y="0" on="1"/>
        <pt x="422" y="80" on="1"/>
        <pt x="398" y="38" on="0"/>
        <pt x="319" y="-11" on="0"/>
        <pt x="265" y="-11" on="1"/>
        <pt x="174" y="-11" on="0"/>
        <pt x="69" y="134" on="0"/>
        <pt x="69" y="259" on="1"/>
        <pt x="69" y="340" on="0"/>
        <pt x="118" y="464" on="0"/>
        <pt x="211" y="534" on="0"/>
        <pt x="274" y="534" on="1"/>
        <pt x="363" y="534" on="0"/>
        <pt x="421" y="463" on="1"/>
        <pt x="421" y="743" on="1"/>
        <pt x="479" y="736" on="1"/>
      </contour>
      <contour>
        <pt x="324" y="37" on="0"/>
        <pt x="393" y="86" on="0"/>
        <pt x="421" y="134" on="1"/>
        <pt x="421" y="407" on="1"/>
        <pt x="365" y="486" on="0"/>
        <pt x="284" y="486" on="1"/>
        <pt x="214" y="486" on="0"/>
        <pt x="131" y="369" on="0"/>
        <pt x="131" y="262" on="1"/>
        <pt x="131" y="154" on="0"/>
        <pt x="206" y="38" on="0"/>
        <pt x="274" y="37" on="1"/>
      </contour>
    </TTGlyph>
    <TTGlyph name="d.sc" xMin="111" yMin="0" xMax="511" yMax="562">
      <contour>
        <pt x="357" y="562" on="0"/>
        <pt x="511" y="443" on="0"/>
        <pt x="511" y="285" on="1"/>
        <pt x="511" y="127" on="0"/>
        <pt x="355" y="0" on="0"/>
        <pt x="242" y="0" on="1"/>
        <pt x="111" y="0" on="1"/>
        <pt x="111" y="562" on="1"/>
        <pt x="234" y="562" on="1"/>
      </contour>
      <contour>
        <pt x="169" y="47" on="1"/>
        <pt x="246" y="47" on="1"/>
        <pt x="450" y="47" on="0"/>
        <pt x="450" y="285" on="1"/>
        <pt x="450" y="420" on="0"/>
        <pt x="335" y="514" on="0"/>
        <pt x="240" y="514" on="1"/>
        <pt x="169" y="514" on="1"/>
      </contour>
    </TTGlyph>
    <TTGlyph name="dagger" xMin="51" yMin="0" xMax="455" yMax="665">
      <contour>
        <pt x="455" y="512" on="1"/>
        <pt x="455" y="461" on="1"/>
        <pt x="281" y="461" on="1"/>
        <pt x="281" y="0" on="1"/>
        <pt x="225" y="0" on="1"/>
        <pt x="225" y="461" on="1"/>
        <pt x="51" y="461" on="1"/>
        <pt x="51" y="512" on="1"/>
        <pt x="225" y="512" on="1"/>
        <pt x="225" y="665" on="1"/>
        <pt x="281" y="665" on="1"/>
        <pt x="281" y="512" on="1"/>
      </contour>
    </TTGlyph>
    <TTGlyph name="dagger.osf" xMin="51" yMin="0" xMax="455" yMax="665">
      <component glyphName="dagger" x="0" y="0" flags="0x0"/>
    </TTGlyph>
    <TTGlyph name="dagger.tf" xMin="68" yMin="0" xMax="493" yMax="685">
      <contour>
        <pt x="493" y="532" on="1"/>
        <pt x="493" y="481" on="1"/>
        <pt x="309" y="481" on="1"/>
        <pt x="309" y="0" on="1"/>
        <pt x="252" y="0" on="1"/>
        <pt x="252" y="481" on="1"/>
        <pt x="68" y="481" on="1"/>
        <pt x="68" y="532" on="1"/>
        <pt x="252" y="532" on="1"/>
        <pt x="252" y="685" on="1"/>
        <pt x="309" y="685" on="1"/>
        <pt x="309" y="532" on="1"/>
      </contour>
    </TTGlyph>
    <TTGlyph name="dagger.tosf" xMin="78" yMin="0" xMax="482" yMax="665">
      <component glyphName="dagger" x="27" y="0" flags="0x0"/>
    </TTGlyph>
    <TTGlyph name="daggerdbl" xMin="51" yMin="0" xMax="458" yMax="665">
      <contour>
        <pt x="283" y="174" on="1"/>
        <pt x="283" y="0" on="1"/>
        <pt x="226" y="0" on="1"/>
        <pt x="226" y="174" on="1"/>
        <pt x="51" y="174" on="1"/>
        <pt x="51" y="223" on="1"/>
        <pt x="226" y="223" on="1"/>
        <pt x="226" y="462" on="1"/>
        <pt x="52" y="462" on="1"/>
        <pt x="52" y="512" on="1"/>
        <pt x="226" y="512" on="1"/>
        <pt x="226" y="665" on="1"/>
        <pt x="283" y="665" on="1"/>
        <pt x="283" y="512" on="1"/>
        <pt x="457" y="512" on="1"/>
        <pt x="457" y="462" on="1"/>
        <pt x="283" y="462" on="1"/>
        <pt x="283" y="223" on="1"/>
        <pt x="458" y="223" on="1"/>
        <pt x="458" y="174" on="1"/>
      </contour>
    </TTGlyph>
    <TTGlyph name="daggerdbl.osf" xMin="51" yMin="0" xMax="458" yMax="665">
      <component glyphName="daggerdbl" x="0" y="0" flags="0x0"/>
    </TTGlyph>
    <TTGlyph name="daggerdbl.tf" xMin="68" yMin="0" xMax="493" yMax="685">
      <contour>
        <pt x="309" y="252" on="1"/>
        <pt x="493" y="252" on="1"/>
        <pt x="493" y="202" on="1"/>
        <pt x="309" y="202" on="1"/>
        <pt x="309" y="0" on="1"/>
        <pt x="252" y="0" on="1"/>
        <pt x="252" y="202" on="1"/>
        <pt x="68" y="202" on="1"/>
        <pt x="68" y="252" on="1"/>
        <pt x="252" y="252" on="1"/>
        <pt x="252" y="481" on="1"/>
        <pt x="68" y="481" on="1"/>
        <pt x="68" y="532" on="1"/>
        <pt x="252" y="532" on="1"/>
        <pt x="252" y="685" on="1"/>
        <pt x="309" y="685" on="1"/>
        <pt x="309" y="532" on="1"/>
        <pt x="493" y="532" on="1"/>
        <pt x="493" y="481" on="1"/>
        <pt x="309" y="481" on="1"/>
      </contour>
    </TTGlyph>
    <TTGlyph name="daggerdbl.tosf" xMin="77" yMin="0" xMax="484" yMax="665">
      <component glyphName="daggerdbl" x="25" y="0" flags="0x0"/>
    </TTGlyph>
    <TTGlyph name="dcaron" xMin="69" yMin="-11" xMax="614" yMax="743">
      <component glyphName="d" x="0" y="0" flags="0x0"/>
      <component glyphName="caron.alt" x="478" y="51" flags="0x0"/>
    </TTGlyph>
    <TTGlyph name="dcaron.sc" xMin="111" yMin="0" xMax="511" yMax="799">
      <component glyphName="d.sc" x="0" y="0" flags="0x0"/>
      <component glyphName="caron.sc" x="99" y="0" flags="0x0"/>
    </TTGlyph>
    <TTGlyph name="dcroat" xMin="69" yMin="-11" xMax="556" yMax="743">
      <contour>
        <pt x="556" y="616" on="1"/>
        <pt x="479" y="616" on="1"/>
        <pt x="479" y="0" on="1"/>
        <pt x="429" y="0" on="1"/>
        <pt x="422" y="80" on="1"/>
        <pt x="398" y="38" on="0"/>
        <pt x="319" y="-11" on="0"/>
        <pt x="265" y="-11" on="1"/>
        <pt x="174" y="-11" on="0"/>
        <pt x="69" y="134" on="0"/>
        <pt x="69" y="259" on="1"/>
        <pt x="69" y="340" on="0"/>
        <pt x="118" y="464" on="0"/>
        <pt x="211" y="534" on="0"/>
        <pt x="274" y="534" on="1"/>
        <pt x="363" y="534" on="0"/>
        <pt x="421" y="463" on="1"/>
        <pt x="421" y="616" on="1"/>
        <pt x="261" y="616" on="1"/>
        <pt x="254" y="663" on="1"/>
        <pt x="421" y="663" on="1"/>
        <pt x="421" y="743" on="1"/>
        <pt x="479" y="736" on="1"/>
        <pt x="479" y="663" on="1"/>
        <pt x="556" y="663" on="1"/>
      </contour>
      <contour>
        <pt x="324" y="37" on="0"/>
        <pt x="393" y="86" on="0"/>
        <pt x="421" y="134" on="1"/>
        <pt x="421" y="407" on="1"/>
        <pt x="365" y="486" on="0"/>
        <pt x="284" y="486" on="1"/>
        <pt x="214" y="486" on="0"/>
        <pt x="131" y="369" on="0"/>
        <pt x="131" y="262" on="1"/>
        <pt x="131" y="154" on="0"/>
        <pt x="206" y="38" on="0"/>
        <pt x="274" y="37" on="1"/>
      </contour>
    </TTGlyph>
    <TTGlyph name="dcroat.sc" xMin="23" yMin="0" xMax="479" yMax="562">
      <component glyphName="eth.sc" x="0" y="0" flags="0x0"/>
    </TTGlyph>
    <TTGlyph name="degree" xMin="69" yMin="395" xMax="370" yMax="696">
      <contour>
        <pt x="180" y="395" on="0"/>
        <pt x="111" y="431" on="0"/>
        <pt x="69" y="500" on="0"/>
        <pt x="69" y="546" on="1"/>
        <pt x="69" y="591" on="0"/>
        <pt x="111" y="659" on="0"/>
        <pt x="180" y="696" on="0"/>
        <pt x="219" y="696" on="1"/>
        <pt x="260" y="696" on="0"/>
        <pt x="329" y="660" on="0"/>
        <pt x="370" y="591" on="0"/>
        <pt x="370" y="545" on="1"/>
        <pt x="370" y="500" on="0"/>
        <pt x="329" y="432" on="0"/>
        <pt x="260" y="395" on="0"/>
        <pt x="219" y="395" on="1"/>
      </contour>
      <contour>
        <pt x="263" y="439" on="0"/>
        <pt x="318" y="496" on="0"/>
        <pt x="318" y="545" on="1"/>
        <pt x="318" y="594" on="0"/>
        <pt x="263" y="652" on="0"/>
        <pt x="219" y="652" on="1"/>
        <pt x="177" y="652" on="0"/>
        <pt x="120" y="595" on="0"/>
        <pt x="120" y="546" on="1"/>
        <pt x="120" y="497" on="0"/>
        <pt x="177" y="439" on="0"/>
        <pt x="219" y="439" on="1"/>
      </contour>
    </TTGlyph>
    <TTGlyph name="degree.osf" xMin="69" yMin="395" xMax="370" yMax="696">
      <component glyphName="degree" x="0" y="0" flags="0x0"/>
    </TTGlyph>
    <TTGlyph name="degree.tf" xMin="89" yMin="415" xMax="390" yMax="716">
      <component glyphName="degree" x="20" y="20" flags="0x0"/>
    </TTGlyph>
    <TTGlyph name="degree.tosf" xMin="89" yMin="395" xMax="390" yMax="696">
      <component glyphName="degree" x="20" y="0" flags="0x0"/>
    </TTGlyph>
    <TTGlyph name="deleterightKey" xMin="100" yMin="-12" xMax="1360" yMax="713">
      <contour>
        <pt x="128" y="-12" on="0"/>
        <pt x="100" y="16" on="0"/>
        <pt x="100" y="38" on="1"/>
        <pt x="100" y="663" on="1"/>
        <pt x="100" y="686" on="0"/>
        <pt x="128" y="713" on="0"/>
        <pt x="150" y="713" on="1"/>
        <pt x="980" y="713" on="1"/>
        <pt x="1360" y="352" on="1"/>
        <pt x="980" y="-12" on="1"/>
        <pt x="150" y="-12" on="1"/>
      </contour>
      <contour>
        <pt x="570" y="288" on="1"/>
        <pt x="724" y="134" on="1"/>
        <pt x="791" y="201" on="1"/>
        <pt x="637" y="355" on="1"/>
        <pt x="791" y="508" on="1"/>
        <pt x="724" y="577" on="1"/>
        <pt x="570" y="422" on="1"/>
        <pt x="416" y="577" on="1"/>
        <pt x="349" y="508" on="1"/>
        <pt x="503" y="355" on="1"/>
        <pt x="349" y="201" on="1"/>
        <pt x="416" y="134" on="1"/>
      </contour>
    </TTGlyph>
    <TTGlyph name="delta" xMin="64" yMin="-11" xMax="503" yMax="743">
      <contour>
        <pt x="412" y="454" on="0"/>
        <pt x="503" y="339" on="0"/>
        <pt x="503" y="239" on="1"/>
        <pt x="503" y="125" on="0"/>
        <pt x="387" y="-11" on="0"/>
        <pt x="284" y="-11" on="1"/>
        <pt x="183" y="-11" on="0"/>
        <pt x="64" y="120" on="0"/>
        <pt x="64" y="238" on="1"/>
        <pt x="64" y="325" on="0"/>
        <pt x="148" y="444" on="0"/>
        <pt x="223" y="478" on="1"/>
        <pt x="167" y="504" on="0"/>
        <pt x="119" y="568" on="0"/>
        <pt x="119" y="614" on="1"/>
        <pt x="119" y="649" on="0"/>
        <pt x="159" y="708" on="0"/>
        <pt x="234" y="743" on="0"/>
        <pt x="284" y="743" on="1"/>
        <pt x="334" y="743" on="0"/>
        <pt x="412" y="719" on="0"/>
        <pt x="448" y="694" on="1"/>
        <pt x="417" y="657" on="1"/>
        <pt x="385" y="678" on="0"/>
        <pt x="328" y="696" on="0"/>
        <pt x="291" y="696" on="1"/>
        <pt x="237" y="696" on="0"/>
        <pt x="178" y="649" on="0"/>
        <pt x="178" y="612" on="1"/>
        <pt x="178" y="586" on="0"/>
        <pt x="200" y="549" on="0"/>
        <pt x="256" y="515" on="0"/>
        <pt x="311" y="494" on="1"/>
      </contour>
      <contour>
        <pt x="362" y="38" on="0"/>
        <pt x="442" y="140" on="0"/>
        <pt x="442" y="239" on="1"/>
        <pt x="442" y="299" on="0"/>
        <pt x="409" y="377" on="0"/>
        <pt x="334" y="434" on="0"/>
        <pt x="266" y="461" on="1"/>
        <pt x="126" y="394" on="0"/>
        <pt x="126" y="238" on="1"/>
        <pt x="126" y="141" on="0"/>
        <pt x="209" y="38" on="0"/>
        <pt x="284" y="38" on="1"/>
      </contour>
    </TTGlyph>
    <TTGlyph name="delta.sc" xMin="16" yMin="0" xMax="490" yMax="563">
      <contour>
        <pt x="16" y="0" on="1"/>
        <pt x="218" y="563" on="1"/>
        <pt x="289" y="563" on="1"/>
        <pt x="490" y="0" on="1"/>
      </contour>
      <contour>
        <pt x="415" y="48" on="1"/>
        <pt x="253" y="516" on="1"/>
        <pt x="90" y="48" on="1"/>
      </contour>
    </TTGlyph>
    <TTGlyph name="dieresis" xMin="30" yMin="663" xMax="299" yMax="742">
      <contour>
        <pt x="87" y="742" on="0"/>
        <pt x="110" y="719" on="0"/>
        <pt x="110" y="702" on="1"/>
        <pt x="110" y="685" on="0"/>
        <pt x="87" y="663" on="0"/>
        <pt x="70" y="663" on="1"/>
        <pt x="53" y="663" on="0"/>
        <pt x="30" y="685" on="0"/>
        <pt x="30" y="702" on="1"/>
        <pt x="30" y="719" on="0"/>
        <pt x="53" y="742" on="0"/>
        <pt x="70" y="742" on="1"/>
      </contour>
      <contour>
        <pt x="276" y="742" on="0"/>
        <pt x="299" y="719" on="0"/>
        <pt x="299" y="702" on="1"/>
        <pt x="299" y="685" on="0"/>
        <pt x="276" y="663" on="0"/>
        <pt x="259" y="663" on="1"/>
        <pt x="242" y="663" on="0"/>
        <pt x="219" y="685" on="0"/>
        <pt x="219" y="702" on="1"/>
        <pt x="219" y="719" on="0"/>
        <pt x="242" y="742" on="0"/>
        <pt x="259" y="742" on="1"/>
      </contour>
    </TTGlyph>
    <TTGlyph name="dieresis.case" xMin="30" yMin="789" xMax="299" yMax="868">
      <contour>
        <pt x="87" y="868" on="0"/>
        <pt x="110" y="845" on="0"/>
        <pt x="110" y="828" on="1"/>
        <pt x="110" y="811" on="0"/>
        <pt x="87" y="789" on="0"/>
        <pt x="70" y="789" on="1"/>
        <pt x="53" y="789" on="0"/>
        <pt x="30" y="811" on="0"/>
        <pt x="30" y="828" on="1"/>
        <pt x="30" y="845" on="0"/>
        <pt x="53" y="868" on="0"/>
        <pt x="70" y="868" on="1"/>
      </contour>
      <contour>
        <pt x="277" y="868" on="0"/>
        <pt x="299" y="845" on="0"/>
        <pt x="299" y="828" on="1"/>
        <pt x="299" y="811" on="0"/>
        <pt x="277" y="789" on="0"/>
        <pt x="259" y="789" on="1"/>
        <pt x="242" y="789" on="0"/>
        <pt x="219" y="811" on="0"/>
        <pt x="219" y="828" on="1"/>
        <pt x="219" y="845" on="0"/>
        <pt x="242" y="868" on="0"/>
        <pt x="259" y="868" on="1"/>
      </contour>
    </TTGlyph>
    <TTGlyph name="dieresis.sc" xMin="30" yMin="693" xMax="299" yMax="772">
      <contour>
        <pt x="87" y="772" on="0"/>
        <pt x="110" y="749" on="0"/>
        <pt x="110" y="732" on="1"/>
        <pt x="110" y="715" on="0"/>
        <pt x="87" y="693" on="0"/>
        <pt x="70" y="693" on="1"/>
        <pt x="53" y="693" on="0"/>
        <pt x="30" y="715" on="0"/>
        <pt x="30" y="732" on="1"/>
        <pt x="30" y="749" on="0"/>
        <pt x="53" y="772" on="0"/>
        <pt x="70" y="772" on="1"/>
      </contour>
      <contour>
        <pt x="277" y="772" on="0"/>
        <pt x="299" y="749" on="0"/>
        <pt x="299" y="732" on="1"/>
        <pt x="299" y="715" on="0"/>
        <pt x="277" y="693" on="0"/>
        <pt x="259" y="693" on="1"/>
        <pt x="242" y="693" on="0"/>
        <pt x="219" y="715" on="0"/>
        <pt x="219" y="732" on="1"/>
        <pt x="219" y="749" on="0"/>
        <pt x="242" y="772" on="0"/>
        <pt x="259" y="772" on="1"/>
      </contour>
    </TTGlyph>
    <TTGlyph name="dieresiscombcomb" xMin="39" yMin="663" xMax="308" yMax="742">
      <component glyphName="uni0308" x="0" y="0" flags="0x0"/>
    </TTGlyph>
    <TTGlyph name="dieresistonos" xMin="30" yMin="633" xMax="308" yMax="870">
      <contour>
        <pt x="189" y="716" on="1"/>
        <pt x="147" y="723" on="1"/>
        <pt x="176" y="870" on="1"/>
        <pt x="239" y="858" on="1"/>
      </contour>
      <contour>
        <pt x="87" y="711" on="0"/>
        <pt x="110" y="689" on="0"/>
        <pt x="110" y="672" on="1"/>
        <pt x="110" y="655" on="0"/>
        <pt x="87" y="633" on="0"/>
        <pt x="70" y="633" on="1"/>
        <pt x="53" y="633" on="0"/>
        <pt x="30" y="655" on="0"/>
        <pt x="30" y="672" on="1"/>
        <pt x="30" y="689" on="0"/>
        <pt x="53" y="711" on="0"/>
        <pt x="70" y="711" on="1"/>
      </contour>
      <contour>
        <pt x="285" y="711" on="0"/>
        <pt x="308" y="689" on="0"/>
        <pt x="308" y="672" on="1"/>
        <pt x="308" y="655" on="0"/>
        <pt x="285" y="633" on="0"/>
        <pt x="268" y="633" on="1"/>
        <pt x="251" y="633" on="0"/>
        <pt x="228" y="655" on="0"/>
        <pt x="228" y="672" on="1"/>
        <pt x="228" y="689" on="0"/>
        <pt x="251" y="711" on="0"/>
        <pt x="268" y="711" on="1"/>
      </contour>
    </TTGlyph>
    <TTGlyph name="divide" xMin="69" yMin="65" xMax="424" yMax="598">
      <component glyphName="period" x="143" y="76" flags="0x0"/>
      <component glyphName="period" x="143" y="513" flags="0x0"/>
      <component glyphName="minus" x="0" y="0" flags="0x0"/>
    </TTGlyph>
    <TTGlyph name="divide.osf" xMin="69" yMin="65" xMax="424" yMax="598">
      <contour>
        <pt x="268" y="598" on="0"/>
        <pt x="295" y="571" on="0"/>
        <pt x="295" y="551" on="1"/>
        <pt x="295" y="531" on="0"/>
        <pt x="268" y="503" on="0"/>
        <pt x="247" y="503" on="1"/>
        <pt x="226" y="503" on="0"/>
        <pt x="199" y="531" on="0"/>
        <pt x="199" y="551" on="1"/>
        <pt x="199" y="571" on="0"/>
        <pt x="226" y="598" on="0"/>
        <pt x="247" y="598" on="1"/>
      </contour>
      <contour>
        <pt x="424" y="357" on="1"/>
        <pt x="424" y="306" on="1"/>
        <pt x="69" y="306" on="1"/>
        <pt x="69" y="357" on="1"/>
      </contour>
      <contour>
        <pt x="268" y="160" on="0"/>
        <pt x="295" y="133" on="0"/>
        <pt x="295" y="113" on="1"/>
        <pt x="295" y="93" on="0"/>
        <pt x="268" y="65" on="0"/>
        <pt x="246" y="65" on="1"/>
        <pt x="226" y="65" on="0"/>
        <pt x="199" y="93" on="0"/>
        <pt x="199" y="113" on="1"/>
        <pt x="199" y="133" on="0"/>
        <pt x="226" y="160" on="0"/>
        <pt x="247" y="160" on="1"/>
      </contour>
    </TTGlyph>
    <TTGlyph name="divide.tf" xMin="103" yMin="65" xMax="458" yMax="598">
      <contour>
        <pt x="301" y="598" on="0"/>
        <pt x="328" y="571" on="0"/>
        <pt x="328" y="551" on="1"/>
        <pt x="328" y="530" on="0"/>
        <pt x="301" y="503" on="0"/>
        <pt x="280" y="503" on="1"/>
        <pt x="260" y="503" on="0"/>
        <pt x="233" y="531" on="0"/>
        <pt x="233" y="551" on="1"/>
        <pt x="233" y="571" on="0"/>
        <pt x="260" y="598" on="0"/>
        <pt x="280" y="598" on="1"/>
      </contour>
      <contour>
        <pt x="458" y="357" on="1"/>
        <pt x="458" y="306" on="1"/>
        <pt x="103" y="306" on="1"/>
        <pt x="103" y="357" on="1"/>
      </contour>
      <contour>
        <pt x="301" y="160" on="0"/>
        <pt x="328" y="133" on="0"/>
        <pt x="328" y="113" on="1"/>
        <pt x="328" y="92" on="0"/>
        <pt x="301" y="65" on="0"/>
        <pt x="280" y="65" on="1"/>
        <pt x="260" y="65" on="0"/>
        <pt x="233" y="93" on="0"/>
        <pt x="233" y="113" on="1"/>
        <pt x="233" y="133" on="0"/>
        <pt x="260" y="160" on="0"/>
        <pt x="280" y="160" on="1"/>
      </contour>
    </TTGlyph>
    <TTGlyph name="divide.tosf" xMin="103" yMin="65" xMax="458" yMax="598">
      <contour>
        <pt x="301" y="598" on="0"/>
        <pt x="328" y="571" on="0"/>
        <pt x="328" y="551" on="1"/>
        <pt x="328" y="530" on="0"/>
        <pt x="301" y="503" on="0"/>
        <pt x="280" y="503" on="1"/>
        <pt x="260" y="503" on="0"/>
        <pt x="233" y="531" on="0"/>
        <pt x="233" y="551" on="1"/>
        <pt x="233" y="571" on="0"/>
        <pt x="260" y="598" on="0"/>
        <pt x="280" y="598" on="1"/>
      </contour>
      <contour>
        <pt x="458" y="357" on="1"/>
        <pt x="458" y="306" on="1"/>
        <pt x="103" y="306" on="1"/>
        <pt x="103" y="357" on="1"/>
      </contour>
      <contour>
        <pt x="301" y="160" on="0"/>
        <pt x="328" y="133" on="0"/>
        <pt x="328" y="113" on="1"/>
        <pt x="328" y="92" on="0"/>
        <pt x="301" y="65" on="0"/>
        <pt x="280" y="65" on="1"/>
        <pt x="260" y="65" on="0"/>
        <pt x="233" y="93" on="0"/>
        <pt x="233" y="113" on="1"/>
        <pt x="233" y="133" on="0"/>
        <pt x="260" y="160" on="0"/>
        <pt x="280" y="160" on="1"/>
      </contour>
    </TTGlyph>
    <TTGlyph name="divisionslash" xMin="-167" yMin="-71" xMax="281" yMax="747">
      <component glyphName="fraction" x="0" y="0" flags="0x0"/>
    </TTGlyph>
    <TTGlyph name="dollar" xMin="39" yMin="-151" xMax="472" yMax="819">
      <contour>
        <pt x="472" y="105" on="0"/>
        <pt x="374" y="1" on="0"/>
        <pt x="289" y="-9" on="1"/>
        <pt x="289" y="-151" on="1"/>
        <pt x="238" y="-151" on="1"/>
        <pt x="238" y="-11" on="1"/>
        <pt x="121" y="-7" on="0"/>
        <pt x="39" y="72" on="1"/>
        <pt x="74" y="109" on="1"/>
        <pt x="110" y="75" on="0"/>
        <pt x="195" y="39" on="0"/>
        <pt x="250" y="39" on="1"/>
        <pt x="322" y="39" on="0"/>
        <pt x="412" y="114" on="0"/>
        <pt x="412" y="180" on="1"/>
        <pt x="412" y="220" on="0"/>
        <pt x="383" y="272" on="0"/>
        <pt x="316" y="310" on="0"/>
        <pt x="254" y="329" on="1"/>
        <pt x="152" y="361" on="0"/>
        <pt x="65" y="442" on="0"/>
        <pt x="65" y="511" on="1"/>
        <pt x="65" y="578" on="0"/>
        <pt x="160" y="668" on="0"/>
        <pt x="238" y="674" on="1"/>
        <pt x="238" y="819" on="1"/>
        <pt x="289" y="819" on="1"/>
        <pt x="289" y="674" on="1"/>
        <pt x="339" y="670" on="0"/>
        <pt x="415" y="634" on="0"/>
        <pt x="451" y="601" on="1"/>
        <pt x="416" y="564" on="1"/>
        <pt x="381" y="597" on="0"/>
        <pt x="308" y="625" on="0"/>
        <pt x="261" y="625" on="1"/>
        <pt x="200" y="625" on="0"/>
        <pt x="125" y="565" on="0"/>
        <pt x="125" y="513" on="1"/>
        <pt x="125" y="478" on="0"/>
        <pt x="153" y="433" on="0"/>
        <pt x="218" y="397" on="0"/>
        <pt x="279" y="379" on="1"/>
        <pt x="345" y="358" on="0"/>
        <pt x="427" y="312" on="0"/>
        <pt x="472" y="238" on="0"/>
        <pt x="472" y="182" on="1"/>
      </contour>
    </TTGlyph>
    <TTGlyph name="dollar.osf" xMin="39" yMin="-151" xMax="472" yMax="819">
      <component glyphName="dollar" x="0" y="0" flags="0x0"/>
    </TTGlyph>
    <TTGlyph name="dollar.tf" xMin="49" yMin="-150" xMax="488" yMax="843">
      <contour>
        <pt x="488" y="110" on="0"/>
        <pt x="387" y="5" on="0"/>
        <pt x="302" y="-5" on="1"/>
        <pt x="302" y="-150" on="1"/>
        <pt x="251" y="-150" on="1"/>
        <pt x="251" y="-7" on="1"/>
        <pt x="133" y="-3" on="0"/>
        <pt x="49" y="76" on="1"/>
        <pt x="83" y="114" on="1"/>
        <pt x="121" y="80" on="0"/>
        <pt x="207" y="43" on="0"/>
        <pt x="263" y="43" on="1"/>
        <pt x="336" y="43" on="0"/>
        <pt x="428" y="119" on="0"/>
        <pt x="428" y="186" on="1"/>
        <pt x="428" y="227" on="0"/>
        <pt x="398" y="280" on="0"/>
        <pt x="330" y="319" on="0"/>
        <pt x="267" y="338" on="1"/>
        <pt x="164" y="370" on="0"/>
        <pt x="75" y="453" on="0"/>
        <pt x="75" y="523" on="1"/>
        <pt x="75" y="591" on="0"/>
        <pt x="172" y="683" on="0"/>
        <pt x="251" y="689" on="1"/>
        <pt x="251" y="843" on="1"/>
        <pt x="302" y="843" on="1"/>
        <pt x="302" y="688" on="1"/>
        <pt x="353" y="684" on="0"/>
        <pt x="430" y="649" on="0"/>
        <pt x="467" y="615" on="1"/>
        <pt x="432" y="577" on="1"/>
        <pt x="396" y="610" on="0"/>
        <pt x="321" y="639" on="0"/>
        <pt x="274" y="639" on="1"/>
        <pt x="212" y="639" on="0"/>
        <pt x="135" y="578" on="0"/>
        <pt x="135" y="525" on="1"/>
        <pt x="135" y="490" on="0"/>
        <pt x="163" y="443" on="0"/>
        <pt x="230" y="407" on="0"/>
        <pt x="292" y="388" on="1"/>
        <pt x="360" y="367" on="0"/>
        <pt x="443" y="320" on="0"/>
        <pt x="488" y="245" on="0"/>
        <pt x="488" y="188" on="1"/>
      </contour>
    </TTGlyph>
    <TTGlyph name="dollar.tosf" xMin="52" yMin="-150" xMax="481" yMax="823">
      <contour>
        <pt x="481" y="105" on="0"/>
        <pt x="383" y="2" on="0"/>
        <pt x="300" y="-8" on="1"/>
        <pt x="300" y="-150" on="1"/>
        <pt x="249" y="-150" on="1"/>
        <pt x="249" y="-10" on="1"/>
        <pt x="135" y="-4" on="0"/>
        <pt x="52" y="74" on="1"/>
        <pt x="86" y="113" on="1"/>
        <pt x="125" y="78" on="0"/>
        <pt x="209" y="40" on="0"/>
        <pt x="262" y="40" on="1"/>
        <pt x="333" y="40" on="0"/>
        <pt x="422" y="115" on="0"/>
        <pt x="422" y="182" on="1"/>
        <pt x="422" y="223" on="0"/>
        <pt x="391" y="275" on="0"/>
        <pt x="324" y="313" on="0"/>
        <pt x="263" y="333" on="1"/>
        <pt x="164" y="365" on="0"/>
        <pt x="80" y="444" on="0"/>
        <pt x="80" y="512" on="1"/>
        <pt x="80" y="578" on="0"/>
        <pt x="173" y="668" on="0"/>
        <pt x="249" y="675" on="1"/>
        <pt x="249" y="823" on="1"/>
        <pt x="300" y="823" on="1"/>
        <pt x="300" y="675" on="1"/>
        <pt x="350" y="671" on="0"/>
        <pt x="427" y="635" on="0"/>
        <pt x="463" y="602" on="1"/>
        <pt x="429" y="565" on="1"/>
        <pt x="394" y="597" on="0"/>
        <pt x="320" y="626" on="0"/>
        <pt x="274" y="626" on="1"/>
        <pt x="214" y="626" on="0"/>
        <pt x="139" y="566" on="0"/>
        <pt x="139" y="514" on="1"/>
        <pt x="139" y="480" on="0"/>
        <pt x="166" y="434" on="0"/>
        <pt x="229" y="400" on="0"/>
        <pt x="287" y="381" on="1"/>
        <pt x="352" y="360" on="0"/>
        <pt x="434" y="315" on="0"/>
        <pt x="481" y="241" on="0"/>
        <pt x="481" y="184" on="1"/>
      </contour>
    </TTGlyph>
    <TTGlyph name="dotaccent" xMin="30" yMin="669" xMax="117" yMax="753">
      <contour>
        <pt x="93" y="753" on="0"/>
        <pt x="117" y="729" on="0"/>
        <pt x="117" y="711" on="1"/>
        <pt x="117" y="693" on="0"/>
        <pt x="93" y="669" on="0"/>
        <pt x="73" y="669" on="1"/>
        <pt x="54" y="669" on="0"/>
        <pt x="30" y="693" on="0"/>
        <pt x="30" y="711" on="1"/>
        <pt x="30" y="729" on="0"/>
        <pt x="54" y="753" on="0"/>
        <pt x="73" y="753" on="1"/>
      </contour>
    </TTGlyph>
    <TTGlyph name="dotaccent.case" xMin="30" yMin="796" xMax="117" yMax="879">
      <contour>
        <pt x="93" y="879" on="0"/>
        <pt x="117" y="855" on="0"/>
        <pt x="117" y="837" on="1"/>
        <pt x="117" y="819" on="0"/>
        <pt x="93" y="796" on="0"/>
        <pt x="73" y="796" on="1"/>
        <pt x="54" y="796" on="0"/>
        <pt x="30" y="819" on="0"/>
        <pt x="30" y="837" on="1"/>
        <pt x="30" y="855" on="0"/>
        <pt x="54" y="879" on="0"/>
        <pt x="73" y="879" on="1"/>
      </contour>
    </TTGlyph>
    <TTGlyph name="dotaccent.sc" xMin="30" yMin="700" xMax="117" yMax="783">
      <contour>
        <pt x="93" y="783" on="0"/>
        <pt x="117" y="759" on="0"/>
        <pt x="117" y="741" on="1"/>
        <pt x="117" y="723" on="0"/>
        <pt x="93" y="700" on="0"/>
        <pt x="73" y="700" on="1"/>
        <pt x="54" y="700" on="0"/>
        <pt x="30" y="723" on="0"/>
        <pt x="30" y="741" on="1"/>
        <pt x="30" y="759" on="0"/>
        <pt x="54" y="783" on="0"/>
        <pt x="73" y="783" on="1"/>
      </contour>
    </TTGlyph>
    <TTGlyph name="dotaccentcombcomb" xMin="39" yMin="670" xMax="126" yMax="753">
      <component glyphName="uni0307" x="0" y="0" flags="0x0"/>
    </TTGlyph>
    <TTGlyph name="dotlessi" xMin="106" yMin="0" xMax="164" yMax="523">
      <contour>
        <pt x="106" y="0" on="1"/>
        <pt x="106" y="523" on="1"/>
        <pt x="164" y="523" on="1"/>
        <pt x="164" y="0" on="1"/>
      </contour>
    </TTGlyph>
    <TTGlyph name="dotlessi.sc" xMin="111" yMin="0" xMax="169" yMax="562">
      <component glyphName="i.sc" x="0" y="0" flags="0x0"/>
    </TTGlyph>
    <TTGlyph name="dotlessj.sc" xMin="13" yMin="-101" xMax="167" yMax="562">
      <component glyphName="j.sc" x="0" y="0" flags="0x0"/>
    </TTGlyph>
    <TTGlyph name="dotmath" xMin="56" yMin="271" xMax="151" yMax="367">
      <component glyphName="periodcentered" x="0" y="0" flags="0x0"/>
    </TTGlyph>
    <TTGlyph name="e" xMin="64" yMin="-11" xMax="477" yMax="534">
      <contour>
        <pt x="477" y="259" on="0"/>
        <pt x="475" y="239" on="1"/>
        <pt x="126" y="239" on="1"/>
        <pt x="131" y="137" on="0"/>
        <pt x="218" y="38" on="0"/>
        <pt x="289" y="38" on="1"/>
        <pt x="330" y="38" on="0"/>
        <pt x="393" y="63" on="0"/>
        <pt x="430" y="90" on="1"/>
        <pt x="457" y="53" on="1"/>
        <pt x="418" y="21" on="0"/>
        <pt x="336" y="-11" on="0"/>
        <pt x="286" y="-11" on="1"/>
        <pt x="182" y="-11" on="0"/>
        <pt x="64" y="131" on="0"/>
        <pt x="64" y="257" on="1"/>
        <pt x="64" y="340" on="0"/>
        <pt x="115" y="465" on="0"/>
        <pt x="210" y="534" on="0"/>
        <pt x="273" y="534" on="1"/>
        <pt x="373" y="534" on="0"/>
        <pt x="477" y="399" on="0"/>
        <pt x="477" y="281" on="1"/>
      </contour>
      <contour>
        <pt x="420" y="299" on="1"/>
        <pt x="420" y="387" on="0"/>
        <pt x="347" y="486" on="0"/>
        <pt x="275" y="486" on="1"/>
        <pt x="211" y="486" on="0"/>
        <pt x="130" y="386" on="0"/>
        <pt x="125" y="284" on="1"/>
        <pt x="420" y="284" on="1"/>
      </contour>
    </TTGlyph>
    <TTGlyph name="e.sc" xMin="111" yMin="0" xMax="422" yMax="562">
      <contour>
        <pt x="169" y="514" on="1"/>
        <pt x="169" y="315" on="1"/>
        <pt x="378" y="315" on="1"/>
        <pt x="378" y="268" on="1"/>
        <pt x="169" y="268" on="1"/>
        <pt x="169" y="47" on="1"/>
        <pt x="422" y="47" on="1"/>
        <pt x="422" y="0" on="1"/>
        <pt x="111" y="0" on="1"/>
        <pt x="111" y="562" on="1"/>
        <pt x="417" y="562" on="1"/>
        <pt x="410" y="514" on="1"/>
      </contour>
    </TTGlyph>
    <TTGlyph name="eacute" xMin="64" yMin="-11" xMax="477" yMax="782">
      <component glyphName="e" x="0" y="0" flags="0x0"/>
      <component glyphName="acute" x="129" y="0" flags="0x0"/>
    </TTGlyph>
    <TTGlyph name="eacute.sc" xMin="111" yMin="0" xMax="422" yMax="813">
      <component glyphName="e.sc" x="0" y="0" flags="0x0"/>
      <component glyphName="acute.sc" x="122" y="0" flags="0x0"/>
    </TTGlyph>
    <TTGlyph name="ebreve" xMin="64" yMin="-11" xMax="477" yMax="772">
      <component glyphName="e" x="0" y="0" flags="0x0"/>
      <component glyphName="breve" x="115" y="0" flags="0x0"/>
    </TTGlyph>
    <TTGlyph name="ebreve.sc" xMin="111" yMin="0" xMax="422" yMax="802">
      <component glyphName="e.sc" x="0" y="0" flags="0x0"/>
      <component glyphName="breve.sc" x="104" y="0" flags="0x0"/>
    </TTGlyph>
    <TTGlyph name="ecaron" xMin="64" yMin="-11" xMax="477" yMax="771">
      <component glyphName="e" x="0" y="0" flags="0x0"/>
      <component glyphName="caron" x="101" y="1" flags="0x0"/>
    </TTGlyph>
    <TTGlyph name="ecaron.sc" xMin="111" yMin="0" xMax="422" yMax="799">
      <component glyphName="e.sc" x="0" y="0" flags="0x0"/>
      <component glyphName="caron.sc" x="87" y="0" flags="0x0"/>
    </TTGlyph>
    <TTGlyph name="ecircumflex" xMin="64" yMin="-11" xMax="477" yMax="779">
      <component glyphName="e" x="0" y="0" flags="0x0"/>
      <component glyphName="circumflex" x="100" y="0" flags="0x0"/>
    </TTGlyph>
    <TTGlyph name="ecircumflex.sc" xMin="111" yMin="0" xMax="422" yMax="810">
      <component glyphName="e.sc" x="0" y="0" flags="0x0"/>
      <component glyphName="circumflex.sc" x="87" y="0" flags="0x0"/>
    </TTGlyph>
    <TTGlyph name="edieresis" xMin="64" yMin="-11" xMax="477" yMax="742">
      <component glyphName="e" x="0" y="0" flags="0x0"/>
      <component glyphName="dieresis" x="111" y="0" flags="0x0"/>
    </TTGlyph>
    <TTGlyph name="edieresis.sc" xMin="111" yMin="0" xMax="422" yMax="772">
      <component glyphName="e.sc" x="0" y="0" flags="0x0"/>
      <component glyphName="dieresis.sc" x="100" y="0" flags="0x0"/>
    </TTGlyph>
    <TTGlyph name="edotaccent" xMin="64" yMin="-11" xMax="477" yMax="753">
      <component glyphName="e" x="0" y="0" flags="0x0"/>
      <component glyphName="dotaccent" x="202" y="0" flags="0x0"/>
    </TTGlyph>
    <TTGlyph name="edotaccent.sc" xMin="111" yMin="0" xMax="422" yMax="783">
      <component glyphName="e.sc" x="0" y="0" flags="0x0"/>
      <component glyphName="dotaccent.sc" x="191" y="0" flags="0x0"/>
    </TTGlyph>
    <TTGlyph name="egrave" xMin="64" yMin="-11" xMax="477" yMax="782">
      <component glyphName="e" x="0" y="0" flags="0x0"/>
      <component glyphName="grave" x="146" y="0" flags="0x0"/>
    </TTGlyph>
    <TTGlyph name="egrave.sc" xMin="111" yMin="0" xMax="422" yMax="813">
      <component glyphName="e.sc" x="0" y="0" flags="0x0"/>
      <component glyphName="grave.sc" x="130" y="0" flags="0x0"/>
    </TTGlyph>
    <TTGlyph name="eight" xMin="53" yMin="-11" xMax="485" yMax="676">
      <contour>
        <pt x="413" y="321" on="0"/>
        <pt x="485" y="238" on="0"/>
        <pt x="485" y="173" on="1"/>
        <pt x="485" y="118" on="0"/>
        <pt x="430" y="35" on="0"/>
        <pt x="331" y="-11" on="0"/>
        <pt x="267" y="-11" on="1"/>
        <pt x="203" y="-11" on="0"/>
        <pt x="106" y="35" on="0"/>
        <pt x="53" y="118" on="0"/>
        <pt x="53" y="172" on="1"/>
        <pt x="53" y="301" on="0"/>
        <pt x="196" y="356" on="1"/>
        <pt x="136" y="383" on="0"/>
        <pt x="82" y="455" on="0"/>
        <pt x="82" y="510" on="1"/>
        <pt x="82" y="561" on="0"/>
        <pt x="134" y="637" on="0"/>
        <pt x="220" y="676" on="0"/>
        <pt x="269" y="676" on="1"/>
        <pt x="318" y="676" on="0"/>
        <pt x="404" y="638" on="0"/>
        <pt x="457" y="564" on="0"/>
        <pt x="457" y="511" on="1"/>
        <pt x="457" y="459" on="0"/>
        <pt x="399" y="384" on="0"/>
        <pt x="336" y="353" on="1"/>
      </contour>
      <contour>
        <pt x="140" y="461" on="0"/>
        <pt x="195" y="405" on="0"/>
        <pt x="263" y="380" on="1"/>
        <pt x="294" y="369" on="1"/>
        <pt x="349" y="398" on="0"/>
        <pt x="399" y="463" on="0"/>
        <pt x="399" y="509" on="1"/>
        <pt x="399" y="566" on="0"/>
        <pt x="328" y="630" on="0"/>
        <pt x="269" y="630" on="1"/>
        <pt x="212" y="630" on="0"/>
        <pt x="140" y="566" on="0"/>
        <pt x="140" y="509" on="1"/>
      </contour>
      <contour>
        <pt x="339" y="38" on="0"/>
        <pt x="424" y="109" on="0"/>
        <pt x="424" y="173" on="1"/>
        <pt x="424" y="213" on="0"/>
        <pt x="394" y="266" on="0"/>
        <pt x="332" y="305" on="0"/>
        <pt x="276" y="326" on="1"/>
        <pt x="242" y="339" on="1"/>
        <pt x="175" y="313" on="0"/>
        <pt x="114" y="233" on="0"/>
        <pt x="114" y="172" on="1"/>
        <pt x="114" y="108" on="0"/>
        <pt x="198" y="38" on="0"/>
        <pt x="268" y="38" on="1"/>
      </contour>
    </TTGlyph>
    <TTGlyph name="eight.dnom" xMin="54" yMin="-8" xMax="346" yMax="421">
      <contour>
        <pt x="300" y="201" on="0"/>
        <pt x="346" y="149" on="0"/>
        <pt x="346" y="109" on="1"/>
        <pt x="346" y="57" on="0"/>
        <pt x="264" y="-8" on="0"/>
        <pt x="198" y="-8" on="1"/>
        <pt x="132" y="-8" on="0"/>
        <pt x="54" y="57" on="0"/>
        <pt x="54" y="107" on="1"/>
        <pt x="54" y="146" on="0"/>
        <pt x="101" y="204" on="0"/>
        <pt x="145" y="220" on="1"/>
        <pt x="108" y="237" on="0"/>
        <pt x="73" y="282" on="0"/>
        <pt x="73" y="316" on="1"/>
        <pt x="73" y="364" on="0"/>
        <pt x="147" y="421" on="0"/>
        <pt x="200" y="421" on="1"/>
        <pt x="253" y="421" on="0"/>
        <pt x="327" y="366" on="0"/>
        <pt x="327" y="317" on="1"/>
        <pt x="327" y="286" on="0"/>
        <pt x="290" y="240" on="0"/>
        <pt x="251" y="221" on="1"/>
      </contour>
      <contour>
        <pt x="123" y="288" on="0"/>
        <pt x="155" y="255" on="0"/>
        <pt x="195" y="242" on="1"/>
        <pt x="214" y="235" on="1"/>
        <pt x="248" y="252" on="0"/>
        <pt x="277" y="290" on="0"/>
        <pt x="277" y="316" on="1"/>
        <pt x="277" y="348" on="0"/>
        <pt x="235" y="383" on="0"/>
        <pt x="200" y="383" on="1"/>
        <pt x="166" y="383" on="0"/>
        <pt x="123" y="348" on="0"/>
        <pt x="123" y="317" on="1"/>
      </contour>
      <contour>
        <pt x="242" y="33" on="0"/>
        <pt x="294" y="71" on="0"/>
        <pt x="294" y="109" on="1"/>
        <pt x="294" y="142" on="0"/>
        <pt x="256" y="178" on="0"/>
        <pt x="209" y="195" on="1"/>
        <pt x="184" y="204" on="1"/>
        <pt x="143" y="189" on="0"/>
        <pt x="106" y="143" on="0"/>
        <pt x="106" y="108" on="1"/>
        <pt x="106" y="71" on="0"/>
        <pt x="157" y="33" on="0"/>
        <pt x="199" y="33" on="1"/>
      </contour>
    </TTGlyph>
    <TTGlyph name="eight.numr" xMin="54" yMin="264" xMax="346" yMax="693">
      <component glyphName="eight.dnom" x="0" y="271" flags="0x0"/>
    </TTGlyph>
    <TTGlyph name="eight.osf" xMin="53" yMin="-11" xMax="485" yMax="676">
      <contour>
        <pt x="413" y="321" on="0"/>
        <pt x="485" y="238" on="0"/>
        <pt x="485" y="173" on="1"/>
        <pt x="485" y="118" on="0"/>
        <pt x="430" y="35" on="0"/>
        <pt x="331" y="-11" on="0"/>
        <pt x="267" y="-11" on="1"/>
        <pt x="203" y="-11" on="0"/>
        <pt x="106" y="35" on="0"/>
        <pt x="53" y="118" on="0"/>
        <pt x="53" y="172" on="1"/>
        <pt x="53" y="301" on="0"/>
        <pt x="196" y="356" on="1"/>
        <pt x="136" y="383" on="0"/>
        <pt x="82" y="455" on="0"/>
        <pt x="82" y="510" on="1"/>
        <pt x="82" y="561" on="0"/>
        <pt x="134" y="637" on="0"/>
        <pt x="220" y="676" on="0"/>
        <pt x="269" y="676" on="1"/>
        <pt x="318" y="676" on="0"/>
        <pt x="404" y="638" on="0"/>
        <pt x="457" y="564" on="0"/>
        <pt x="457" y="511" on="1"/>
        <pt x="457" y="459" on="0"/>
        <pt x="399" y="384" on="0"/>
        <pt x="336" y="353" on="1"/>
      </contour>
      <contour>
        <pt x="140" y="461" on="0"/>
        <pt x="195" y="405" on="0"/>
        <pt x="263" y="380" on="1"/>
        <pt x="294" y="369" on="1"/>
        <pt x="349" y="398" on="0"/>
        <pt x="399" y="463" on="0"/>
        <pt x="399" y="509" on="1"/>
        <pt x="399" y="566" on="0"/>
        <pt x="328" y="630" on="0"/>
        <pt x="269" y="630" on="1"/>
        <pt x="212" y="630" on="0"/>
        <pt x="140" y="566" on="0"/>
        <pt x="140" y="509" on="1"/>
      </contour>
      <contour>
        <pt x="339" y="38" on="0"/>
        <pt x="424" y="109" on="0"/>
        <pt x="424" y="173" on="1"/>
        <pt x="424" y="213" on="0"/>
        <pt x="394" y="266" on="0"/>
        <pt x="332" y="305" on="0"/>
        <pt x="276" y="326" on="1"/>
        <pt x="242" y="339" on="1"/>
        <pt x="175" y="313" on="0"/>
        <pt x="114" y="233" on="0"/>
        <pt x="114" y="172" on="1"/>
        <pt x="114" y="108" on="0"/>
        <pt x="198" y="38" on="0"/>
        <pt x="268" y="38" on="1"/>
      </contour>
    </TTGlyph>
    <TTGlyph name="eight.tf" xMin="61" yMin="-11" xMax="498" yMax="696">
      <contour>
        <pt x="427" y="332" on="0"/>
        <pt x="498" y="247" on="0"/>
        <pt x="498" y="178" on="1"/>
        <pt x="498" y="121" on="0"/>
        <pt x="442" y="36" on="0"/>
        <pt x="342" y="-11" on="0"/>
        <pt x="278" y="-11" on="1"/>
        <pt x="213" y="-11" on="0"/>
        <pt x="115" y="36" on="0"/>
        <pt x="61" y="120" on="0"/>
        <pt x="61" y="176" on="1"/>
        <pt x="61" y="311" on="0"/>
        <pt x="206" y="366" on="1"/>
        <pt x="145" y="393" on="0"/>
        <pt x="90" y="467" on="0"/>
        <pt x="90" y="524" on="1"/>
        <pt x="90" y="578" on="0"/>
        <pt x="143" y="656" on="0"/>
        <pt x="230" y="696" on="0"/>
        <pt x="280" y="696" on="1"/>
        <pt x="330" y="696" on="0"/>
        <pt x="417" y="658" on="0"/>
        <pt x="470" y="581" on="0"/>
        <pt x="470" y="526" on="1"/>
        <pt x="470" y="471" on="0"/>
        <pt x="412" y="394" on="0"/>
        <pt x="350" y="363" on="1"/>
      </contour>
      <contour>
        <pt x="147" y="472" on="0"/>
        <pt x="204" y="415" on="0"/>
        <pt x="277" y="389" on="1"/>
        <pt x="307" y="378" on="1"/>
        <pt x="363" y="408" on="0"/>
        <pt x="413" y="474" on="0"/>
        <pt x="413" y="523" on="1"/>
        <pt x="413" y="583" on="0"/>
        <pt x="339" y="650" on="0"/>
        <pt x="280" y="650" on="1"/>
        <pt x="221" y="650" on="0"/>
        <pt x="147" y="584" on="0"/>
        <pt x="147" y="523" on="1"/>
      </contour>
      <contour>
        <pt x="351" y="38" on="0"/>
        <pt x="438" y="111" on="0"/>
        <pt x="438" y="177" on="1"/>
        <pt x="438" y="239" on="0"/>
        <pt x="371" y="306" on="0"/>
        <pt x="287" y="336" on="1"/>
        <pt x="252" y="349" on="1"/>
        <pt x="183" y="322" on="0"/>
        <pt x="121" y="241" on="0"/>
        <pt x="121" y="177" on="1"/>
        <pt x="121" y="110" on="0"/>
        <pt x="207" y="38" on="0"/>
        <pt x="279" y="38" on="1"/>
      </contour>
    </TTGlyph>
    <TTGlyph name="eight.tosf" xMin="63" yMin="-11" xMax="500" yMax="676">
      <contour>
        <pt x="429" y="322" on="0"/>
        <pt x="500" y="238" on="0"/>
        <pt x="500" y="173" on="1"/>
        <pt x="500" y="119" on="0"/>
        <pt x="444" y="35" on="0"/>
        <pt x="344" y="-11" on="0"/>
        <pt x="280" y="-11" on="1"/>
        <pt x="215" y="-11" on="0"/>
        <pt x="116" y="36" on="0"/>
        <pt x="63" y="119" on="0"/>
        <pt x="63" y="172" on="1"/>
        <pt x="63" y="301" on="0"/>
        <pt x="208" y="357" on="1"/>
        <pt x="147" y="383" on="0"/>
        <pt x="92" y="455" on="0"/>
        <pt x="92" y="510" on="1"/>
        <pt x="92" y="561" on="0"/>
        <pt x="145" y="636" on="0"/>
        <pt x="232" y="676" on="0"/>
        <pt x="282" y="676" on="1"/>
        <pt x="332" y="676" on="0"/>
        <pt x="419" y="638" on="0"/>
        <pt x="472" y="563" on="0"/>
        <pt x="472" y="511" on="1"/>
        <pt x="472" y="459" on="0"/>
        <pt x="414" y="385" on="0"/>
        <pt x="352" y="353" on="1"/>
      </contour>
      <contour>
        <pt x="149" y="461" on="0"/>
        <pt x="205" y="405" on="0"/>
        <pt x="275" y="381" on="1"/>
        <pt x="310" y="369" on="1"/>
        <pt x="365" y="399" on="0"/>
        <pt x="414" y="463" on="0"/>
        <pt x="414" y="509" on="1"/>
        <pt x="414" y="565" on="0"/>
        <pt x="342" y="630" on="0"/>
        <pt x="282" y="630" on="1"/>
        <pt x="223" y="630" on="0"/>
        <pt x="149" y="566" on="0"/>
        <pt x="149" y="509" on="1"/>
      </contour>
      <contour>
        <pt x="353" y="38" on="0"/>
        <pt x="440" y="110" on="0"/>
        <pt x="440" y="173" on="1"/>
        <pt x="440" y="231" on="0"/>
        <pt x="373" y="295" on="0"/>
        <pt x="291" y="326" on="1"/>
        <pt x="253" y="339" on="1"/>
        <pt x="184" y="313" on="0"/>
        <pt x="123" y="233" on="0"/>
        <pt x="123" y="172" on="1"/>
        <pt x="123" y="108" on="0"/>
        <pt x="209" y="38" on="0"/>
        <pt x="281" y="38" on="1"/>
      </contour>
    </TTGlyph>
    <TTGlyph name="eightinferior" xMin="54" yMin="-205" xMax="346" yMax="224">
      <component glyphName="eight.dnom" x="0" y="-197" flags="0x0"/>
    </TTGlyph>
    <TTGlyph name="eightsuperior" xMin="54" yMin="315" xMax="346" yMax="744">
      <component glyphName="eight.dnom" x="0" y="322" flags="0x0"/>
    </TTGlyph>
    <TTGlyph name="ellipsis" xMin="55" yMin="-11" xMax="573" yMax="84">
      <component glyphName="period" x="211" y="0" flags="0x0"/>
      <component glyphName="period" x="422" y="0" flags="0x0"/>
      <component glyphName="period" x="0" y="0" flags="0x0"/>
    </TTGlyph>
    <TTGlyph name="emacron" xMin="64" yMin="-11" xMax="477" yMax="723">
      <component glyphName="e" x="0" y="0" flags="0x0"/>
      <component glyphName="macron" x="125" y="0" flags="0x0"/>
    </TTGlyph>
    <TTGlyph name="emacron.sc" xMin="111" yMin="0" xMax="422" yMax="753">
      <component glyphName="e.sc" x="0" y="0" flags="0x0"/>
      <component glyphName="macron.sc" x="114" y="0" flags="0x0"/>
    </TTGlyph>
    <TTGlyph name="emdash" xMin="40" yMin="288" xMax="743" yMax="338">
      <contour>
        <pt x="743" y="338" on="1"/>
        <pt x="743" y="288" on="1"/>
        <pt x="40" y="288" on="1"/>
        <pt x="40" y="338" on="1"/>
      </contour>
    </TTGlyph>
    <TTGlyph name="emdash.case" xMin="40" yMin="333" xMax="743" yMax="383">
      <component glyphName="emdash" x="0" y="45" flags="0x0"/>
    </TTGlyph>
    <TTGlyph name="emptyset" xMin="84" yMin="-16" xMax="816" yMax="716">
      <contour>
        <pt x="742" y="587" on="0"/>
        <pt x="816" y="436" on="0"/>
        <pt x="816" y="349" on="1"/>
        <pt x="816" y="248" on="0"/>
        <pt x="718" y="81" on="0"/>
        <pt x="551" y="-16" on="0"/>
        <pt x="451" y="-16" on="1"/>
        <pt x="394" y="-16" on="0"/>
        <pt x="288" y="17" on="0"/>
        <pt x="243" y="47" on="1"/>
        <pt x="199" y="-12" on="1"/>
        <pt x="148" y="-12" on="1"/>
        <pt x="210" y="72" on="1"/>
        <pt x="151" y="123" on="0"/>
        <pt x="84" y="267" on="0"/>
        <pt x="84" y="349" on="1"/>
        <pt x="84" y="450" on="0"/>
        <pt x="183" y="618" on="0"/>
        <pt x="351" y="716" on="0"/>
        <pt x="451" y="716" on="1"/>
        <pt x="555" y="716" on="0"/>
        <pt x="644" y="662" on="1"/>
        <pt x="681" y="712" on="1"/>
        <pt x="732" y="712" on="1"/>
        <pt x="678" y="638" on="1"/>
      </contour>
      <contour>
        <pt x="130" y="278" on="0"/>
        <pt x="186" y="153" on="0"/>
        <pt x="236" y="108" on="1"/>
        <pt x="618" y="627" on="1"/>
        <pt x="543" y="674" on="0"/>
        <pt x="451" y="674" on="1"/>
        <pt x="363" y="674" on="0"/>
        <pt x="216" y="586" on="0"/>
        <pt x="130" y="437" on="0"/>
        <pt x="130" y="349" on="1"/>
      </contour>
      <contour>
        <pt x="539" y="26" on="0"/>
        <pt x="686" y="112" on="0"/>
        <pt x="770" y="260" on="0"/>
        <pt x="770" y="349" on="1"/>
        <pt x="770" y="425" on="0"/>
        <pt x="707" y="557" on="0"/>
        <pt x="652" y="603" on="1"/>
        <pt x="268" y="82" on="1"/>
        <pt x="351" y="26" on="0"/>
        <pt x="451" y="26" on="1"/>
      </contour>
    </TTGlyph>
    <TTGlyph name="endash" xMin="40" yMin="288" xMax="480" yMax="338">
      <contour>
        <pt x="480" y="338" on="1"/>
        <pt x="480" y="288" on="1"/>
        <pt x="40" y="288" on="1"/>
        <pt x="40" y="338" on="1"/>
      </contour>
    </TTGlyph>
    <TTGlyph name="endash.case" xMin="40" yMin="333" xMax="480" yMax="383">
      <component glyphName="endash" x="0" y="45" flags="0x0"/>
    </TTGlyph>
    <TTGlyph name="eng" xMin="106" yMin="-203" xMax="483" yMax="534">
      <contour>
        <pt x="407" y="534" on="0"/>
        <pt x="483" y="449" on="0"/>
        <pt x="483" y="374" on="1"/>
        <pt x="483" y="19" on="1"/>
        <pt x="483" y="-49" on="0"/>
        <pt x="453" y="-130" on="0"/>
        <pt x="395" y="-178" on="0"/>
        <pt x="343" y="-203" on="1"/>
        <pt x="326" y="-161" on="1"/>
        <pt x="364" y="-142" on="0"/>
        <pt x="405" y="-105" on="0"/>
        <pt x="425" y="-40" on="0"/>
        <pt x="425" y="17" on="1"/>
        <pt x="425" y="366" on="1"/>
        <pt x="425" y="487" on="0"/>
        <pt x="326" y="487" on="1"/>
        <pt x="276" y="487" on="0"/>
        <pt x="199" y="432" on="0"/>
        <pt x="164" y="379" on="1"/>
        <pt x="164" y="0" on="1"/>
        <pt x="106" y="0" on="1"/>
        <pt x="106" y="523" on="1"/>
        <pt x="156" y="523" on="1"/>
        <pt x="161" y="434" on="1"/>
        <pt x="232" y="534" on="0"/>
        <pt x="337" y="534" on="1"/>
      </contour>
    </TTGlyph>
    <TTGlyph name="eng.sc" xMin="111" yMin="-203" xMax="506" yMax="562">
      <contour>
        <pt x="506" y="-58" on="0"/>
        <pt x="476" y="-131" on="0"/>
        <pt x="417" y="-179" on="0"/>
        <pt x="366" y="-203" on="1"/>
        <pt x="349" y="-166" on="1"/>
        <pt x="389" y="-146" on="0"/>
        <pt x="433" y="-109" on="0"/>
        <pt x="455" y="-49" on="0"/>
        <pt x="455" y="0" on="1"/>
        <pt x="429" y="0" on="1"/>
        <pt x="157" y="505" on="1"/>
        <pt x="165" y="409" on="0"/>
        <pt x="165" y="296" on="1"/>
        <pt x="165" y="0" on="1"/>
        <pt x="111" y="0" on="1"/>
        <pt x="111" y="562" on="1"/>
        <pt x="187" y="562" on="1"/>
        <pt x="460" y="56" on="1"/>
        <pt x="452" y="131" on="0"/>
        <pt x="452" y="238" on="1"/>
        <pt x="452" y="562" on="1"/>
        <pt x="506" y="562" on="1"/>
        <pt x="506" y="0" on="1"/>
      </contour>
    </TTGlyph>
</ttFont>
